# SSTK version 0.8.0
# 478
mtllib original-478.mtl
o mesh50/mesh50-geometry#mesh50-geometry
v -0.214835 -0.873271 0.184129
v 0.223822 -0.873271 -0.129714
v -0.214835 -0.873271 -0.129714
v 0.223822 -0.873271 0.184129
v -0.158116 -0.879888 -0.129714
v -0.214835 -0.879888 -0.082448
v 0.223822 -0.890287 0.184129
v 0.223822 -0.879888 0.136864
v -0.158606 -0.879953 -0.129714
v -0.157627 -0.879953 -0.129714
v -0.214835 -0.879953 -0.082938
v -0.214835 -0.879888 0.136864
v -0.214835 -0.890287 0.184129
v 0.223822 -0.883605 0.137353
v 0.223822 -0.879953 0.137353
v 0.223822 -0.879888 -0.082448
v -0.214835 -0.890287 -0.129714
v -0.157171 -0.880142 -0.129714
v -0.214835 -0.880142 -0.083394
v -0.214835 -0.879953 0.137353
v -0.214835 -0.879953 -0.081959
v -0.214835 -0.883605 0.137353
v 0.223822 -0.883670 0.136864
v 0.223822 -0.883416 0.137809
v 0.223822 -0.880142 0.137809
v 0.223822 -0.879953 -0.082938
v 0.223822 -0.879953 0.136374
v -0.159062 -0.880142 -0.129714
v -0.214835 -0.883605 -0.082938
v -0.156780 -0.880442 -0.129714
v -0.214835 -0.880442 -0.083785
v -0.214835 -0.880142 0.137809
v -0.214835 -0.879953 0.136374
v -0.214835 -0.883670 0.136864
v -0.214835 -0.883416 0.137809
v 0.223822 -0.890287 -0.129714
v 0.223822 -0.883670 -0.082448
v 0.223822 -0.883116 0.138201
v 0.223822 -0.880442 0.138201
v 0.223822 -0.880142 -0.083394
v 0.223822 -0.879953 -0.081959
v -0.159453 -0.880442 -0.129714
v -0.214835 -0.883670 -0.082448
v -0.214835 -0.883416 -0.083394
v -0.156479 -0.880834 -0.129714
v -0.214835 -0.880834 -0.084086
v -0.214835 -0.880442 0.138201
v -0.214835 -0.880142 -0.081503
v -0.214835 -0.883116 0.138201
v -0.158116 -0.883670 -0.129714
v 0.223822 -0.883605 -0.081959
v 0.223822 -0.882724 0.138501
v 0.223822 -0.880834 0.138501
v 0.223822 -0.880442 -0.083785
v 0.223822 -0.880142 0.135918
v -0.159754 -0.880834 -0.129714
v -0.214835 -0.883116 -0.083785
v -0.156290 -0.881290 -0.129714
v -0.214835 -0.881290 -0.084275
v -0.214835 -0.880834 0.138501
v -0.214835 -0.880142 0.135918
v -0.214835 -0.882724 0.138501
v -0.158606 -0.883605 -0.129714
v -0.157627 -0.883605 -0.129714
v 0.223822 -0.883605 -0.082938
v -0.214835 -0.883605 0.136374
v 0.223822 -0.883605 0.136374
v 0.223822 -0.882268 0.138690
v 0.223822 -0.881290 0.138690
v 0.223822 -0.880834 -0.084086
v 0.223822 -0.880142 -0.081503
v -0.159943 -0.881290 -0.129714
v -0.214835 -0.882724 -0.084086
v -0.156226 -0.881779 -0.129714
v -0.214835 -0.881779 -0.084339
v -0.214835 -0.881290 0.138690
v -0.214835 -0.880442 -0.081112
v -0.214835 -0.882268 0.138690
v -0.159062 -0.883416 -0.129714
v -0.157171 -0.883416 -0.129714
v -0.214835 -0.883605 -0.081959
v 0.223822 -0.883416 -0.081503
v 0.223822 -0.881779 0.138754
v 0.223822 -0.881290 -0.084275
v 0.223822 -0.880442 0.135527
v -0.160007 -0.881779 -0.129714
v -0.214835 -0.882268 -0.084275
v 0.167104 -0.879888 -0.129714
v -0.214835 -0.881779 0.138754
v -0.214835 -0.880442 0.135527
v -0.159453 -0.883116 -0.129714
v -0.156780 -0.883116 -0.129714
v 0.168994 -0.881779 -0.129714
v 0.223822 -0.883416 -0.083394
v -0.214835 -0.883416 0.135918
v 0.223822 -0.883416 0.135918
v 0.223822 -0.881779 -0.084339
v 0.223822 -0.880442 -0.081112
v -0.159943 -0.882268 -0.129714
v 0.167593 -0.879953 -0.129714
v 0.166614 -0.879953 -0.129714
v -0.214835 -0.880834 -0.080811
v -0.159754 -0.882724 -0.129714
v -0.156479 -0.882724 -0.129714
v 0.168930 -0.882268 -0.129714
v 0.168930 -0.881290 -0.129714
v 0.223822 -0.883116 -0.083785
v -0.214835 -0.883416 -0.081503
v 0.223822 -0.883116 -0.081112
v 0.223822 -0.882268 -0.084275
v 0.223822 -0.880834 0.135226
v 0.168049 -0.880142 -0.129714
v 0.166158 -0.880142 -0.129714
v -0.214835 -0.880834 0.135226
v -0.156290 -0.882268 -0.129714
v 0.168741 -0.882724 -0.129714
v 0.168741 -0.880834 -0.129714
v 0.223822 -0.882724 -0.084086
v -0.214835 -0.883116 0.135527
v 0.223822 -0.883116 0.135527
v 0.223822 -0.880834 -0.080811
v 0.168441 -0.880442 -0.129714
v 0.165767 -0.880442 -0.129714
v -0.214835 -0.881290 -0.080622
v 0.168441 -0.883116 -0.129714
v -0.214835 -0.883116 -0.081112
v 0.223822 -0.882724 -0.080811
v 0.223822 -0.881290 0.135038
v 0.165466 -0.880834 -0.129714
v -0.214835 -0.881290 0.135038
v 0.167104 -0.883670 -0.129714
v 0.168049 -0.883416 -0.129714
v -0.214835 -0.882724 0.135226
v 0.223822 -0.882724 0.135226
v 0.223822 -0.881290 -0.080622
v 0.165278 -0.881290 -0.129714
v -0.214835 -0.881779 -0.080558
v 0.166614 -0.883605 -0.129714
v 0.167593 -0.883605 -0.129714
v -0.214835 -0.882724 -0.080811
v 0.223822 -0.882268 -0.080622
v 0.223822 -0.881779 0.134973
v 0.165213 -0.881779 -0.129714
v -0.214835 -0.881779 0.134973
v 0.166158 -0.883416 -0.129714
v -0.214835 -0.882268 0.135038
v 0.223822 -0.882268 0.135038
v 0.223822 -0.881779 -0.080558
v 0.165278 -0.882268 -0.129714
v -0.214835 -0.882268 -0.080622
v 0.165767 -0.883116 -0.129714
v 0.165466 -0.882724 -0.129714
vt 1.377953 0.141732
vt 0.070866 1.968643
vt 0.070866 0.141732
vt 1.377953 1.968643
vt -0.377953 0.043307
vt -0.141732 0.070866
vt -1.968643 0.070866
vt 0.070866 0.070866
vt 0.267717 0.043307
vt 1.377953 0.070866
vt 0.141732 0.070866
vt 1.968643 0
vt 1.968643 0.070866
vt -1.377953 0.070866
vt -1.181103 0.043307
vt -0.070866 0.070866
vt -0.375915 0.043039
vt -0.379991 0.043039
vt 0.265679 0.043039
vt 1.181103 0.043307
vt 0.141732 0
vt -1.377953 0
vt -1.183141 0.027827
vt -1.183141 0.043039
vt -0.267717 0.043307
vt -0.141732 0
vt -0.38189 0.042252
vt 0.26378 0.042252
vt 1.183141 0.043039
vt 0.269754 0.043039
vt 1.183141 0.027827
vt 1.377953 0
vt -0.070866 0.141732
vt -1.377953 1.968643
vt -1.377953 0.141732
vt -1.181103 0.027559
vt -1.18504 0.028614
vt -1.18504 0.042252
vt -0.265679 0.043039
vt -1.179065 0.043039
vt -0.374016 0.042252
vt 0.070866 0
vt 0.265679 0.027827
vt -0.383521 0.041001
vt 0.262149 0.041001
vt 1.18504 0.042252
vt 1.179065 0.043039
vt 1.181103 0.027559
vt 1.18504 0.028614
vt -0.070866 1.968643
vt -0.267717 0.027559
vt -1.186671 0.029865
vt -1.186671 0.041001
vt -0.26378 0.042252
vt -0.269754 0.043039
vt -0.372385 0.041001
vt 0.267717 0.027559
vt 0.26378 0.028614
vt -0.384772 0.03937
vt 0.260897 0.03937
vt 1.186671 0.041001
vt 0.271654 0.042252
vt 1.186671 0.029865
vt -0.377953 0.027559
vt -1.968643 0
vt -0.070866 0
vt -0.269754 0.027827
vt -1.187922 0.031496
vt -1.187922 0.03937
vt -0.262149 0.041001
vt -1.177166 0.042252
vt -0.371134 0.03937
vt 0.262149 0.029865
vt -0.385558 0.037471
vt 0.260111 0.037471
vt 1.187922 0.03937
vt 1.177166 0.042252
vt 1.187922 0.031496
vt -0.375915 0.027827
vt -0.379991 0.027827
vt -0.265679 0.027827
vt 1.179065 0.027827
vt -1.179065 0.027827
vt -1.188709 0.033395
vt -1.188709 0.037471
vt -0.260897 0.03937
vt -0.271654 0.042252
vt -0.370347 0.037471
vt 0.260897 0.031496
vt -0.385827 0.035433
vt 0.259843 0.035433
vt 1.188709 0.037471
vt 0.273284 0.041001
vt 1.188709 0.033395
vt -0.374016 0.028614
vt -0.38189 0.028614
vt 0.269754 0.027827
vt -0.271654 0.028614
vt -1.188977 0.035433
vt -0.260111 0.037471
vt -1.175535 0.041001
vt -0.370079 0.035433
vt 0.260111 0.033395
vt -1.732422 0.043307
vt 1.188977 0.035433
vt 1.175535 0.041001
vt -0.372385 0.029865
vt -0.383521 0.029865
vt -1.740296 0.035433
vt -0.26378 0.028614
vt 1.177166 0.028614
vt -1.177166 0.028614
vt -0.259843 0.035433
vt -0.273284 0.041001
vt -0.370347 0.033395
vt -1.73446 0.043039
vt -1.730384 0.043039
vt 0.274536 0.03937
vt -0.371134 0.031496
vt -0.384772 0.031496
vt -1.740028 0.033395
vt -1.740028 0.037471
vt -0.262149 0.029865
vt 0.271654 0.028614
vt -0.273284 0.029865
vt -0.260111 0.033395
vt -1.174284 0.03937
vt -1.736359 0.042252
vt -1.728485 0.042252
vt 1.174284 0.03937
vt -0.385558 0.033395
vt -1.739241 0.031496
vt -1.739241 0.03937
vt -0.260897 0.031496
vt 1.175535 0.029865
vt -1.175535 0.029865
vt -0.274536 0.03937
vt -1.73799 0.041001
vt -1.726854 0.041001
vt 0.275322 0.037471
vt -1.73799 0.029865
vt 0.273284 0.029865
vt -0.274536 0.031496
vt -1.173497 0.037471
vt -1.725603 0.03937
vt 1.173497 0.037471
vt -1.732422 0.027559
vt -1.736359 0.028614
vt 1.174284 0.031496
vt -1.174284 0.031496
vt -0.275322 0.037471
vt -1.724816 0.037471
vt 0.275591 0.035433
vt -1.730384 0.027827
vt -1.73446 0.027827
vt 0.274536 0.031496
vt -0.275322 0.033395
vt -1.173229 0.035433
vt -1.724548 0.035433
vt 1.173229 0.035433
vt -1.728485 0.028614
vt 1.173497 0.033395
vt -1.173497 0.033395
vt -0.275591 0.035433
vt -1.724816 0.033395
vt 0.275322 0.033395
vt -1.726854 0.029865
vt -1.725603 0.031496
vn 0 1 0
vn 0 -1 0
vn 0 0 -1
vn 0 0 1
vn -1 0 0
vn 1 0 0
usemtl material_0_0
f 1/1/1 2/2/1 3/3/1
f 2/2/1 1/1/1 4/4/1
f 3/3/2 2/2/2 1/1/2
f 4/4/2 1/1/2 2/2/2
f 5/5/3 3/6/3 2/7/3
f 2/7/4 3/6/4 5/5/4
f 3/8/5 6/9/5 1/10/5
f 1/10/6 6/9/6 3/8/6
f 1/11/4 7/12/4 4/13/4
f 4/13/3 7/12/3 1/11/3
f 4/14/6 8/15/6 2/16/6
f 2/16/5 8/15/5 4/14/5
f 9/17/3 3/6/3 5/5/3
f 5/5/4 3/6/4 9/17/4
f 5/5/3 2/7/3 10/18/3
f 10/18/4 2/7/4 5/5/4
f 3/8/5 11/19/5 6/9/5
f 6/9/6 11/19/6 3/8/6
f 12/20/5 1/10/5 6/9/5
f 6/9/6 1/10/6 12/20/6
f 7/12/4 1/11/4 13/21/4
f 13/21/3 1/11/3 7/12/3
f 7/22/6 14/23/6 4/14/6
f 4/14/5 14/23/5 7/22/5
f 4/14/6 15/24/6 8/15/6
f 8/15/5 15/24/5 4/14/5
f 16/25/6 2/16/6 8/15/6
f 8/15/5 2/16/5 16/25/5
f 3/6/3 9/17/3 17/26/3
f 17/26/4 9/17/4 3/6/4
f 10/18/3 2/7/3 18/27/3
f 18/27/4 2/7/4 10/18/4
f 3/8/5 19/28/5 11/19/5
f 11/19/6 19/28/6 3/8/6
f 20/29/5 1/10/5 12/20/5
f 12/20/6 1/10/6 20/29/6
f 21/30/5 12/20/5 6/9/5
f 6/9/6 12/20/6 21/30/6
f 22/31/5 13/32/5 1/10/5
f 1/10/6 13/32/6 22/31/6
f 17/33/2 7/34/2 13/35/2
f 13/35/1 7/34/1 17/33/1
f 14/23/6 7/22/6 23/36/6
f 23/36/5 7/22/5 14/23/5
f 4/14/6 14/23/6 24/37/6
f 24/37/5 14/23/5 4/14/5
f 4/14/6 25/38/6 15/24/6
f 15/24/5 25/38/5 4/14/5
f 26/39/6 2/16/6 16/25/6
f 16/25/5 2/16/5 26/39/5
f 27/40/6 16/25/6 8/15/6
f 8/15/5 16/25/5 27/40/5
f 17/26/3 9/17/3 28/41/3
f 28/41/4 9/17/4 17/26/4
f 17/42/5 29/43/5 3/8/5
f 3/8/6 29/43/6 17/42/6
f 18/27/3 2/7/3 30/44/3
f 30/44/4 2/7/4 18/27/4
f 3/8/5 31/45/5 19/28/5
f 19/28/6 31/45/6 3/8/6
f 32/46/5 1/10/5 20/29/5
f 20/29/6 1/10/6 32/46/6
f 21/30/5 33/47/5 12/20/5
f 12/20/6 33/47/6 21/30/6
f 34/48/5 13/32/5 22/31/5
f 22/31/6 13/32/6 34/48/6
f 22/31/5 1/10/5 35/49/5
f 35/49/6 1/10/6 22/31/6
f 7/34/2 17/33/2 36/50/2
f 36/50/1 17/33/1 7/34/1
f 13/32/5 34/48/5 17/42/5
f 17/42/6 34/48/6 13/32/6
f 23/36/6 7/22/6 37/51/6
f 37/51/5 7/22/5 23/36/5
f 4/14/6 24/37/6 38/52/6
f 38/52/5 24/37/5 4/14/5
f 4/14/6 39/53/6 25/38/6
f 25/38/5 39/53/5 4/14/5
f 40/54/6 2/16/6 26/39/6
f 26/39/5 2/16/5 40/54/5
f 27/40/6 41/55/6 16/25/6
f 16/25/5 41/55/5 27/40/5
f 17/26/3 28/41/3 42/56/3
f 42/56/4 28/41/4 17/26/4
f 29/43/5 17/42/5 43/57/5
f 43/57/6 17/42/6 29/43/6
f 3/8/5 29/43/5 44/58/5
f 44/58/6 29/43/6 3/8/6
f 30/44/3 2/7/3 45/59/3
f 45/59/4 2/7/4 30/44/4
f 3/8/5 46/60/5 31/45/5
f 31/45/6 46/60/6 3/8/6
f 47/61/5 1/10/5 32/46/5
f 32/46/6 1/10/6 47/61/6
f 48/62/5 33/47/5 21/30/5
f 21/30/6 33/47/6 48/62/6
f 35/49/5 1/10/5 49/63/5
f 49/63/6 1/10/6 35/49/6
f 17/26/3 50/64/3 36/65/3
f 36/65/4 50/64/4 17/26/4
f 36/66/6 37/51/6 7/22/6
f 7/22/5 37/51/5 36/66/5
f 43/57/5 17/42/5 34/48/5
f 34/48/6 17/42/6 43/57/6
f 51/67/6 23/36/6 37/51/6
f 37/51/5 23/36/5 51/67/5
f 4/14/6 38/52/6 52/68/6
f 52/68/5 38/52/5 4/14/5
f 4/14/6 53/69/6 39/53/6
f 39/53/5 53/69/5 4/14/5
f 54/70/6 2/16/6 40/54/6
f 40/54/5 2/16/5 54/70/5
f 55/71/6 41/55/6 27/40/6
f 27/40/5 41/55/5 55/71/5
f 17/26/3 42/56/3 56/72/3
f 56/72/4 42/56/4 17/26/4
f 3/8/5 44/58/5 57/73/5
f 57/73/6 44/58/6 3/8/6
f 45/59/3 2/7/3 58/74/3
f 58/74/4 2/7/4 45/59/4
f 3/8/5 59/75/5 46/60/5
f 46/60/6 59/75/6 3/8/6
f 60/76/5 1/10/5 47/61/5
f 47/61/6 1/10/6 60/76/6
f 48/62/5 61/77/5 33/47/5
f 33/47/6 61/77/6 48/62/6
f 49/63/5 1/10/5 62/78/5
f 62/78/6 1/10/6 49/63/6
f 50/64/3 17/26/3 63/79/3
f 63/79/4 17/26/4 50/64/4
f 36/65/3 50/64/3 64/80/3
f 64/80/4 50/64/4 36/65/4
f 37/51/6 36/66/6 65/81/6
f 65/81/5 36/66/5 37/51/5
f 66/82/5 43/57/5 34/48/5
f 34/48/6 43/57/6 66/82/6
f 23/36/6 51/67/6 67/83/6
f 67/83/5 51/67/5 23/36/5
f 4/14/6 52/68/6 68/84/6
f 68/84/5 52/68/5 4/14/5
f 4/14/6 69/85/6 53/69/6
f 53/69/5 69/85/5 4/14/5
f 70/86/6 2/16/6 54/70/6
f 54/70/5 2/16/5 70/86/5
f 55/71/6 71/87/6 41/55/6
f 41/55/5 71/87/5 55/71/5
f 17/26/3 56/72/3 72/88/3
f 72/88/4 56/72/4 17/26/4
f 3/8/5 57/73/5 73/89/5
f 73/89/6 57/73/6 3/8/6
f 58/74/3 2/7/3 74/90/3
f 74/90/4 2/7/4 58/74/4
f 3/8/5 75/91/5 59/75/5
f 59/75/6 75/91/6 3/8/6
f 76/92/5 1/10/5 60/76/5
f 60/76/6 1/10/6 76/92/6
f 77/93/5 61/77/5 48/62/5
f 48/62/6 61/77/6 77/93/6
f 62/78/5 1/10/5 78/94/5
f 78/94/6 1/10/6 62/78/6
f 63/79/3 17/26/3 79/95/3
f 79/95/4 17/26/4 63/79/4
f 36/65/3 64/80/3 80/96/3
f 80/96/4 64/80/4 36/65/4
f 65/81/6 36/66/6 2/16/6
f 2/16/5 36/66/5 65/81/5
f 43/57/5 66/82/5 81/97/5
f 81/97/6 66/82/6 43/57/6
f 67/83/6 51/67/6 82/98/6
f 82/98/5 51/67/5 67/83/5
f 4/14/6 68/84/6 83/99/6
f 83/99/5 68/84/5 4/14/5
f 4/14/6 83/99/6 69/85/6
f 69/85/5 83/99/5 4/14/5
f 84/100/6 2/16/6 70/86/6
f 70/86/5 2/16/5 84/100/5
f 85/101/6 71/87/6 55/71/6
f 55/71/5 71/87/5 85/101/5
f 17/26/3 72/88/3 86/102/3
f 86/102/4 72/88/4 17/26/4
f 3/8/5 73/89/5 87/103/5
f 87/103/6 73/89/6 3/8/6
f 74/90/3 2/7/3 88/104/3
f 88/104/4 2/7/4 74/90/4
f 3/8/5 87/103/5 75/91/5
f 75/91/6 87/103/6 3/8/6
f 89/105/5 1/10/5 76/92/5
f 76/92/6 1/10/6 89/105/6
f 77/93/5 90/106/5 61/77/5
f 61/77/6 90/106/6 77/93/6
f 78/94/5 1/10/5 89/105/5
f 89/105/6 1/10/6 78/94/6
f 79/95/3 17/26/3 91/107/3
f 91/107/4 17/26/4 79/95/4
f 36/65/3 80/96/3 92/108/3
f 92/108/4 80/96/4 36/65/4
f 36/65/3 93/109/3 2/7/3
f 2/7/4 93/109/4 36/65/4
f 65/81/6 2/16/6 94/110/6
f 94/110/5 2/16/5 65/81/5
f 81/97/5 66/82/5 95/111/5
f 95/111/6 66/82/6 81/97/6
f 67/83/6 82/98/6 96/112/6
f 96/112/5 82/98/5 67/83/5
f 97/113/6 2/16/6 84/100/6
f 84/100/5 2/16/5 97/113/5
f 85/101/6 98/114/6 71/87/6
f 71/87/5 98/114/5 85/101/5
f 99/115/3 17/26/3 86/102/3
f 86/102/4 17/26/4 99/115/4
f 88/104/3 2/7/3 100/116/3
f 100/116/4 2/7/4 88/104/4
f 74/90/3 88/104/3 101/117/3
f 101/117/4 88/104/4 74/90/4
f 102/118/5 90/106/5 77/93/5
f 77/93/6 90/106/6 102/118/6
f 91/107/3 17/26/3 103/119/3
f 103/119/4 17/26/4 91/107/4
f 36/65/3 92/108/3 104/120/3
f 104/120/4 92/108/4 36/65/4
f 36/65/3 105/121/3 93/109/3
f 93/109/4 105/121/4 36/65/4
f 106/122/3 2/7/3 93/109/3
f 93/109/4 2/7/4 106/122/4
f 94/110/6 2/16/6 107/123/6
f 107/123/5 2/16/5 94/110/5
f 81/97/5 95/111/5 108/124/5
f 108/124/6 95/111/6 81/97/6
f 96/112/6 82/98/6 109/125/6
f 109/125/5 82/98/5 96/112/5
f 110/126/6 2/16/6 97/113/6
f 97/113/5 2/16/5 110/126/5
f 111/127/6 98/114/6 85/101/6
f 85/101/5 98/114/5 111/127/5
f 103/119/3 17/26/3 99/115/3
f 99/115/4 17/26/4 103/119/4
f 100/116/3 2/7/3 112/128/3
f 112/128/4 2/7/4 100/116/4
f 74/90/3 101/117/3 113/129/3
f 113/129/4 101/117/4 74/90/4
f 102/118/5 114/130/5 90/106/5
f 90/106/6 114/130/6 102/118/6
f 36/65/3 104/120/3 115/131/3
f 115/131/4 104/120/4 36/65/4
f 36/65/3 116/132/3 105/121/3
f 105/121/4 116/132/4 36/65/4
f 117/133/3 2/7/3 106/122/3
f 106/122/4 2/7/4 117/133/4
f 107/123/6 2/16/6 118/134/6
f 118/134/5 2/16/5 107/123/5
f 108/124/5 95/111/5 119/135/5
f 119/135/6 95/111/6 108/124/6
f 96/112/6 109/125/6 120/136/6
f 120/136/5 109/125/5 96/112/5
f 118/134/6 2/16/6 110/126/6
f 110/126/5 2/16/5 118/134/5
f 111/127/6 121/137/6 98/114/6
f 98/114/5 121/137/5 111/127/5
f 112/128/3 2/7/3 122/138/3
f 122/138/4 2/7/4 112/128/4
f 74/90/3 113/129/3 123/139/3
f 123/139/4 113/129/4 74/90/4
f 124/140/5 114/130/5 102/118/5
f 102/118/6 114/130/6 124/140/6
f 36/65/3 115/131/3 74/90/3
f 74/90/4 115/131/4 36/65/4
f 36/65/3 125/141/3 116/132/3
f 116/132/4 125/141/4 36/65/4
f 122/138/3 2/7/3 117/133/3
f 117/133/4 2/7/4 122/138/4
f 108/124/5 119/135/5 126/142/5
f 126/142/6 119/135/6 108/124/6
f 120/136/6 109/125/6 127/143/6
f 127/143/5 109/125/5 120/136/5
f 128/144/6 121/137/6 111/127/6
f 111/127/5 121/137/5 128/144/5
f 74/90/3 123/139/3 129/145/3
f 129/145/4 123/139/4 74/90/4
f 124/140/5 130/146/5 114/130/5
f 114/130/6 130/146/6 124/140/6
f 36/65/3 74/90/3 131/147/3
f 131/147/4 74/90/4 36/65/4
f 36/65/3 132/148/3 125/141/3
f 125/141/4 132/148/4 36/65/4
f 126/142/5 119/135/5 133/149/5
f 133/149/6 119/135/6 126/142/6
f 120/136/6 127/143/6 134/150/6
f 134/150/5 127/143/5 120/136/5
f 128/144/6 135/151/6 121/137/6
f 121/137/5 135/151/5 128/144/5
f 74/90/3 129/145/3 136/152/3
f 136/152/4 129/145/4 74/90/4
f 137/153/5 130/146/5 124/140/5
f 124/140/6 130/146/6 137/153/6
f 131/147/3 74/90/3 138/154/3
f 138/154/4 74/90/4 131/147/4
f 36/65/3 131/147/3 139/155/3
f 139/155/4 131/147/4 36/65/4
f 36/65/3 139/155/3 132/148/3
f 132/148/4 139/155/4 36/65/4
f 126/142/5 133/149/5 140/156/5
f 140/156/6 133/149/6 126/142/6
f 134/150/6 127/143/6 141/157/6
f 141/157/5 127/143/5 134/150/5
f 142/158/6 135/151/6 128/144/6
f 128/144/5 135/151/5 142/158/5
f 74/90/3 136/152/3 143/159/3
f 143/159/4 136/152/4 74/90/4
f 137/153/5 144/160/5 130/146/5
f 130/146/6 144/160/6 137/153/6
f 138/154/3 74/90/3 145/161/3
f 145/161/4 74/90/4 138/154/4
f 140/156/5 133/149/5 146/162/5
f 146/162/6 133/149/6 140/156/6
f 134/150/6 141/157/6 147/163/6
f 147/163/5 141/157/5 134/150/5
f 142/158/6 148/164/6 135/151/6
f 135/151/5 148/164/5 142/158/5
f 149/165/3 74/90/3 143/159/3
f 143/159/4 74/90/4 149/165/4
f 150/166/5 144/160/5 137/153/5
f 137/153/6 144/160/6 150/166/6
f 145/161/3 74/90/3 151/167/3
f 151/167/4 74/90/4 145/161/4
f 140/156/5 146/162/5 150/166/5
f 150/166/6 146/162/6 140/156/6
f 147/163/6 141/157/6 148/164/6
f 148/164/5 141/157/5 147/163/5
f 147/163/6 148/164/6 142/158/6
f 142/158/5 148/164/5 147/163/5
f 152/168/3 74/90/3 149/165/3
f 149/165/4 74/90/4 152/168/4
f 150/166/5 146/162/5 144/160/5
f 144/160/6 146/162/6 150/166/6
f 151/167/3 74/90/3 152/168/3
f 152/168/4 74/90/4 151/167/4
