# SSTK version 0.8.0
# 226
mtllib original-226.mtl
o Component_1_3/Component_1_1_2/Group_26_2/Group_26_1_2/mesh40/mesh40-geometry#mesh40-geometry
v -0.231851 0.926177 0.175403
v -0.224288 0.926177 0.175403
v -0.231851 0.926347 0.174556
v -0.224288 0.926233 0.176265
v -0.224288 0.926347 0.174556
v -0.231851 0.926233 0.176265
v -0.231851 0.926729 0.173781
v -0.224288 0.926510 0.177083
v -0.224288 0.926729 0.173781
v -0.231851 0.926510 0.177083
v -0.231851 0.927299 0.173132
v -0.224288 0.926990 0.177801
v -0.224288 0.927299 0.173132
v -0.231851 0.926990 0.177801
v -0.224288 0.928018 0.172653
v -0.231851 0.927638 0.178371
v -0.224288 0.927588 0.175622
v -0.224288 0.927841 0.174676
v -0.231851 0.928018 0.172653
v -0.224288 0.927638 0.178371
v -0.224288 0.927653 0.175132
v -0.224288 0.928142 0.174285
v -0.224288 0.928836 0.172376
v -0.231851 0.928413 0.178754
v -0.224288 0.927653 0.176111
v -0.214835 0.927588 0.175622
v -0.214835 0.927653 0.175132
v -0.214835 0.927841 0.174676
v -0.224288 0.928533 0.173984
v -0.231851 0.928836 0.172376
v -0.224288 0.928413 0.178754
v -0.224288 0.927841 0.176567
v -0.214835 0.927653 0.176111
v -0.214835 0.928142 0.174285
v -0.214835 0.928533 0.173984
v -0.224288 0.928989 0.173795
v -0.224288 0.929698 0.172320
v -0.224288 0.928142 0.176958
v -0.231851 0.929260 0.178923
v -0.214835 0.927841 0.176567
v -0.214835 0.928989 0.173795
v -0.224288 0.929479 0.173731
v -0.231851 0.929698 0.172320
v -0.224288 0.928533 0.177259
v -0.224288 0.929260 0.178923
v -0.214835 0.928142 0.176958
v -0.214835 0.929479 0.173731
v -0.224288 0.929968 0.173795
v -0.224288 0.930545 0.172489
v -0.224288 0.928989 0.177448
v -0.231851 0.930122 0.178867
v -0.214835 0.929968 0.173795
v -0.224288 0.930424 0.173984
v -0.231851 0.930545 0.172489
v -0.214835 0.928533 0.177259
v -0.224288 0.929479 0.177512
v -0.224288 0.930122 0.178867
v -0.214835 0.930424 0.173984
v -0.224288 0.930816 0.174285
v -0.224288 0.931319 0.172872
v -0.214835 0.928989 0.177448
v -0.224288 0.929968 0.177448
v -0.231851 0.930940 0.178590
v -0.214835 0.930816 0.174285
v -0.224288 0.931116 0.174676
v -0.224288 0.931305 0.175132
v -0.231851 0.931319 0.172872
v -0.214835 0.929479 0.177512
v -0.224288 0.930424 0.177259
v -0.224288 0.930940 0.178590
v -0.224288 0.931369 0.175622
v -0.224288 0.931968 0.173442
v -0.214835 0.929968 0.177448
v -0.224288 0.930816 0.176958
v -0.231851 0.931658 0.178111
v -0.214835 0.931116 0.174676
v -0.214835 0.931305 0.175132
v -0.224288 0.931658 0.178111
v -0.231851 0.931968 0.173442
v -0.214835 0.930424 0.177259
v -0.224288 0.931116 0.176567
v -0.214835 0.931369 0.175622
v -0.224288 0.931305 0.176111
v -0.224288 0.932228 0.177462
v -0.231851 0.932447 0.174160
v -0.214835 0.930816 0.176958
v -0.214835 0.931116 0.176567
v -0.224288 0.932447 0.174160
v -0.214835 0.931305 0.176111
v -0.231851 0.932228 0.177462
v -0.224288 0.932611 0.176687
v -0.231851 0.932724 0.174979
v -0.224288 0.932724 0.174979
v -0.231851 0.932611 0.176687
v -0.224288 0.932780 0.175840
v -0.231851 0.932780 0.175840
vt 0.001799 0
vt 0.001799 -0.031496
vt -0.001799 0
vt -0.001799 -0.031496
vt 0.013749 0.000912
vt 0.013517 -0.002678
vt 0.013045 0.004439
vt 0.012363 -0.006085
vt 0.011451 0.007664
vt 0.010367 -0.009077
vt 0.009077 0.010367
vt 0.007874 0
vt 0.006819 0.003937
vt 0.006085 0.012363
vt 0.007664 -0.011451
vt 0.007606 0.002038
vt 0.005568 0.005568
vt 0.007606 -0.002038
vt 0.001028 -0.031496
vt 0.001028 -0.070866
vt -0.001028 -0.031496
vt 0.003937 0.006819
vt 0.002678 0.013517
vt 0.006819 -0.003937
vt -0.001028 -0.070866
vt 0.002038 0.007606
vt 0.004439 -0.013045
vt 0.005568 -0.005568
vt 0 0.007874
vt -0.000912 0.013749
vt 0.003937 -0.006819
vt -0.002038 0.007606
vt 0.002038 -0.007606
vt 0.000912 -0.013749
vt -0.003937 0.006819
vt -0.004439 0.013045
vt 0 -0.007874
vt -0.005568 0.005568
vt -0.002038 -0.007606
vt -0.002678 -0.013517
vt -0.006819 0.003937
vt -0.007606 0.002038
vt -0.007664 0.011451
vt -0.003937 -0.006819
vt -0.007874 0
vt -0.005568 -0.005568
vt -0.006085 -0.012363
vt -0.009077 -0.010367
vt -0.010367 0.009077
vt -0.006819 -0.003937
vt -0.007606 -0.002038
vt -0.011451 -0.007664
vt -0.012363 0.006085
vt -0.013045 -0.004439
vt -0.013517 0.002678
vt -0.013749 -0.000912
vn 0 0.9978079001229266 0.06617699337591448
vn 0 0.9466804218995842 0.32217414358080476
vn 0 -0.9466804218995842 -0.32217414358080476
vn 0 -0.9978079001229266 -0.06617699337591448
vn 0 0.9809363941712217 -0.19432907808756103
vn 0 -0.9809363941712217 0.19432907808756103
vn -1 0 0
vn 1 0 0
vn 0 0.8310382976493009 0.5562151992171303
vn 0 -0.8310382976493009 -0.5562151992171303
vn 0 0.8972155835552402 -0.4415927950336482
vn 0 -0.8972155835552402 0.4415927950336482
vn 0 0.6587621976797433 0.7523512257637085
vn 0 -0.6587621976797433 -0.7523512257637085
vn 0 0.7523512257637085 -0.6587621976797433
vn 0 -0.7523512257637085 0.6587621976797433
vn 0 0.4415927950336482 0.8972155835552402
vn 0 -0.4415927950336482 -0.8972155835552402
vn 0 0.5562151992171303 -0.8310382976493009
vn 0 -0.5562151992171303 0.8310382976493009
vn 0 0.19432907808756103 0.9809363941712217
vn 0 -0.19432907808756103 -0.9809363941712217
vn 0 0.32217414358080476 -0.9466804218995842
vn 0 -0.32217414358080476 0.9466804218995842
vn 0 1 0
vn 0 0.9659258492011172 0.258818959593575
vn 0 -0.9659258492011172 -0.258818959593575
vn 0 -1 0
vn 0 0.8660253028382762 0.5000001748438414
vn 0 -0.8660253028382762 -0.5000001748438414
vn 0 0.7071067811865479 0.7071067811865471
vn 0 -0.7071067811865479 -0.7071067811865471
vn 0 0.965925849201117 -0.2588189595935759
vn 0 -0.965925849201117 0.2588189595935759
vn 0 0.5000001748438421 0.8660253028382758
vn 0 -0.5000001748438421 -0.8660253028382758
vn 0 -0.06617699337591448 0.9978079001229266
vn 0 0.06617699337591448 -0.9978079001229266
vn 0 0.8660253028382758 -0.5000001748438421
vn 0 -0.8660253028382758 0.5000001748438421
vn 0 0.2588189595935759 0.965925849201117
vn 0 -0.2588189595935759 -0.965925849201117
vn 0 0.7071067811865471 -0.7071067811865479
vn 0 -0.7071067811865471 0.7071067811865479
vn 0 0 1
vn 0 0 -1
vn 0 0.5000001748438414 -0.8660253028382762
vn 0 -0.5000001748438414 0.8660253028382762
vn 0 -0.258818959593575 0.9659258492011172
vn 0 0.258818959593575 -0.9659258492011172
usemtl material_0_0
f 1/1/1 2/2/1 3/3/2
f 3/3/3 2/2/4 1/1/4
f 2/4/1 1/3/1 4/2/5
f 4/2/6 1/3/4 2/4/4
f 5/4/2 3/3/2 2/2/1
f 2/2/4 3/3/3 5/4/3
f 6/1/5 4/2/5 1/3/1
f 1/3/4 4/2/6 6/1/6
f 2/5/7 4/6/7 5/7/7
f 5/7/8 4/6/8 2/5/8
f 3/1/2 5/2/2 7/3/9
f 7/3/10 5/2/3 3/1/3
f 4/4/5 6/3/5 8/2/11
f 8/2/12 6/3/6 4/4/6
f 4/6/7 8/8/7 5/7/7
f 5/7/8 8/8/8 4/6/8
f 9/4/9 7/3/9 5/2/2
f 5/2/3 7/3/10 9/4/10
f 10/1/11 8/2/11 6/3/5
f 6/3/6 8/2/12 10/1/12
f 5/7/7 8/8/7 9/9/7
f 9/9/8 8/8/8 5/7/8
f 7/1/9 9/2/9 11/3/13
f 11/3/14 9/2/10 7/1/10
f 8/4/11 10/3/11 12/2/15
f 12/2/16 10/3/12 8/4/12
f 8/8/7 12/10/7 9/9/7
f 9/9/8 12/10/8 8/8/8
f 13/4/13 11/3/13 9/2/9
f 9/2/10 11/3/14 13/4/14
f 14/1/15 12/2/15 10/3/11
f 10/3/12 12/2/16 14/1/16
f 9/9/7 12/10/7 13/11/7
f 13/11/8 12/10/8 9/9/8
f 13/2/13 15/4/17 11/1/13
f 11/1/14 15/4/18 13/2/14
f 14/3/15 16/1/19 12/4/15
f 12/4/16 16/1/20 14/3/16
f 13/11/7 12/10/7 17/12/7
f 17/12/8 12/10/8 13/11/8
f 13/11/7 18/13/7 15/14/7
f 15/14/8 18/13/8 13/11/8
f 19/3/17 11/1/13 15/4/17
f 15/4/18 11/1/14 19/3/18
f 20/2/19 12/4/15 16/1/19
f 16/1/20 12/4/16 20/2/20
f 12/10/7 20/15/7 17/12/7
f 17/12/8 20/15/8 12/10/8
f 17/12/7 21/16/7 13/11/7
f 13/11/8 21/16/8 17/12/8
f 21/16/7 18/13/7 13/11/7
f 13/11/8 18/13/8 21/16/8
f 18/13/7 22/17/7 15/14/7
f 15/14/8 22/17/8 18/13/8
f 15/2/17 23/4/21 19/1/17
f 19/1/18 23/4/22 15/2/18
f 16/3/19 24/1/23 20/4/19
f 20/4/20 24/1/24 16/3/20
f 17/12/7 20/15/7 25/18/7
f 25/18/8 20/15/8 17/12/8
f 17/19/25 26/20/25 21/21/26
f 21/21/27 26/20/28 17/19/28
f 21/19/26 27/20/26 18/21/29
f 18/21/30 27/20/27 21/19/27
f 18/19/29 28/20/29 22/21/31
f 22/21/32 28/20/30 18/19/30
f 22/17/7 29/22/7 15/14/7
f 15/14/8 29/22/8 22/17/8
f 15/14/7 29/22/7 23/23/7
f 23/23/8 29/22/8 15/14/8
f 30/3/21 19/1/17 23/4/21
f 23/4/22 19/1/18 30/3/22
f 31/2/23 20/4/19 24/1/23
f 24/1/24 20/4/20 31/2/24
f 25/18/7 20/15/7 32/24/7
f 32/24/8 20/15/8 25/18/8
f 25/19/33 33/20/33 17/21/25
f 17/21/28 33/20/34 25/19/34
f 26/25/25 17/21/25 33/20/33
f 33/20/34 17/21/28 26/25/28
f 27/25/26 21/21/26 26/20/25
f 26/20/28 21/21/27 27/25/27
f 28/25/29 18/21/29 27/20/26
f 27/20/27 18/21/30 28/25/30
f 34/25/31 22/21/31 28/20/29
f 28/20/30 22/21/32 34/25/32
f 29/21/35 22/19/31 35/25/35
f 35/25/36 22/19/32 29/21/36
f 29/22/7 36/26/7 23/23/7
f 23/23/8 36/26/8 29/22/8
f 23/2/21 37/4/37 30/1/21
f 30/1/22 37/4/38 23/2/22
f 20/15/7 31/27/7 38/28/7
f 38/28/8 31/27/8 20/15/8
f 24/3/23 39/1/38 31/4/23
f 31/4/24 39/1/37 24/3/24
f 32/24/7 20/15/7 38/28/7
f 38/28/8 20/15/8 32/24/8
f 32/19/39 40/20/39 25/21/33
f 25/21/34 40/20/40 32/19/40
f 33/25/33 25/21/33 40/20/39
f 40/20/40 25/21/34 33/25/34
f 34/20/31 35/25/35 22/19/31
f 22/19/32 35/25/36 34/20/32
f 35/20/35 41/25/41 29/19/35
f 29/19/36 41/25/42 35/20/36
f 36/21/41 29/19/35 41/25/41
f 41/25/42 29/19/36 36/21/42
f 36/26/7 42/29/7 23/23/7
f 23/23/8 42/29/8 36/26/8
f 23/23/7 42/29/7 37/30/7
f 37/30/8 42/29/8 23/23/8
f 43/3/37 30/1/21 37/4/37
f 37/4/38 30/1/22 43/3/38
f 38/28/7 31/27/7 44/31/7
f 44/31/8 31/27/8 38/28/8
f 45/2/38 31/4/23 39/1/38
f 39/1/37 31/4/24 45/2/37
f 38/19/43 46/20/43 32/21/39
f 32/21/40 46/20/44 38/19/44
f 40/25/39 32/21/39 46/20/43
f 46/20/44 32/21/40 40/25/40
f 41/20/41 47/25/45 36/19/41
f 36/19/42 47/25/46 41/20/42
f 42/21/45 36/19/41 47/25/45
f 47/25/46 36/19/42 42/21/46
f 42/29/7 48/32/7 37/30/7
f 37/30/8 48/32/8 42/29/8
f 37/2/37 49/4/24 43/1/37
f 43/1/38 49/4/23 37/2/38
f 44/31/7 31/27/7 50/33/7
f 50/33/8 31/27/8 44/31/8
f 38/21/43 44/19/47 46/25/43
f 46/25/44 44/19/48 38/21/44
f 31/27/7 45/34/7 50/33/7
f 50/33/8 45/34/8 31/27/8
f 39/3/38 51/1/22 45/4/38
f 45/4/37 51/1/21 39/3/37
f 47/20/45 52/25/49 42/19/45
f 42/19/46 52/25/50 47/20/46
f 48/21/49 42/19/45 52/25/49
f 52/25/50 42/19/46 48/21/50
f 48/32/7 53/35/7 37/30/7
f 37/30/8 53/35/8 48/32/8
f 37/30/7 53/35/7 49/36/7
f 49/36/8 53/35/8 37/30/8
f 54/3/24 43/1/37 49/4/24
f 49/4/23 43/1/38 54/3/23
f 44/21/47 50/19/50 55/25/47
f 55/25/48 50/19/49 44/21/48
f 55/20/47 46/25/43 44/19/47
f 44/19/48 46/25/44 55/20/48
f 50/33/7 45/34/7 56/37/7
f 56/37/8 45/34/8 50/33/8
f 57/2/22 45/4/38 51/1/22
f 51/1/21 45/4/37 57/2/21
f 52/20/49 58/25/48 48/19/49
f 48/19/50 58/25/47 52/20/50
f 53/21/48 48/19/49 58/25/48
f 58/25/47 48/19/50 53/21/47
f 53/35/7 59/38/7 49/36/7
f 49/36/8 59/38/8 53/35/8
f 49/2/24 60/4/20 54/1/24
f 54/1/23 60/4/19 49/2/23
f 61/20/50 55/25/47 50/19/50
f 50/19/49 55/25/48 61/20/49
f 56/37/7 45/34/7 62/39/7
f 62/39/8 45/34/8 56/37/8
f 50/21/50 56/19/46 61/25/50
f 61/25/49 56/19/45 50/21/49
f 45/34/7 57/40/7 62/39/7
f 62/39/8 57/40/8 45/34/8
f 51/3/22 63/1/18 57/4/22
f 57/4/21 63/1/17 51/3/21
f 58/20/48 64/25/44 53/19/48
f 53/19/47 64/25/43 58/20/47
f 59/21/44 53/19/48 64/25/44
f 64/25/43 53/19/47 59/21/43
f 59/38/7 65/41/7 49/36/7
f 49/36/8 65/41/8 59/38/8
f 49/36/7 66/42/7 60/43/7
f 60/43/8 66/42/8 49/36/8
f 67/3/20 54/1/24 60/4/20
f 60/4/19 54/1/23 67/3/19
f 56/21/46 62/19/42 68/25/46
f 68/25/45 62/19/41 56/21/45
f 68/20/46 61/25/50 56/19/46
f 56/19/45 61/25/49 68/20/45
f 62/39/7 57/40/7 69/44/7
f 69/44/8 57/40/8 62/39/8
f 70/2/18 57/4/22 63/1/18
f 63/1/17 57/4/21 70/2/17
f 59/19/44 64/20/44 65/21/40
f 65/21/39 64/20/43 59/19/43
f 65/41/7 66/42/7 49/36/7
f 49/36/8 66/42/8 65/41/8
f 66/42/7 71/45/7 60/43/7
f 60/43/8 71/45/8 66/42/8
f 60/2/20 72/4/16 67/1/20
f 67/1/19 72/4/15 60/2/19
f 73/20/42 68/25/46 62/19/42
f 62/19/41 68/25/45 73/20/41
f 69/44/7 57/40/7 74/46/7
f 74/46/8 57/40/8 69/44/8
f 62/21/42 69/19/36 73/25/42
f 73/25/41 69/19/35 62/21/41
f 57/40/7 70/47/7 74/46/7
f 74/46/8 70/47/8 57/40/8
f 63/3/18 75/1/14 70/4/18
f 70/4/17 75/1/13 63/3/17
f 76/25/40 65/21/40 64/20/44
f 64/20/43 65/21/39 76/25/39
f 65/19/40 76/20/40 66/21/34
f 66/21/33 76/20/39 65/19/39
f 66/19/34 77/20/34 71/21/28
f 71/21/25 77/20/33 66/19/33
f 71/45/7 78/48/7 60/43/7
f 60/43/8 78/48/8 71/45/8
f 60/43/7 78/48/7 72/49/7
f 72/49/8 78/48/8 60/43/8
f 79/3/16 67/1/20 72/4/16
f 72/4/15 67/1/19 79/3/15
f 69/21/36 74/19/32 80/25/36
f 80/25/35 74/19/31 69/21/35
f 80/20/36 73/25/42 69/19/36
f 69/19/35 73/25/41 80/20/35
f 74/46/7 70/47/7 81/50/7
f 81/50/8 70/47/8 74/46/8
f 78/2/14 70/4/18 75/1/14
f 75/1/13 70/4/17 78/2/13
f 77/25/34 66/21/34 76/20/40
f 76/20/39 66/21/33 77/25/33
f 82/25/28 71/21/28 77/20/34
f 77/20/33 71/21/25 82/25/25
f 71/45/7 83/51/7 78/48/7
f 78/48/8 83/51/8 71/45/8
f 78/48/7 84/52/7 72/49/7
f 72/49/8 84/52/8 78/48/8
f 79/1/16 72/2/16 85/3/12
f 85/3/11 72/2/15 79/1/15
f 86/20/32 80/25/36 74/19/32
f 74/19/31 80/25/35 86/20/31
f 81/50/7 70/47/7 83/51/7
f 83/51/8 70/47/8 81/50/8
f 81/19/30 87/20/30 74/21/32
f 74/21/31 87/20/29 81/19/29
f 70/47/7 78/48/7 83/51/7
f 83/51/8 78/48/8 70/47/8
f 78/4/14 75/3/14 84/2/10
f 84/2/9 75/3/13 78/4/13
f 71/19/28 82/20/28 83/21/27
f 83/21/26 82/20/25 71/19/25
f 72/49/7 84/52/7 88/53/7
f 88/53/8 84/52/8 72/49/8
f 88/4/12 85/3/12 72/2/16
f 72/2/15 85/3/11 88/4/11
f 86/25/32 74/21/32 87/20/30
f 87/20/29 74/21/31 86/25/31
f 83/19/27 89/20/27 81/21/30
f 81/21/29 89/20/26 83/19/26
f 87/25/30 81/21/30 89/20/27
f 89/20/26 81/21/29 87/25/29
f 90/1/10 84/2/10 75/3/14
f 75/3/13 84/2/9 90/1/9
f 89/25/27 83/21/27 82/20/28
f 82/20/25 83/21/26 89/25/26
f 84/52/7 91/54/7 88/53/7
f 88/53/8 91/54/8 84/52/8
f 85/1/12 88/2/12 92/3/6
f 92/3/5 88/2/11 85/1/11
f 84/4/10 90/3/10 91/2/3
f 91/2/2 90/3/9 84/4/9
f 88/53/7 91/54/7 93/55/7
f 93/55/8 91/54/8 88/53/8
f 93/4/6 92/3/6 88/2/12
f 88/2/11 92/3/5 93/4/5
f 94/1/3 91/2/3 90/3/10
f 90/3/9 91/2/2 94/1/2
f 95/56/7 93/55/7 91/54/7
f 91/54/8 93/55/8 95/56/8
f 92/1/6 93/2/6 96/3/4
f 96/3/1 93/2/5 92/1/5
f 91/4/3 94/3/3 95/2/4
f 95/2/1 94/3/2 91/4/2
f 95/4/4 96/3/4 93/2/6
f 93/2/5 96/3/1 95/4/1
f 96/1/4 95/2/4 94/3/3
f 94/3/2 95/2/1 96/1/1
