# SSTK version 0.8.0
# 227
mtllib original-227.mtl
o Component_1_4/Component_1/Group_26_1/Group_26/mesh36/mesh36-geometry#mesh36-geometry
v -0.231851 -0.884911 -0.081382
v -0.224288 -0.885080 -0.082229
v -0.231851 -0.885080 -0.082229
v -0.224288 -0.884911 -0.081382
v -0.224288 -0.885024 -0.083091
v -0.231851 -0.884528 -0.080608
v -0.231851 -0.885024 -0.083091
v -0.224288 -0.884528 -0.080608
v -0.224288 -0.884747 -0.083909
v -0.231851 -0.883958 -0.079959
v -0.231851 -0.884747 -0.083909
v -0.224288 -0.883958 -0.079959
v -0.224288 -0.884268 -0.084628
v -0.224288 -0.883240 -0.079480
v -0.231851 -0.884268 -0.084628
v -0.231851 -0.883240 -0.079480
v -0.224288 -0.883416 -0.081503
v -0.224288 -0.883670 -0.082448
v -0.231851 -0.883619 -0.085198
v -0.224288 -0.882422 -0.079203
v -0.224288 -0.883116 -0.081111
v -0.224288 -0.883605 -0.081959
v -0.224288 -0.883619 -0.085198
v -0.231851 -0.882422 -0.079203
v -0.224288 -0.882724 -0.080811
v -0.214835 -0.883416 -0.081503
v -0.214835 -0.883605 -0.081959
v -0.224288 -0.883605 -0.082938
v -0.214835 -0.883670 -0.082448
v -0.231851 -0.882845 -0.085580
v -0.224288 -0.881560 -0.079147
v -0.224288 -0.882268 -0.080622
v -0.214835 -0.882724 -0.080811
v -0.214835 -0.883116 -0.081111
v -0.224288 -0.883416 -0.083394
v -0.214835 -0.883605 -0.082938
v -0.224288 -0.882845 -0.085580
v -0.231851 -0.881560 -0.079147
v -0.224288 -0.881779 -0.080558
v -0.214835 -0.882268 -0.080622
v -0.224288 -0.883116 -0.083785
v -0.214835 -0.883416 -0.083394
v -0.231851 -0.881998 -0.085750
v -0.224288 -0.880713 -0.079316
v -0.224288 -0.881290 -0.080622
v -0.214835 -0.881779 -0.080558
v -0.214835 -0.883116 -0.083785
v -0.224288 -0.882724 -0.084086
v -0.224288 -0.881998 -0.085750
v -0.231851 -0.880713 -0.079316
v -0.224288 -0.880834 -0.080811
v -0.214835 -0.881290 -0.080622
v -0.224288 -0.882268 -0.084274
v -0.231851 -0.881136 -0.085694
v -0.224288 -0.879939 -0.079699
v -0.224288 -0.880442 -0.081111
v -0.214835 -0.880834 -0.080811
v -0.214835 -0.882724 -0.084086
v -0.224288 -0.881779 -0.084339
v -0.224288 -0.881136 -0.085694
v -0.231851 -0.879939 -0.079699
v -0.224288 -0.879953 -0.081959
v -0.224288 -0.880142 -0.081503
v -0.214835 -0.880442 -0.081111
v -0.214835 -0.882268 -0.084274
v -0.224288 -0.881290 -0.084274
v -0.231851 -0.880318 -0.085417
v -0.224288 -0.879290 -0.080269
v -0.224288 -0.879888 -0.082448
v -0.214835 -0.881779 -0.084339
v -0.224288 -0.880834 -0.084086
v -0.224288 -0.880318 -0.085417
v -0.231851 -0.879290 -0.080269
v -0.224288 -0.879599 -0.084938
v -0.214835 -0.879953 -0.081959
v -0.214835 -0.880142 -0.081503
v -0.214835 -0.881290 -0.084274
v -0.224288 -0.880442 -0.083785
v -0.231851 -0.879599 -0.084938
v -0.231851 -0.878810 -0.080987
v -0.224288 -0.879029 -0.084289
v -0.224288 -0.879953 -0.082938
v -0.214835 -0.879888 -0.082448
v -0.214835 -0.880834 -0.084086
v -0.224288 -0.880142 -0.083394
v -0.224288 -0.878810 -0.080987
v -0.214835 -0.880442 -0.083785
v -0.214835 -0.880142 -0.083394
v -0.231851 -0.878533 -0.081805
v -0.224288 -0.878647 -0.083514
v -0.231851 -0.879029 -0.084289
v -0.214835 -0.879953 -0.082938
v -0.224288 -0.878533 -0.081805
v -0.231851 -0.878478 -0.082667
v -0.224288 -0.878478 -0.082667
v -0.231851 -0.878647 -0.083514
vt -0.001799 0
vt 0.001799 -0.031496
vt 0.001799 0
vt -0.001799 -0.031496
vt 0.013045 0.004439
vt 0.013517 -0.002678
vt 0.013749 0.000912
vt 0.012363 -0.006085
vt 0.011451 0.007664
vt 0.010367 -0.009077
vt 0.009077 0.010367
vt 0.006085 0.012363
vt 0.006819 0.003937
vt 0.007874 0
vt 0.005568 0.005568
vt 0.007606 0.002038
vt 0.007664 -0.011451
vt 0.002678 0.013517
vt 0.003937 0.006819
vt -0.001028 -0.031496
vt 0.001028 -0.070866
vt 0.001028 -0.031496
vt 0.007606 -0.002038
vt 0.002038 0.007606
vt -0.001028 -0.070866
vt 0.006819 -0.003937
vt -0.000912 0.013749
vt 0 0.007874
vt 0.005568 -0.005568
vt 0.004439 -0.013045
vt -0.002038 0.007606
vt 0.003937 -0.006819
vt -0.004439 0.013045
vt -0.003937 0.006819
vt 0.002038 -0.007606
vt 0.000912 -0.013749
vt -0.005568 0.005568
vt 0 -0.007874
vt -0.007664 0.011451
vt -0.007606 0.002038
vt -0.006819 0.003937
vt -0.002038 -0.007606
vt -0.002678 -0.013517
vt -0.007874 0
vt -0.003937 -0.006819
vt -0.010367 0.009077
vt -0.009077 -0.010367
vt -0.005568 -0.005568
vt -0.006085 -0.012363
vt -0.011451 -0.007664
vt -0.007606 -0.002038
vt -0.006819 -0.003937
vt -0.012363 0.006085
vt -0.013045 -0.004439
vt -0.013517 0.002678
vt -0.013749 -0.000912
vn 0 0.9466804218995841 -0.3221741435808057
vn 0 0.9978079001229264 -0.06617699337591534
vn 0 -0.9978079001229264 0.06617699337591534
vn 0 -0.9466804218995841 0.3221741435808057
vn 0 0.980936394171222 0.19432907808756023
vn 0 -0.980936394171222 -0.19432907808756023
vn 0 0.8310382976493005 -0.5562151992171309
vn 0 -0.8310382976493005 0.5562151992171309
vn -1 0 0
vn 1 0 0
vn 0 0.8972155835552407 0.4415927950336473
vn 0 -0.8972155835552407 -0.4415927950336473
vn 0 0.6587621976797426 -0.752351225763709
vn 0 -0.6587621976797426 0.752351225763709
vn 0 0.752351225763709 0.6587621976797426
vn 0 -0.752351225763709 -0.6587621976797426
vn 0 0.4415927950336473 -0.8972155835552407
vn 0 -0.4415927950336473 0.8972155835552407
vn 0 0.5562151992171309 0.8310382976493005
vn 0 -0.5562151992171309 -0.8310382976493005
vn 0 0.19432907808756023 -0.980936394171222
vn 0 -0.19432907808756023 0.980936394171222
vn 0 0.7071067811865471 -0.7071067811865479
vn 0 0.8660253028382758 -0.5000001748438421
vn 0 -0.8660253028382758 0.5000001748438421
vn 0 -0.7071067811865471 0.7071067811865479
vn 0 0.965925849201117 -0.2588189595935759
vn 0 -0.965925849201117 0.2588189595935759
vn 0 1 0
vn 0 -1 0
vn 0 0.3221741435808057 0.9466804218995841
vn 0 -0.3221741435808057 -0.9466804218995841
vn 0 -0.06617699337591534 -0.9978079001229264
vn 0 0.06617699337591534 0.9978079001229264
vn 0 0.5000001748438414 -0.8660253028382762
vn 0 -0.5000001748438414 0.8660253028382762
vn 0 0.9659258492011172 0.258818959593575
vn 0 -0.9659258492011172 -0.258818959593575
vn 0 0.258818959593575 -0.9659258492011172
vn 0 -0.258818959593575 0.9659258492011172
vn 0 0.8660253028382762 0.5000001748438414
vn 0 -0.8660253028382762 -0.5000001748438414
vn 0 0 -1
vn 0 0 1
vn 0 0.7071067811865479 0.7071067811865471
vn 0 -0.7071067811865479 -0.7071067811865471
vn 0 -0.2588189595935759 -0.965925849201117
vn 0 0.2588189595935759 0.965925849201117
vn 0 0.5000001748438421 0.8660253028382758
vn 0 -0.5000001748438421 -0.8660253028382758
usemtl material_0_0
f 1/1/1 2/2/2 3/3/2
f 2/2/2 1/1/1 4/4/1
f 3/3/3 2/2/3 1/1/4
f 4/4/4 1/1/4 2/2/3
f 5/2/5 3/1/2 2/4/2
f 2/4/3 3/1/3 5/2/6
f 6/1/7 4/2/1 1/3/1
f 1/3/4 4/2/4 6/1/8
f 4/5/9 5/6/9 2/7/9
f 2/7/10 5/6/10 4/5/10
f 3/1/2 5/2/5 7/3/5
f 7/3/6 5/2/6 3/1/3
f 4/2/1 6/1/7 8/4/7
f 8/4/8 6/1/8 4/2/4
f 4/5/9 9/8/9 5/6/9
f 5/6/10 9/8/10 4/5/10
f 9/2/11 7/1/5 5/4/5
f 5/4/6 7/1/6 9/2/12
f 10/1/13 8/2/7 6/3/7
f 6/3/8 8/2/8 10/1/14
f 8/9/9 9/8/9 4/5/9
f 4/5/10 9/8/10 8/9/10
f 7/1/5 9/2/11 11/3/11
f 11/3/12 9/2/12 7/1/6
f 8/2/7 10/1/13 12/4/13
f 12/4/14 10/1/14 8/2/8
f 8/9/9 13/10/9 9/8/9
f 9/8/10 13/10/10 8/9/10
f 13/2/15 11/1/11 9/4/11
f 9/4/12 11/1/12 13/2/16
f 10/3/13 14/4/17 12/2/13
f 12/2/14 14/4/18 10/3/14
f 12/11/9 13/10/9 8/9/9
f 8/9/10 13/10/10 12/11/10
f 11/1/11 13/2/15 15/3/15
f 15/3/16 13/2/16 11/1/12
f 14/4/17 10/3/13 16/1/17
f 16/1/18 10/3/14 14/4/18
f 14/12/9 17/13/9 12/11/9
f 12/11/10 17/13/10 14/12/10
f 18/14/9 13/10/9 12/11/9
f 12/11/10 13/10/10 18/14/10
f 13/4/15 19/3/19 15/1/15
f 15/1/16 19/3/20 13/4/16
f 16/3/17 20/4/21 14/2/17
f 14/2/18 20/4/22 16/3/18
f 14/12/9 21/15/9 17/13/9
f 17/13/10 21/15/10 14/12/10
f 12/11/9 17/13/9 22/16/9
f 22/16/10 17/13/10 12/11/10
f 18/14/9 23/17/9 13/10/9
f 13/10/10 23/17/10 18/14/10
f 12/11/9 22/16/9 18/14/9
f 18/14/10 22/16/10 12/11/10
f 19/3/19 13/4/15 23/2/19
f 23/2/20 13/4/16 19/3/20
f 20/4/21 16/3/17 24/1/21
f 24/1/22 16/3/18 20/4/22
f 20/18/9 25/19/9 14/12/9
f 14/12/10 25/19/10 20/18/10
f 14/12/9 25/19/9 21/15/9
f 21/15/10 25/19/10 14/12/10
f 21/20/23 26/21/24 17/22/24
f 17/22/25 26/21/25 21/20/26
f 17/20/24 27/21/27 22/22/27
f 22/22/28 27/21/28 17/20/25
f 28/23/9 23/17/9 18/14/9
f 18/14/10 23/17/10 28/23/10
f 22/20/27 29/21/29 18/22/29
f 18/22/30 29/21/30 22/20/28
f 23/4/19 30/3/31 19/1/19
f 19/1/20 30/3/32 23/4/20
f 24/3/21 31/4/33 20/2/21
f 20/2/22 31/4/34 24/3/22
f 20/18/9 32/24/9 25/19/9
f 25/19/10 32/24/10 20/18/10
f 33/25/35 21/22/23 25/20/35
f 25/20/36 21/22/26 33/25/36
f 26/21/24 21/20/23 34/25/23
f 34/25/26 21/20/26 26/21/25
f 27/21/27 17/20/24 26/25/24
f 26/25/25 17/20/25 27/21/28
f 29/21/29 22/20/27 27/25/27
f 27/25/28 22/20/28 29/21/30
f 35/26/9 23/17/9 28/23/9
f 28/23/10 23/17/10 35/26/10
f 18/20/29 36/21/37 28/22/37
f 28/22/38 36/21/38 18/20/30
f 36/21/37 18/20/29 29/25/29
f 29/25/30 18/20/30 36/21/38
f 30/3/31 23/4/19 37/2/31
f 37/2/32 23/4/20 30/3/32
f 31/4/33 24/3/21 38/1/33
f 38/1/34 24/3/22 31/4/34
f 31/27/9 39/28/9 20/18/9
f 20/18/10 39/28/10 31/27/10
f 20/18/9 39/28/9 32/24/9
f 32/24/10 39/28/10 20/18/10
f 40/25/39 25/22/35 32/20/39
f 32/20/40 25/22/36 40/25/40
f 21/22/23 33/25/35 34/21/23
f 34/21/26 33/25/36 21/22/26
f 25/22/35 40/25/39 33/21/35
f 33/21/36 40/25/40 25/22/36
f 41/29/9 23/17/9 35/26/9
f 35/26/10 23/17/10 41/29/10
f 28/20/37 42/21/41 35/22/41
f 35/22/42 42/21/42 28/20/38
f 42/21/41 28/20/37 36/25/37
f 36/25/38 28/20/38 42/21/42
f 41/29/9 37/30/9 23/17/9
f 23/17/10 37/30/10 41/29/10
f 37/4/31 43/3/34 30/1/31
f 30/1/32 43/3/33 37/4/32
f 38/3/33 44/4/32 31/2/33
f 31/2/34 44/4/31 38/3/34
f 31/27/9 45/31/9 39/28/9
f 39/28/10 45/31/10 31/27/10
f 46/25/43 32/22/39 39/20/43
f 39/20/44 32/22/40 46/25/44
f 32/22/39 46/25/43 40/21/39
f 40/21/40 46/25/44 32/22/40
f 35/20/41 47/21/45 41/22/45
f 41/22/46 47/21/46 35/20/42
f 47/21/45 35/20/41 42/25/41
f 42/25/42 35/20/42 47/21/46
f 48/32/9 37/30/9 41/29/9
f 41/29/10 37/30/10 48/32/10
f 43/3/34 37/4/31 49/2/34
f 49/2/33 37/4/32 43/3/33
f 44/4/32 38/3/33 50/1/32
f 50/1/31 38/3/34 44/4/31
f 44/33/9 51/34/9 31/27/9
f 31/27/10 51/34/10 44/33/10
f 31/27/9 51/34/9 45/31/9
f 45/31/10 51/34/10 31/27/10
f 52/25/47 39/22/43 45/20/47
f 45/20/48 39/22/44 52/25/48
f 39/22/43 52/25/47 46/21/43
f 46/21/44 52/25/48 39/22/44
f 47/25/45 48/22/49 41/20/45
f 41/20/46 48/22/50 47/25/46
f 53/35/9 37/30/9 48/32/9
f 48/32/10 37/30/10 53/35/10
f 53/35/9 49/36/9 37/30/9
f 37/30/10 49/36/10 53/35/10
f 49/4/34 54/3/22 43/1/34
f 43/1/33 54/3/21 49/4/33
f 50/3/32 55/4/20 44/2/32
f 44/2/31 55/4/19 50/3/31
f 44/33/9 56/37/9 51/34/9
f 51/34/10 56/37/10 44/33/10
f 57/25/50 45/22/47 51/20/50
f 51/20/49 45/22/48 57/25/49
f 45/22/47 57/25/50 52/21/47
f 52/21/48 57/25/49 45/22/48
f 48/22/49 47/25/45 58/21/49
f 58/21/50 47/25/46 48/22/50
f 58/25/49 53/22/48 48/20/49
f 48/20/50 53/22/47 58/25/50
f 59/38/9 49/36/9 53/35/9
f 53/35/10 49/36/10 59/38/10
f 54/3/22 49/4/34 60/2/22
f 60/2/21 49/4/33 54/3/21
f 55/4/20 50/3/32 61/1/20
f 61/1/19 50/3/31 55/4/19
f 55/39/9 62/40/9 44/33/9
f 44/33/10 62/40/10 55/39/10
f 44/33/9 63/41/9 56/37/9
f 56/37/10 63/41/10 44/33/10
f 64/25/46 51/22/50 56/20/46
f 56/20/45 51/22/49 64/25/45
f 51/22/50 64/25/46 57/21/50
f 57/21/49 64/25/45 51/22/49
f 53/22/48 58/25/49 65/21/48
f 65/21/47 58/25/50 53/22/47
f 66/42/9 49/36/9 59/38/9
f 59/38/10 49/36/10 66/42/10
f 65/25/48 59/22/44 53/20/48
f 53/20/47 59/22/43 65/25/47
f 66/42/9 60/43/9 49/36/9
f 49/36/10 60/43/10 66/42/10
f 60/4/22 67/3/18 54/1/22
f 54/1/21 67/3/17 60/4/21
f 61/3/20 68/4/16 55/2/20
f 55/2/19 68/4/15 61/3/19
f 55/39/9 69/44/9 62/40/9
f 62/40/10 69/44/10 55/39/10
f 44/33/9 62/40/9 63/41/9
f 63/41/10 62/40/10 44/33/10
f 63/20/42 64/21/46 56/22/46
f 56/22/45 64/21/45 63/20/41
f 70/25/44 66/22/40 59/20/44
f 59/20/43 66/22/39 70/25/43
f 59/22/44 65/25/48 70/21/44
f 70/21/43 65/25/47 59/22/43
f 71/45/9 60/43/9 66/42/9
f 66/42/10 60/43/10 71/45/10
f 67/3/18 60/4/22 72/2/18
f 72/2/17 60/4/21 67/3/17
f 68/4/16 61/3/20 73/1/16
f 73/1/15 61/3/19 68/4/15
f 68/46/9 74/47/9 55/39/9
f 55/39/10 74/47/10 68/46/10
f 55/39/9 74/47/9 69/44/9
f 69/44/10 74/47/10 55/39/10
f 69/20/30 75/21/38 62/22/38
f 62/22/37 75/21/37 69/20/29
f 62/20/38 76/21/42 63/22/42
f 63/22/41 76/21/41 62/20/37
f 64/21/46 63/20/42 76/25/42
f 76/25/41 63/20/41 64/21/45
f 66/22/40 70/25/44 77/21/40
f 77/21/39 70/25/43 66/22/39
f 78/48/9 60/43/9 71/45/9
f 71/45/10 60/43/10 78/48/10
f 77/25/40 71/22/36 66/20/40
f 66/20/39 71/22/35 77/25/39
f 78/48/9 72/49/9 60/43/9
f 60/43/10 72/49/10 78/48/10
f 72/4/18 79/3/14 67/1/18
f 67/1/17 79/3/13 72/4/17
f 80/1/12 68/2/16 73/3/16
f 73/3/15 68/2/15 80/1/11
f 68/46/9 81/50/9 74/47/9
f 74/47/10 81/50/10 68/46/10
f 74/47/9 82/51/9 69/44/9
f 69/44/10 82/51/10 74/47/10
f 75/21/38 69/20/30 83/25/30
f 83/25/29 69/20/29 75/21/37
f 76/21/42 62/20/38 75/25/38
f 75/25/37 62/20/37 76/21/41
f 84/25/36 78/22/26 71/20/36
f 71/20/35 78/22/23 84/25/35
f 71/22/36 77/25/40 84/21/36
f 84/21/35 77/25/39 71/22/35
f 85/52/9 72/49/9 78/48/9
f 78/48/10 72/49/10 85/52/10
f 79/3/14 72/4/18 74/2/14
f 74/2/13 72/4/17 79/3/13
f 68/2/16 80/1/12 86/4/12
f 86/4/11 80/1/11 68/2/15
f 86/53/9 81/50/9 68/46/9
f 68/46/10 81/50/10 86/53/10
f 81/2/8 79/1/14 74/4/14
f 74/4/13 79/1/13 81/2/7
f 82/51/9 74/47/9 72/49/9
f 72/49/10 74/47/10 82/51/10
f 82/20/28 83/21/30 69/22/30
f 69/22/29 83/21/29 82/20/27
f 78/22/26 84/25/36 87/21/26
f 87/21/23 84/25/35 78/22/23
f 82/51/9 72/49/9 85/52/9
f 85/52/10 72/49/10 82/51/10
f 78/20/26 88/21/25 85/22/25
f 85/22/24 88/21/24 78/20/23
f 89/1/6 86/2/12 80/3/12
f 80/3/11 86/2/11 89/1/5
f 86/53/9 90/54/9 81/50/9
f 81/50/10 90/54/10 86/53/10
f 79/1/14 81/2/8 91/3/8
f 91/3/7 81/2/7 79/1/13
f 83/21/30 82/20/28 92/25/28
f 92/25/27 82/20/27 83/21/29
f 88/21/25 78/20/26 87/25/26
f 87/25/23 78/20/23 88/21/24
f 85/20/25 92/21/28 82/22/28
f 82/22/27 92/21/27 85/20/24
f 92/21/28 85/20/25 88/25/25
f 88/25/24 85/20/24 92/21/27
f 86/2/12 89/1/6 93/4/6
f 93/4/5 89/1/5 86/2/11
f 93/55/9 90/54/9 86/53/9
f 86/53/10 90/54/10 93/55/10
f 90/2/4 91/1/8 81/4/8
f 81/4/7 91/1/7 90/2/1
f 94/1/3 93/2/6 89/3/6
f 89/3/5 93/2/5 94/1/2
f 90/54/9 93/55/9 95/56/9
f 95/56/10 93/55/10 90/54/10
f 91/1/8 90/2/4 96/3/4
f 96/3/1 90/2/1 91/1/7
f 93/2/6 94/1/3 95/4/3
f 95/4/2 94/1/2 93/2/5
f 95/2/3 96/1/4 90/4/4
f 90/4/1 96/1/1 95/2/2
f 96/1/4 95/2/3 94/3/3
f 94/3/2 95/2/2 96/1/1
