# SSTK version 0.8.0
# 470
mtllib original-470.mtl
o mesh48/mesh48-geometry#mesh48-geometry
v 0.240838 0.970085 -0.146729
v 0.240838 0.953069 0.184129
v 0.240838 0.953069 -0.146729
v 0.240838 0.970085 0.184129
v 0.234156 0.953069 0.136375
v -0.231851 0.953069 -0.146729
v 0.235657 0.970085 -0.099683
v -0.231851 0.970085 0.184129
v 0.233967 0.953069 0.135919
v 0.234221 0.953069 0.136864
v -0.231851 0.970085 -0.146729
v 0.233275 0.953069 0.135227
v 0.235488 0.970085 -0.100530
v 0.235601 0.970085 -0.098821
v -0.231851 0.953069 0.184129
v 0.232549 0.970085 0.140165
v 0.233667 0.953069 0.135527
v 0.234156 0.953069 0.137353
v -0.167794 0.970085 -0.141353
v 0.232819 0.953069 0.135038
v 0.235105 0.970085 -0.101304
v 0.235324 0.970085 -0.098003
v 0.232330 0.953069 0.138754
v 0.233396 0.970085 0.139996
v -0.223124 0.970085 0.140165
v 0.233967 0.953069 0.137809
v -0.226644 0.970085 -0.099245
v -0.168641 0.970085 -0.141184
v 0.176338 0.970085 -0.141523
v 0.232330 0.953069 0.134973
v 0.234535 0.970085 -0.101953
v 0.234845 0.970085 -0.097284
v 0.231841 0.953069 0.138690
v 0.232819 0.953069 0.138690
v 0.234170 0.970085 0.139613
v -0.223986 0.970085 0.140109
v 0.231687 0.970085 0.140109
v 0.233667 0.953069 0.138201
v -0.226588 0.970085 -0.100107
v -0.226475 0.970085 -0.098398
v -0.169415 0.970085 -0.140802
v 0.175491 0.970085 -0.141354
v 0.177200 0.970085 -0.141467
v 0.178736 0.970085 -0.140711
v 0.234196 0.970085 -0.096714
v 0.231841 0.953069 0.135038
v 0.231385 0.953069 0.138501
v 0.233275 0.953069 0.138501
v 0.234819 0.970085 0.139043
v -0.224804 0.970085 0.139832
v -0.222277 0.970085 0.139996
v -0.226311 0.970085 -0.100925
v -0.226092 0.970085 -0.097624
v -0.225183 0.970085 -0.102213
v 0.174717 0.970085 -0.140971
v 0.178018 0.970085 -0.141190
v 0.179306 0.970085 -0.140062
v 0.233421 0.970085 -0.096332
v 0.231385 0.953069 0.135227
v 0.230993 0.953069 0.138201
v 0.235299 0.970085 0.138325
v -0.225523 0.970085 0.139353
v 0.230869 0.970085 0.139832
v -0.225832 0.970085 -0.101643
v -0.225523 0.970085 -0.096975
v -0.170064 0.970085 -0.140232
v -0.166932 0.970085 -0.141298
v 0.179689 0.970085 -0.139287
v 0.232574 0.970085 -0.096162
v 0.230993 0.953069 0.135527
v 0.230693 0.953069 0.137809
v 0.235576 0.970085 0.137507
v -0.226092 0.970085 0.138704
v -0.221503 0.970085 0.139613
v -0.224804 0.970085 -0.096495
v -0.170543 0.970085 -0.139513
v -0.166114 0.970085 -0.141021
v 0.179858 0.970085 -0.138440
v 0.235631 0.970085 0.136645
v 0.230693 0.953069 0.135919
v 0.230504 0.953069 0.137353
v -0.226475 0.970085 0.137930
v 0.230151 0.970085 0.139353
v -0.223986 0.970085 -0.096218
v -0.170820 0.970085 -0.138695
v -0.165395 0.970085 -0.140541
v 0.233816 0.970085 -0.102432
v 0.235462 0.970085 0.135798
v 0.230504 0.953069 0.136375
v 0.230440 0.953069 0.136864
v -0.226644 0.970085 0.137083
v -0.220854 0.970085 0.139043
v -0.223124 0.970085 -0.096163
v -0.170876 0.970085 -0.137833
v 0.174068 0.970085 -0.140401
v 0.179802 0.970085 -0.137578
v 0.235080 0.970085 0.135024
v -0.226588 0.970085 0.136221
v 0.229581 0.970085 0.138704
v -0.170707 0.970085 -0.136986
v -0.164825 0.970085 -0.139892
v 0.179525 0.970085 -0.136760
v 0.234510 0.970085 0.134375
v -0.220374 0.970085 0.138325
v -0.226311 0.970085 0.135403
v -0.170324 0.970085 -0.136212
v 0.173588 0.970085 -0.139682
v 0.179046 0.970085 -0.136042
v 0.233791 0.970085 0.133895
v 0.229198 0.970085 0.137930
v -0.225832 0.970085 0.134684
v -0.169754 0.970085 -0.135563
v -0.164442 0.970085 -0.139118
v 0.178397 0.970085 -0.135472
v 0.232973 0.970085 0.133618
v -0.220097 0.970085 0.137507
v -0.225183 0.970085 0.134114
v -0.169036 0.970085 -0.135084
v 0.173311 0.970085 -0.138864
v 0.177623 0.970085 -0.135089
v 0.232111 0.970085 0.133563
v 0.229029 0.970085 0.137083
v -0.168218 0.970085 -0.134807
v -0.164273 0.970085 -0.138271
v 0.176776 0.970085 -0.134920
v -0.223562 0.970085 0.133563
v -0.220042 0.970085 0.136645
v -0.224409 0.970085 0.133732
v 0.231712 0.970085 -0.096218
v -0.167356 0.970085 -0.134751
v 0.173255 0.970085 -0.138002
v 0.232998 0.970085 -0.102709
v -0.222700 0.970085 0.133618
v 0.229085 0.970085 0.136221
v -0.222277 0.970085 -0.096332
v -0.224409 0.970085 -0.102596
v -0.164329 0.970085 -0.137409
v -0.166509 0.970085 -0.134920
v 0.231264 0.970085 0.133732
v -0.220211 0.970085 0.135798
v 0.230894 0.970085 -0.096495
v -0.223562 0.970085 -0.102765
v 0.173425 0.970085 -0.137155
v 0.175914 0.970085 -0.134976
v -0.221882 0.970085 0.133895
v 0.229362 0.970085 0.135403
v -0.221503 0.970085 -0.096714
v 0.232136 0.970085 -0.102765
v -0.164606 0.970085 -0.136591
v 0.175096 0.970085 -0.135253
v 0.230490 0.970085 0.134114
v -0.220593 0.970085 0.135024
v 0.230176 0.970085 -0.096975
v -0.222700 0.970085 -0.102709
v 0.173807 0.970085 -0.136381
v -0.165734 0.970085 -0.135303
v -0.221163 0.970085 0.134375
v 0.229841 0.970085 0.134684
v -0.220854 0.970085 -0.097284
v 0.231289 0.970085 -0.102596
v -0.165085 0.970085 -0.135873
v 0.174377 0.970085 -0.135732
v 0.229606 0.970085 -0.097624
v -0.221882 0.970085 -0.102432
v -0.220374 0.970085 -0.098003
v 0.230515 0.970085 -0.102213
v 0.229223 0.970085 -0.098398
v -0.221163 0.970085 -0.101953
v -0.220097 0.970085 -0.098821
v 0.229866 0.970085 -0.101643
v 0.229054 0.970085 -0.099245
v -0.220593 0.970085 -0.101304
v -0.220042 0.970085 -0.099683
v 0.229387 0.970085 -0.100925
v 0.229110 0.970085 -0.100107
v -0.220211 0.970085 -0.100530
vt 0 0.070866
vt -1.377953 0
vt 0 0
vt -1.377953 0.070866
vt -1.179065 1.940815
vt 0 1.968643
vt -1.377953 1.968643
vt -1.968643 0.070866
vt -1.968643 0
vt 0.195939 1.947064
vt 1.377953 1.968643
vt 1.968643 0
vt 1.968643 0.070866
vt -1.177166 1.940029
vt -1.181103 1.941084
vt -1.174283 1.937147
vt 0.192411 1.94636
vt 0.199528 1.946832
vt 1.194852 1.934121
vt 1.377953 0
vt -1.175535 1.938777
vt -1.18314 1.940815
vt 1.377953 0.070866
vt 0.022389 0.266784
vt -1.173497 1.935248
vt 0.189186 1.944766
vt 0.202935 1.945678
vt -1.188977 1.93321
vt 1.194147 1.937649
vt 1.194852 0.036345
vt -1.18504 1.940029
vt 0.197762 0.021684
vt 0.023094 0.263256
vt 0.021685 1.700014
vt -1.173229 1.93321
vt 0.186484 1.942392
vt 0.205928 1.943682
vt -1.188708 1.931172
vt -1.188708 1.935248
vt 1.192554 1.940874
vt 1.194619 0.032755
vt 1.194619 1.930532
vt -1.18667 1.938777
vt 0.194173 0.021916
vt 0.20129 0.022388
vt 0.024687 0.260031
vt 0.022389 1.696487
vt 0.021917 1.703604
vt 0.025067 1.710004
vt 0.208302 1.940979
vt -1.173497 1.931172
vt -1.187922 1.929273
vt -1.187922 1.937147
vt 1.19018 1.943577
vt 1.193466 0.029348
vt 1.194147 0.039872
vt 0.190765 0.02307
vt 0.204515 0.023982
vt 0.185399 0.027769
vt 0.023983 1.693262
vt 0.023071 1.707011
vt 0.02777 1.712377
vt 0.209895 1.937754
vt -1.174283 1.929273
vt -1.18667 1.927642
vt 1.187187 1.945573
vt 1.19147 0.026356
vt 1.193466 1.927125
vt 0.187773 0.025066
vt 0.207217 0.026356
vt 0.027061 0.257328
vt 0.022622 0.270373
vt 0.030995 1.713971
vt 0.2106 1.934227
vt -1.175535 1.927642
vt -1.18504 1.92639
vt 1.18378 1.946726
vt 1.188767 0.023982
vt 1.192554 0.043097
vt 0.209214 0.029348
vt 0.030054 0.255332
vt 0.023776 0.27378
vt 0.034522 1.714675
vt 1.180191 1.946959
vt -1.177166 1.92639
vt -1.18314 1.925604
vt 1.185542 0.022388
vt 1.19147 1.924132
vt 0.210367 0.032755
vt 0.033461 0.254179
vt 0.025772 0.276773
vt 0.184487 1.9394
vt 1.176663 1.946254
vt -1.179065 1.925604
vt -1.181103 1.925336
vt 1.182014 0.021684
vt 1.19018 0.0458
vt 0.2106 0.036345
vt 0.037051 0.253946
vt 0.026357 1.690559
vt 0.038112 1.714443
vt 1.173438 1.944661
vt 1.178425 0.021916
vt 1.188767 1.921758
vt 0.040578 0.254651
vt 0.028474 0.279147
vt 0.041519 1.713289
vt 1.170735 1.942287
vt 1.187187 0.047796
vt 1.175018 0.02307
vt 0.043803 0.256244
vt 0.029349 1.688563
vt 0.044512 1.711293
vt 1.168739 1.939295
vt 1.185542 1.920165
vt 1.172025 0.025066
vt 0.046506 0.258618
vt 0.031699 0.28074
vt 0.046885 1.708591
vt 1.167586 1.935887
vt 1.18378 0.04895
vt 1.169651 0.027769
vt 0.048502 0.26161
vt 0.032756 1.687409
vt 0.048479 1.705366
vt 1.167353 1.932298
vt 1.182014 1.91946
vt 0.049656 0.265018
vt 0.035227 0.281445
vt 0.049183 1.701838
vt 1.167353 0.034521
vt 1.180191 0.049182
vt 1.168058 0.030994
vt 0.210367 1.930637
vt 0.049888 0.268607
vt 0.036346 1.687177
vt 0.183334 1.935993
vt 1.167586 0.038111
vt 1.178425 1.919693
vt 0.209895 0.039872
vt 0.183806 0.030994
vt 0.038817 0.281212
vt 0.049184 0.272135
vt 1.168058 1.92877
vt 1.176663 0.048478
vt 0.209214 1.92723
vt 0.183101 0.034521
vt 0.039873 1.687881
vt 0.048951 1.698248
vt 1.168739 0.041518
vt 1.175018 1.920846
vt 0.208302 0.043097
vt 0.183101 1.932403
vt 0.042224 0.280059
vt 0.047797 1.694841
vt 1.169651 1.925545
vt 1.173438 0.046884
vt 0.207218 1.924237
vt 0.183334 0.038111
vt 0.043098 1.689475
vt 0.04759 0.27536
vt 1.170735 0.044511
vt 1.172025 1.922843
vt 0.205928 0.0458
vt 0.183806 1.928876
vt 0.045216 0.278062
vt 0.045801 1.691849
vt 0.204515 1.921864
vt 0.184487 0.041518
vt 0.202935 0.047796
vt 0.185399 1.925651
vt 0.20129 1.92027
vt 0.186483 0.044511
vt 0.199528 0.04895
vt 0.187773 1.922948
vt 0.197762 1.919566
vt 0.189186 0.046884
vt 0.195939 0.049182
vt 0.190766 1.920952
vt 0.194173 1.919798
vt 0.192411 0.048478
vn 1 0 0
vn -1 0 0
vn 0 -1 0
vn 0 1 0
vn 0 0 -1
vn 0 0 1
usemtl material_0_0
f 1/1/1 2/2/1 3/3/1
f 2/2/1 1/1/1 4/4/1
f 3/3/2 2/2/2 1/1/2
f 4/4/2 1/1/2 2/2/2
f 5/5/3 3/6/3 2/7/3
f 2/7/4 3/6/4 5/5/4
f 6/3/5 1/8/5 3/9/5
f 3/9/6 1/8/6 6/3/6
f 1/6/4 7/10/4 4/11/4
f 4/11/3 7/10/3 1/6/3
f 8/1/6 2/12/6 4/13/6
f 4/13/5 2/12/5 8/1/5
f 9/14/3 3/6/3 5/5/3
f 5/5/4 3/6/4 9/14/4
f 5/5/3 2/7/3 10/15/3
f 10/15/4 2/7/4 5/5/4
f 1/8/5 6/3/5 11/1/5
f 11/1/6 6/3/6 1/8/6
f 3/6/3 12/16/3 6/3/3
f 6/3/4 12/16/4 3/6/4
f 7/10/4 1/6/4 13/17/4
f 13/17/3 1/6/3 7/10/3
f 4/11/4 7/10/4 14/18/4
f 14/18/3 7/10/3 4/11/3
f 2/12/6 8/1/6 15/3/6
f 15/3/5 8/1/5 2/12/5
f 4/11/4 16/19/4 8/20/4
f 8/20/3 16/19/3 4/11/3
f 17/21/3 3/6/3 9/14/3
f 9/14/4 3/6/4 17/21/4
f 10/15/3 2/7/3 18/22/3
f 18/22/4 2/7/4 10/15/4
f 6/3/2 8/23/2 11/1/2
f 11/1/1 8/23/1 6/3/1
f 11/3/4 19/24/4 1/6/4
f 1/6/3 19/24/3 11/3/3
f 12/16/3 3/6/3 17/21/3
f 17/21/4 3/6/4 12/16/4
f 6/3/3 12/16/3 20/25/3
f 20/25/4 12/16/4 6/3/4
f 13/17/4 1/6/4 21/26/4
f 21/26/3 1/6/3 13/17/3
f 4/11/4 14/18/4 22/27/4
f 22/27/3 14/18/3 4/11/3
f 8/23/2 6/3/2 15/20/2
f 15/20/1 6/3/1 8/23/1
f 15/2/3 23/28/3 2/7/3
f 2/7/4 23/28/4 15/2/4
f 4/11/4 24/29/4 16/19/4
f 16/19/3 24/29/3 4/11/3
f 25/30/4 8/20/4 16/19/4
f 16/19/3 8/20/3 25/30/3
f 18/22/3 2/7/3 26/31/3
f 26/31/4 2/7/4 18/22/4
f 27/32/4 11/3/4 8/20/4
f 8/20/3 11/3/3 27/32/3
f 19/24/4 11/3/4 28/33/4
f 28/33/3 11/3/3 19/24/3
f 1/6/4 19/24/4 29/34/4
f 29/34/3 19/24/3 1/6/3
f 6/3/3 20/25/3 30/35/3
f 30/35/4 20/25/4 6/3/4
f 21/26/4 1/6/4 31/36/4
f 31/36/3 1/6/3 21/26/3
f 4/11/4 22/27/4 32/37/4
f 32/37/3 22/27/3 4/11/3
f 30/35/3 15/2/3 6/3/3
f 6/3/4 15/2/4 30/35/4
f 15/2/3 33/38/3 23/28/3
f 23/28/4 33/38/4 15/2/4
f 34/39/3 2/7/3 23/28/3
f 23/28/4 2/7/4 34/39/4
f 4/11/4 35/40/4 24/29/4
f 24/29/3 35/40/3 4/11/3
f 36/41/4 8/20/4 25/30/4
f 25/30/3 8/20/3 36/41/3
f 37/42/4 25/30/4 16/19/4
f 16/19/3 25/30/3 37/42/3
f 26/31/3 2/7/3 38/43/3
f 38/43/4 2/7/4 26/31/4
f 39/44/4 11/3/4 27/32/4
f 27/32/3 11/3/3 39/44/3
f 27/32/4 8/20/4 40/45/4
f 40/45/3 8/20/3 27/32/3
f 28/33/4 11/3/4 41/46/4
f 41/46/3 11/3/3 28/33/3
f 29/34/4 19/24/4 42/47/4
f 42/47/3 19/24/3 29/34/3
f 43/48/4 1/6/4 29/34/4
f 29/34/3 1/6/3 43/48/3
f 31/36/4 1/6/4 44/49/4
f 44/49/3 1/6/3 31/36/3
f 4/11/4 32/37/4 45/50/4
f 45/50/3 32/37/3 4/11/3
f 15/2/3 30/35/3 46/51/3
f 46/51/4 30/35/4 15/2/4
f 15/2/3 47/52/3 33/38/3
f 33/38/4 47/52/4 15/2/4
f 48/53/3 2/7/3 34/39/3
f 34/39/4 2/7/4 48/53/4
f 4/11/4 49/54/4 35/40/4
f 35/40/3 49/54/3 4/11/3
f 50/55/4 8/20/4 36/41/4
f 36/41/3 8/20/3 50/55/3
f 37/42/4 51/56/4 25/30/4
f 25/30/3 51/56/3 37/42/3
f 38/43/3 2/7/3 48/53/3
f 48/53/4 2/7/4 38/43/4
f 52/57/4 11/3/4 39/44/4
f 39/44/3 11/3/3 52/57/3
f 40/45/4 8/20/4 53/58/4
f 53/58/3 8/20/3 40/45/3
f 41/46/4 11/3/4 54/59/4
f 54/59/3 11/3/3 41/46/3
f 19/24/4 55/60/4 42/47/4
f 42/47/3 55/60/3 19/24/3
f 56/61/4 1/6/4 43/48/4
f 43/48/3 1/6/3 56/61/3
f 44/49/4 1/6/4 56/61/4
f 56/61/3 1/6/3 44/49/3
f 31/36/4 44/49/4 57/62/4
f 57/62/3 44/49/3 31/36/3
f 4/11/4 45/50/4 58/63/4
f 58/63/3 45/50/3 4/11/3
f 15/2/3 46/51/3 59/64/3
f 59/64/4 46/51/4 15/2/4
f 15/2/3 60/65/3 47/52/3
f 47/52/4 60/65/4 15/2/4
f 4/11/4 61/66/4 49/54/4
f 49/54/3 61/66/3 4/11/3
f 62/67/4 8/20/4 50/55/4
f 50/55/3 8/20/3 62/67/3
f 63/68/4 51/56/4 37/42/4
f 37/42/3 51/56/3 63/68/3
f 64/69/4 11/3/4 52/57/4
f 52/57/3 11/3/3 64/69/3
f 53/58/4 8/20/4 65/70/4
f 65/70/3 8/20/3 53/58/3
f 54/59/4 11/3/4 64/69/4
f 64/69/3 11/3/3 54/59/3
f 41/46/4 54/59/4 66/71/4
f 66/71/3 54/59/3 41/46/3
f 55/60/4 19/24/4 67/72/4
f 67/72/3 19/24/3 55/60/3
f 31/36/4 57/62/4 68/73/4
f 68/73/3 57/62/3 31/36/3
f 4/11/4 58/63/4 69/74/4
f 69/74/3 58/63/3 4/11/3
f 15/2/3 59/64/3 70/75/3
f 70/75/4 59/64/4 15/2/4
f 15/2/3 71/76/3 60/65/3
f 60/65/4 71/76/4 15/2/4
f 4/11/4 72/77/4 61/66/4
f 61/66/3 72/77/3 4/11/3
f 73/78/4 8/20/4 62/67/4
f 62/67/3 8/20/3 73/78/3
f 63/68/4 74/79/4 51/56/4
f 51/56/3 74/79/3 63/68/3
f 65/70/4 8/20/4 75/80/4
f 75/80/3 8/20/3 65/70/3
f 66/71/4 54/59/4 76/81/4
f 76/81/3 54/59/3 66/71/3
f 55/60/4 67/72/4 77/82/4
f 77/82/3 67/72/3 55/60/3
f 31/36/4 68/73/4 78/83/4
f 78/83/3 68/73/3 31/36/3
f 4/11/4 69/74/4 79/84/4
f 79/84/3 69/74/3 4/11/3
f 15/2/3 70/75/3 80/85/3
f 80/85/4 70/75/4 15/2/4
f 15/2/3 81/86/3 71/76/3
f 71/76/4 81/86/4 15/2/4
f 4/11/4 79/84/4 72/77/4
f 72/77/3 79/84/3 4/11/3
f 82/87/4 8/20/4 73/78/4
f 73/78/3 8/20/3 82/87/3
f 83/88/4 74/79/4 63/68/4
f 63/68/3 74/79/3 83/88/3
f 75/80/4 8/20/4 84/89/4
f 84/89/3 8/20/3 75/80/3
f 76/81/4 54/59/4 85/90/4
f 85/90/3 54/59/3 76/81/3
f 55/60/4 77/82/4 86/91/4
f 86/91/3 77/82/3 55/60/3
f 31/36/4 78/83/4 87/92/4
f 87/92/3 78/83/3 31/36/3
f 79/84/4 69/74/4 88/93/4
f 88/93/3 69/74/3 79/84/3
f 15/2/3 80/85/3 89/94/3
f 89/94/4 80/85/4 15/2/4
f 15/2/3 90/95/3 81/86/3
f 81/86/4 90/95/4 15/2/4
f 91/96/4 8/20/4 82/87/4
f 82/87/3 8/20/3 91/96/3
f 83/88/4 92/97/4 74/79/4
f 74/79/3 92/97/3 83/88/3
f 84/89/4 8/20/4 93/98/4
f 93/98/3 8/20/3 84/89/3
f 85/90/4 54/59/4 94/99/4
f 94/99/3 54/59/3 85/90/3
f 55/60/4 86/91/4 95/100/4
f 95/100/3 86/91/3 55/60/3
f 87/92/4 78/83/4 96/101/4
f 96/101/3 78/83/3 87/92/3
f 88/93/4 69/74/4 97/102/4
f 97/102/3 69/74/3 88/93/3
f 15/2/3 89/94/3 90/95/3
f 90/95/4 89/94/4 15/2/4
f 98/103/4 8/20/4 91/96/4
f 91/96/3 8/20/3 98/103/3
f 99/104/4 92/97/4 83/88/4
f 83/88/3 92/97/3 99/104/3
f 93/98/4 8/20/4 98/103/4
f 98/103/3 8/20/3 93/98/3
f 94/99/4 54/59/4 100/105/4
f 100/105/3 54/59/3 94/99/3
f 95/100/4 86/91/4 101/106/4
f 101/106/3 86/91/3 95/100/3
f 87/92/4 96/101/4 102/107/4
f 102/107/3 96/101/3 87/92/3
f 97/102/4 69/74/4 103/108/4
f 103/108/3 69/74/3 97/102/3
f 99/104/4 104/109/4 92/97/4
f 92/97/3 104/109/3 99/104/3
f 93/98/4 98/103/4 105/110/4
f 105/110/3 98/103/3 93/98/3
f 100/105/4 54/59/4 106/111/4
f 106/111/3 54/59/3 100/105/3
f 95/100/4 101/106/4 107/112/4
f 107/112/3 101/106/3 95/100/3
f 87/92/4 102/107/4 108/113/4
f 108/113/3 102/107/3 87/92/3
f 103/108/4 69/74/4 109/114/4
f 109/114/3 69/74/3 103/108/3
f 110/115/4 104/109/4 99/104/4
f 99/104/3 104/109/3 110/115/3
f 93/98/4 105/110/4 111/116/4
f 111/116/3 105/110/3 93/98/3
f 106/111/4 54/59/4 112/117/4
f 112/117/3 54/59/3 106/111/3
f 107/112/4 101/106/4 113/118/4
f 113/118/3 101/106/3 107/112/3
f 87/92/4 108/113/4 114/119/4
f 114/119/3 108/113/3 87/92/3
f 109/114/4 69/74/4 115/120/4
f 115/120/3 69/74/3 109/114/3
f 110/115/4 116/121/4 104/109/4
f 104/109/3 116/121/3 110/115/3
f 93/98/4 111/116/4 117/122/4
f 117/122/3 111/116/3 93/98/3
f 112/117/4 54/59/4 118/123/4
f 118/123/3 54/59/3 112/117/3
f 107/112/4 113/118/4 119/124/4
f 119/124/3 113/118/3 107/112/3
f 87/92/4 114/119/4 120/125/4
f 120/125/3 114/119/3 87/92/3
f 115/120/4 69/74/4 121/126/4
f 121/126/3 69/74/3 115/120/3
f 122/127/4 116/121/4 110/115/4
f 110/115/3 116/121/3 122/127/3
f 93/98/4 117/122/4 69/74/4
f 69/74/3 117/122/3 93/98/3
f 118/123/4 54/59/4 123/128/4
f 123/128/3 54/59/3 118/123/3
f 119/124/4 113/118/4 124/129/4
f 124/129/3 113/118/3 119/124/3
f 87/92/4 120/125/4 125/130/4
f 125/130/3 120/125/3 87/92/3
f 121/126/4 69/74/4 126/131/4
f 126/131/3 69/74/3 121/126/3
f 122/127/4 127/132/4 116/121/4
f 116/121/3 127/132/3 122/127/3
f 69/74/4 117/122/4 128/133/4
f 128/133/3 117/122/3 69/74/3
f 129/134/4 93/98/4 69/74/4
f 69/74/3 93/98/3 129/134/3
f 123/128/4 54/59/4 130/135/4
f 130/135/3 54/59/3 123/128/3
f 119/124/4 124/129/4 131/136/4
f 131/136/3 124/129/3 119/124/3
f 87/92/4 125/130/4 132/137/4
f 132/137/3 125/130/3 87/92/3
f 69/74/4 128/133/4 126/131/4
f 126/131/3 128/133/3 69/74/3
f 133/138/4 121/126/4 126/131/4
f 126/131/3 121/126/3 133/138/3
f 134/139/4 127/132/4 122/127/4
f 122/127/3 127/132/3 134/139/3
f 129/134/4 135/140/4 93/98/4
f 93/98/3 135/140/3 129/134/3
f 130/135/4 54/59/4 136/141/4
f 136/141/3 54/59/3 130/135/3
f 131/136/4 124/129/4 137/142/4
f 137/142/3 124/129/3 131/136/3
f 132/137/4 125/130/4 138/143/4
f 138/143/3 125/130/3 132/137/3
f 121/126/4 133/138/4 139/144/4
f 139/144/3 133/138/3 121/126/3
f 134/139/4 140/145/4 127/132/4
f 127/132/3 140/145/3 134/139/3
f 141/146/4 135/140/4 129/134/4
f 129/134/3 135/140/3 141/146/3
f 130/135/4 136/141/4 142/147/4
f 142/147/3 136/141/3 130/135/3
f 131/136/4 137/142/4 143/148/4
f 143/148/3 137/142/3 131/136/3
f 144/149/4 138/143/4 125/130/4
f 125/130/3 138/143/3 144/149/3
f 132/137/4 138/143/4 130/135/4
f 130/135/3 138/143/3 132/137/3
f 139/144/4 133/138/4 145/150/4
f 145/150/3 133/138/3 139/144/3
f 146/151/4 140/145/4 134/139/4
f 134/139/3 140/145/3 146/151/3
f 141/146/4 147/152/4 135/140/4
f 135/140/3 147/152/3 141/146/3
f 148/153/4 130/135/4 142/147/4
f 142/147/3 130/135/3 148/153/3
f 143/148/4 137/142/4 149/154/4
f 149/154/3 137/142/3 143/148/3
f 150/155/4 138/143/4 144/149/4
f 144/149/3 138/143/3 150/155/3
f 132/137/4 130/135/4 148/153/4
f 148/153/3 130/135/3 132/137/3
f 139/144/4 145/150/4 151/156/4
f 151/156/3 145/150/3 139/144/3
f 146/151/4 152/157/4 140/145/4
f 140/145/3 152/157/3 146/151/3
f 153/158/4 147/152/4 141/146/4
f 141/146/3 147/152/3 153/158/3
f 154/159/4 148/153/4 142/147/4
f 142/147/3 148/153/3 154/159/3
f 143/148/4 149/154/4 155/160/4
f 155/160/3 149/154/3 143/148/3
f 150/155/4 156/161/4 138/143/4
f 138/143/3 156/161/3 150/155/3
f 151/156/4 145/150/4 157/162/4
f 157/162/3 145/150/3 151/156/3
f 158/163/4 152/157/4 146/151/4
f 146/151/3 152/157/3 158/163/3
f 153/158/4 159/164/4 147/152/4
f 147/152/3 159/164/3 153/158/3
f 148/153/4 154/159/4 160/165/4
f 160/165/3 154/159/3 148/153/3
f 155/160/4 149/154/4 161/166/4
f 161/166/3 149/154/3 155/160/3
f 162/167/4 156/161/4 150/155/4
f 150/155/3 156/161/3 162/167/3
f 151/156/4 157/162/4 158/163/4
f 158/163/3 157/162/3 151/156/3
f 158/163/4 157/162/4 152/157/4
f 152/157/3 157/162/3 158/163/3
f 163/168/4 159/164/4 153/158/4
f 153/158/3 159/164/3 163/168/3
f 160/165/4 154/159/4 164/169/4
f 164/169/3 154/159/3 160/165/3
f 155/160/4 161/166/4 162/167/4
f 162/167/3 161/166/3 155/160/3
f 162/167/4 161/166/4 156/161/4
f 156/161/3 161/166/3 162/167/3
f 163/168/4 165/170/4 159/164/4
f 159/164/3 165/170/3 163/168/3
f 160/165/4 164/169/4 166/171/4
f 166/171/3 164/169/3 160/165/3
f 167/172/4 165/170/4 163/168/4
f 163/168/3 165/170/3 167/172/3
f 166/171/4 164/169/4 168/173/4
f 168/173/3 164/169/3 166/171/3
f 167/172/4 169/174/4 165/170/4
f 165/170/3 169/174/3 167/172/3
f 166/171/4 168/173/4 170/175/4
f 170/175/3 168/173/3 166/171/3
f 171/176/4 169/174/4 167/172/4
f 167/172/3 169/174/3 171/176/3
f 170/175/4 168/173/4 172/177/4
f 172/177/3 168/173/3 170/175/3
f 171/176/4 173/178/4 169/174/4
f 169/174/3 173/178/3 171/176/3
f 170/175/4 172/177/4 174/179/4
f 174/179/3 172/177/3 170/175/3
f 175/180/4 173/178/4 171/176/4
f 171/176/3 173/178/3 175/180/3
f 174/179/4 172/177/4 176/181/4
f 176/181/3 172/177/3 174/179/3
f 175/180/4 176/181/4 173/178/4
f 173/178/3 176/181/3 175/180/3
f 174/179/4 176/181/4 175/180/4
f 175/180/3 176/181/3 174/179/3
