# SSTK version 0.8.0
# 56
mtllib original-56.mtl
o mesh31/mesh31-geometry#mesh31-geometry
v -0.214835 0.646789 -0.073885
v -0.224288 0.646881 -0.074619
v -0.224288 0.646789 -0.073885
v -0.214835 0.646881 -0.074619
v -0.224288 0.652460 -0.073916
v -0.214835 0.646889 -0.073151
v -0.224288 0.647161 -0.075305
v -0.224288 0.652368 -0.073181
v -0.224288 0.652360 -0.074649
v -0.224288 0.646889 -0.073151
v -0.214835 0.647161 -0.075305
v -0.214835 0.652460 -0.073916
v -0.214835 0.652360 -0.074649
v -0.214835 0.647176 -0.072469
v -0.224288 0.647608 -0.075895
v -0.224288 0.652073 -0.075332
v -0.224288 0.652088 -0.072496
v -0.214835 0.652368 -0.073181
v -0.214835 0.652073 -0.075332
v -0.224288 0.647176 -0.072469
v -0.214835 0.647608 -0.075895
v -0.214835 0.647630 -0.071884
v -0.214835 0.648193 -0.076349
v -0.224288 0.651619 -0.075916
v -0.214835 0.651619 -0.075916
v -0.224288 0.651641 -0.071906
v -0.214835 0.652088 -0.072496
v -0.224288 0.647630 -0.071884
v -0.224288 0.648193 -0.076349
v -0.224288 0.648220 -0.071437
v -0.214835 0.648876 -0.076636
v -0.224288 0.651029 -0.076364
v -0.224288 0.651056 -0.071452
v -0.214835 0.651641 -0.071906
v -0.214835 0.648220 -0.071437
v -0.224288 0.648876 -0.076636
v -0.214835 0.651029 -0.076364
v -0.214835 0.651056 -0.071452
v -0.224288 0.648905 -0.071157
v -0.224288 0.650373 -0.071165
v -0.214835 0.649609 -0.076736
v -0.224288 0.650344 -0.076644
v -0.214835 0.650373 -0.071165
v -0.214835 0.648905 -0.071157
v -0.224288 0.649609 -0.076736
v -0.214835 0.650344 -0.076644
v -0.224288 0.649640 -0.071064
v -0.214835 0.649640 -0.071064
vt -0.870822 0
vt -0.873906 -0.03937
vt -0.870822 -0.03937
vt -0.873906 0
vt 0.87785 0.023622
vt 0.877721 0
vt 0.88078 0.000386
vt -0.869576 -0.03937
vt -0.866493 0
vt -0.869576 0
vt -0.815702 0
vt -0.818785 -0.03937
vt -0.815702 -0.03937
vt 0.874791 0.023236
vt 0.880904 0.023203
vt -0.866493 -0.03937
vt -0.818785 0
vt 0.883635 0.00155
vt 0.874666 0.000419
vt 0.873906 0
vt 0.870822 -0.03937
vt 0.873906 -0.03937
vt 0.869576 0
vt 0.866493 -0.03937
vt 0.869576 -0.03937
vt -0.806092 -0.03937
vt -0.803008 0
vt -0.806092 0
vt -0.704887 0
vt -0.70797 -0.03937
vt -0.704887 -0.03937
vt 0.883746 0.022007
vt 0.871936 0.022071
vt 0.870822 0
vt 0.866493 0
vt 0.803008 -0.03937
vt 0.806092 0
vt 0.803008 0
vt -0.803008 -0.03937
vt -0.70797 0
vt 0.886092 0.003414
vt 0.806092 -0.03937
vt 0.871824 0.001614
vt 0.818785 0
vt 0.815702 -0.03937
vt 0.818785 -0.03937
vt -0.687778 -0.03937
vt -0.684695 0
vt -0.687778 0
vt -0.549014 0
vt -0.545931 -0.03937
vt -0.545931 0
vt 0.886182 0.020117
vt 0.684695 -0.03937
vt 0.687778 0
vt 0.684695 0
vt 0.869479 0.020208
vt 0.815702 0
vt -0.684695 -0.03937
vt -0.549014 -0.03937
vt 0.887982 0.00585
vt 0.687778 -0.03937
vt 0.869388 0.003505
vt 0.70797 0
vt 0.704887 -0.03937
vt 0.70797 -0.03937
vt -0.519616 -0.03937
vt -0.522699 0
vt -0.522699 -0.03937
vt -0.352748 0
vt -0.349665 -0.03937
vt -0.349665 0
vt 0.888046 0.017661
vt 0.522699 -0.03937
vt 0.519616 0
vt 0.519616 -0.03937
vt 0.867589 0.017772
vt 0.704887 0
vt -0.519616 0
vt 0.867525 0.005961
vt -0.352748 -0.03937
vt 0.889177 0.008692
vt 0.522699 0
vt 0.549014 -0.03937
vt 0.545931 0
vt 0.545931 -0.03937
vt 0.549014 0
vt -0.319021 -0.03937
vt -0.322104 0
vt -0.322104 -0.03937
vt 0.866394 0.01493
vt -0.132548 0
vt -0.129465 -0.03937
vt -0.129465 0
vt 0.88921 0.014806
vt 0.322104 -0.03937
vt 0.319021 0
vt 0.319021 -0.03937
vt 0.349665 0
vt 0.352748 -0.03937
vt 0.352748 0
vt -0.319021 0
vt 0.86636 0.008816
vt 0.349665 -0.03937
vt -0.132548 -0.03937
vt 0.889596 0.011747
vt 0.322104 0
vt -0.09658 -0.03937
vt -0.099663 0
vt -0.099663 -0.03937
vt 0.865975 0.011875
vt 0.129465 0
vt 0.132548 -0.03937
vt 0.132548 0
vt 0.09658 0
vt 0.099663 -0.03937
vt 0.099663 0
vt 0.09658 -0.03937
vt -0.09658 0
vt 0.129465 -0.03937
vn 0 0.9999852139623593 -0.005438001163545207
vn 0 0.9673191278771791 0.2535620335202687
vn 0 -0.9999852139623593 0.005438001163545207
vn 0 -0.9673191278771791 -0.2535620335202687
vn 1 0 0
vn -1 0 0
vn 0 0.9645040604551163 -0.26406801655178425
vn 0 -0.9645040604551163 0.26406801655178425
vn 0 0.8687317663489762 0.4952828667904711
vn 0 -0.8687317663489762 -0.4952828667904711
vn 0 0.8632934693499095 -0.504702274393327
vn 0 -0.8632934693499095 0.504702274393327
vn 0 0.7109418235567032 0.7032508254654734
vn 0 -0.7109418235567032 -0.7032508254654734
vn 0 0.7032508254654734 -0.7109418235567032
vn 0 -0.7032508254654734 0.7109418235567032
vn 0 0.504702274393327 0.8632934693499095
vn 0 -0.504702274393327 -0.8632934693499095
vn 0 0.4952828667904711 -0.8687317663489762
vn 0 -0.4952828667904711 0.8687317663489762
vn 0 0.26406801655178425 0.9645040604551163
vn 0 -0.26406801655178425 -0.9645040604551163
vn 0 0.2535620335202687 -0.9673191278771791
vn 0 -0.2535620335202687 0.9673191278771791
vn 0 0.005438001163545207 0.9999852139623593
vn 0 -0.005438001163545207 -0.9999852139623593
usemtl material_0_0
f 1/1/1 2/2/2 3/3/1
f 2/2/2 1/1/1 4/4/2
f 3/3/3 2/2/4 1/1/3
f 4/4/4 1/1/3 2/2/4
f 5/5/5 3/6/5 2/7/5
f 2/7/6 3/6/6 5/5/6
f 3/8/1 6/9/7 1/10/1
f 1/10/3 6/9/8 3/8/3
f 4/11/2 7/12/9 2/13/2
f 2/13/4 7/12/10 4/11/4
f 8/14/5 3/6/5 5/5/5
f 5/5/6 3/6/6 8/14/6
f 5/5/5 2/7/5 9/15/5
f 9/15/6 2/7/6 5/5/6
f 6/9/7 3/8/1 10/16/7
f 10/16/8 3/8/3 6/9/8
f 7/12/9 4/11/2 11/17/9
f 11/17/10 4/11/4 7/12/10
f 9/15/5 2/7/5 7/18/5
f 7/18/6 2/7/6 9/15/6
f 8/14/5 10/19/5 3/6/5
f 3/6/6 10/19/6 8/14/6
f 12/20/3 8/21/4 5/22/3
f 5/22/1 8/21/2 12/20/1
f 13/23/8 5/24/3 9/25/8
f 9/25/7 5/24/1 13/23/7
f 10/26/7 14/27/11 6/28/7
f 6/28/8 14/27/12 10/26/8
f 11/29/9 15/30/13 7/31/9
f 7/31/10 15/30/14 11/29/10
f 9/15/5 7/18/5 16/32/5
f 16/32/6 7/18/6 9/15/6
f 17/33/5 10/19/5 8/14/5
f 8/14/6 10/19/6 17/33/6
f 8/21/4 12/20/3 18/34/4
f 18/34/2 12/20/1 8/21/2
f 5/24/3 13/23/8 12/35/3
f 12/35/1 13/23/7 5/24/1
f 9/36/8 19/37/12 13/38/8
f 13/38/7 19/37/11 9/36/7
f 14/27/11 10/26/7 20/39/11
f 20/39/12 10/26/8 14/27/12
f 15/30/13 11/29/9 21/40/13
f 21/40/14 11/29/10 15/30/14
f 16/32/5 7/18/5 15/41/5
f 15/41/6 7/18/6 16/32/6
f 19/37/12 9/36/8 16/42/12
f 16/42/11 9/36/7 19/37/11
f 17/33/5 20/43/5 10/19/5
f 10/19/6 20/43/6 17/33/6
f 18/44/4 17/45/10 8/46/4
f 8/46/2 17/45/9 18/44/2
f 20/47/11 22/48/15 14/49/11
f 14/49/12 22/48/16 20/47/12
f 23/50/17 15/51/13 21/52/13
f 21/52/14 15/51/14 23/50/18
f 16/32/5 15/41/5 24/53/5
f 24/53/6 15/41/6 16/32/6
f 16/54/12 25/55/16 19/56/12
f 19/56/11 25/55/15 16/54/11
f 26/57/5 20/43/5 17/33/5
f 17/33/6 20/43/6 26/57/6
f 17/45/10 18/44/4 27/58/10
f 27/58/9 18/44/2 17/45/9
f 22/48/15 20/47/11 28/59/15
f 28/59/16 20/47/12 22/48/16
f 15/51/13 23/50/17 29/60/17
f 29/60/18 23/50/18 15/51/14
f 24/53/5 15/41/5 29/61/5
f 29/61/6 15/41/6 24/53/6
f 25/55/16 16/54/12 24/62/16
f 24/62/15 16/54/11 25/55/15
f 26/57/5 28/63/5 20/43/5
f 20/43/6 28/63/6 26/57/6
f 27/64/10 26/65/14 17/66/10
f 17/66/9 26/65/13 27/64/9
f 30/67/19 22/68/15 28/69/15
f 28/69/16 22/68/16 30/67/20
f 31/70/21 29/71/17 23/72/17
f 23/72/18 29/71/18 31/70/22
f 24/53/5 29/61/5 32/73/5
f 32/73/6 29/61/6 24/53/6
f 32/74/20 25/75/16 24/76/16
f 24/76/15 25/75/15 32/74/19
f 33/77/5 28/63/5 26/57/5
f 26/57/6 28/63/6 33/77/6
f 26/65/14 27/64/10 34/78/14
f 34/78/13 27/64/9 26/65/13
f 22/68/15 30/67/19 35/79/19
f 35/79/20 30/67/20 22/68/16
f 33/77/5 30/80/5 28/63/5
f 28/63/6 30/80/6 33/77/6
f 29/71/17 31/70/21 36/81/21
f 36/81/22 31/70/22 29/71/18
f 32/73/5 29/61/5 36/82/5
f 36/82/6 29/61/6 32/73/6
f 25/75/16 32/74/20 37/83/20
f 37/83/19 32/74/19 25/75/15
f 26/84/14 38/85/18 33/86/18
f 33/86/17 38/85/17 26/84/13
f 38/85/18 26/84/14 34/87/14
f 34/87/13 26/84/13 38/85/17
f 39/88/23 35/89/19 30/90/19
f 30/90/20 35/89/20 39/88/24
f 40/91/5 30/80/5 33/77/5
f 33/77/6 30/80/6 40/91/6
f 41/92/25 36/93/21 31/94/21
f 31/94/22 36/93/22 41/92/26
f 32/73/5 36/82/5 42/95/5
f 42/95/6 36/82/6 32/73/6
f 42/96/24 37/97/20 32/98/20
f 32/98/19 37/97/19 42/96/23
f 43/99/22 33/100/18 38/101/18
f 38/101/17 33/100/17 43/99/21
f 35/89/19 39/88/23 44/102/23
f 44/102/24 39/88/24 35/89/20
f 40/91/5 39/103/5 30/80/5
f 30/80/6 39/103/6 40/91/6
f 33/100/18 43/99/22 40/104/22
f 40/104/21 43/99/21 33/100/17
f 36/93/21 41/92/25 45/105/25
f 45/105/26 41/92/26 36/93/22
f 42/95/5 36/82/5 45/106/5
f 45/106/6 36/82/6 42/95/6
f 37/97/20 42/96/24 46/107/24
f 46/107/23 42/96/23 37/97/19
f 47/108/26 44/109/23 39/110/23
f 39/110/24 44/109/24 47/108/25
f 39/103/5 40/91/5 47/111/5
f 47/111/6 40/91/6 39/103/6
f 48/112/26 40/113/22 43/114/22
f 43/114/21 40/113/21 48/112/25
f 46/115/24 45/116/25 41/117/25
f 41/117/26 45/116/26 46/115/23
f 45/116/25 46/115/24 42/118/24
f 42/118/23 46/115/23 45/116/26
f 44/109/23 47/108/26 48/119/26
f 48/119/25 47/108/25 44/109/24
f 40/113/22 48/112/26 47/120/26
f 47/120/25 48/112/25 40/113/21
