####
#
# OBJ File Generated by Meshlab
#
####
# Object movo_upper_body_collision_modified.obj
#
# Vertices: 27
# Faces: 44
#
####
vn 0.072466 -1.574155 -1.458835
v 0.148661 -0.050508 0.276388
vn 1.526245 -1.743643 4.656579
v 0.148991 -0.047452 0.363906
vn 1.523564 -0.169747 0.104169
v 0.148284 -0.053797 0.363906
vn 0.408682 -2.878022 3.197354
v 0.236746 -0.047452 0.363906
vn 0.408682 2.878023 3.197354
v 0.236746 0.047452 0.363906
vn 0.000000 1.573598 1.632730
v 0.148991 0.047452 0.363906
vn 0.000000 0.000000 -3.198856
v 0.151456 0.001750 0.276388
vn 0.000000 1.566081 -1.458844
v 0.148661 0.050508 0.276388
vn 0.271712 2.965152 -3.008206
v 0.182433 0.050508 0.276388
vn 0.271712 -2.965151 -3.008212
v 0.182433 -0.050508 0.276388
vn 0.000000 0.000000 -3.198856
v 0.151456 -0.001750 0.276388
vn 0.000000 0.000000 -3.141593
v 0.151456 0.001750 0.276388
vn 0.000000 0.000000 -3.141593
v 0.151456 -0.001750 0.276388
vn 0.812776 3.139625 3.144271
v 0.240507 0.047487 0.362898
vn 1.531982 2.616418 2.728403
v 0.241744 0.047499 0.362567
vn 2.220845 3.139712 2.331681
v 0.243576 0.047563 0.360736
vn 2.642746 2.616382 1.600403
v 0.245405 0.047626 0.358908
vn 3.034452 3.139697 0.923123
v 0.245738 0.047670 0.357666
vn 3.090353 2.878058 0.498529
v 0.246746 0.047801 0.353906
vn 1.809707 1.744369 -1.491990
v 0.246746 0.050112 0.287728
vn 0.812776 -3.139625 3.144271
v 0.240507 -0.047487 0.362898
vn 2.220845 -3.139712 2.331680
v 0.243576 -0.047563 0.360736
vn 1.531982 -2.616417 2.728403
v 0.241744 -0.047499 0.362567
vn 2.642737 -2.616382 1.600396
v 0.245405 -0.047626 0.358908
vn 3.034442 -3.139697 0.923124
v 0.245738 -0.047670 0.357666
vn 3.090353 -2.878058 0.498529
v 0.246746 -0.047801 0.353906
vn 1.809707 -1.744369 -1.491990
v 0.246746 -0.050112 0.287728
# 27 vertices, 0 vertices normals

f 1//1 2//2 3//3
f 4//4 5//5 2//2
f 2//2 5//5 6//6
f 2//2 6//6 3//3
f 7//7 8//8 9//9
f 10//10 1//1 11//11
f 7//7 9//9 12//12
f 10//10 11//11 9//9
f 9//9 11//11 13//13
f 9//9 13//13 12//12
f 8//8 6//6 9//9
f 9//9 6//6 5//5
f 9//9 5//5 14//14
f 14//14 15//15 9//9
f 9//9 15//15 16//16
f 9//9 16//16 17//17
f 17//17 18//18 9//9
f 9//9 18//18 19//19
f 9//9 19//19 20//20
f 2//2 1//1 4//4
f 4//4 1//1 10//10
f 4//4 10//10 21//21
f 21//21 10//10 22//22
f 21//21 22//22 23//23
f 24//24 22//22 25//25
f 25//25 22//22 10//10
f 25//25 10//10 26//26
f 26//26 10//10 27//27
f 20//20 27//27 9//9
f 9//9 27//27 10//10
f 19//19 26//26 20//20
f 20//20 26//26 27//27
f 19//19 18//18 26//26
f 26//26 18//18 25//25
f 25//25 18//18 24//24
f 24//24 18//18 17//17
f 24//24 17//17 22//22
f 17//17 16//16 22//22
f 22//22 16//16 15//15
f 22//22 15//15 23//23
f 23//23 15//15 21//21
f 15//15 14//14 21//21
f 21//21 14//14 5//5
f 21//21 5//5 4//4
# 44 faces, 0 coords texture

# End of File
