####
#
# OBJ File Generated by Meshlab
#
####
# Object vector_base_collision.obj
#
# Vertices: 192
# Faces: 380
#
####
vn 1.784867 -0.162110 2.822736
v 0.219223 -0.174497 0.069430
vn -0.812936 2.929228 3.016269
v 0.227075 -0.174497 0.072471
vn 1.570796 1.570796 1.570796
v 0.219223 -0.174497 0.058737
vn 0.000000 2.827434 3.102915
v 0.250623 -0.174497 0.076200
vn 0.958853 2.827433 2.951047
v 0.274170 -0.174497 0.072471
vn 1.675567 2.953349 2.641004
v 0.295412 -0.174497 0.061647
vn 1.989434 -0.056969 5.571560
v 0.299165 -0.174497 0.058737
vn -1.814793 -2.844564 -2.519218
v 0.205833 -0.237709 -0.061647
vn -0.958853 2.827433 -2.951047
v 0.227075 -0.174497 -0.072471
vn -0.958853 -2.827433 -2.951047
v 0.227075 -0.237709 -0.072471
vn 0.000000 2.827434 -3.102915
v 0.250623 -0.174497 -0.076200
vn 0.000000 -2.827434 -3.102915
v 0.250623 -0.237709 -0.076200
vn 0.958853 2.827433 -2.951047
v 0.274170 -0.174497 -0.072471
vn 0.958853 -2.827434 -2.951047
v 0.274170 -0.237709 -0.072471
vn 1.823847 2.827434 -2.510311
v 0.295412 -0.174497 -0.061647
vn 1.823847 -2.827434 -2.510311
v 0.295412 -0.237709 -0.061647
vn 2.510311 2.827432 -1.823847
v 0.312270 -0.174497 -0.044789
vn 2.510311 -2.827432 -1.823847
v 0.312270 -0.237709 -0.044789
vn 2.951047 2.827434 -0.958853
v 0.323093 -0.174497 -0.023547
vn 2.951047 -2.827435 -0.958853
v 0.323093 -0.237709 -0.023547
vn 3.102915 2.827433 0.000000
v 0.326822 -0.174497 -0.000000
vn 3.102915 -2.827434 -0.000000
v 0.326822 -0.237709 -0.000000
vn 2.951047 2.827434 0.958853
v 0.323093 -0.174497 0.023547
vn 2.951047 -2.827434 0.958853
v 0.323093 -0.237709 0.023547
vn 2.552776 2.855000 1.779554
v 0.312270 -0.174497 0.044789
vn 2.510311 -2.827433 1.823847
v 0.312270 -0.237709 0.044789
vn 1.823297 -2.832200 2.510828
v 0.295412 -0.237709 0.061647
vn 5.340938 -0.163750 2.232176
v 0.301423 -0.174497 0.056796
vn 0.958853 -2.827433 2.951047
v 0.274170 -0.237709 0.072471
vn 0.000000 -2.827434 3.102915
v 0.250623 -0.237709 0.076200
vn -0.946804 -2.846912 2.957044
v 0.227075 -0.237709 0.072471
vn -1.835625 -2.845449 2.504180
v 0.205833 -0.237709 0.061647
vn -1.900095 -3.400468 2.468767
v 0.205833 -0.174497 0.061647
vn -2.510311 -3.455751 1.823847
v 0.188975 -0.174497 0.044789
vn -2.510311 -2.827434 1.823847
v 0.188975 -0.237709 0.044789
vn -2.951047 -3.455750 0.958853
v 0.178152 -0.174497 0.023547
vn -2.951047 -2.827433 0.958853
v 0.178152 -0.237709 0.023547
vn -3.102915 -3.455751 -0.000000
v 0.174423 -0.174497 -0.000000
vn -3.102915 -2.827434 0.000000
v 0.174423 -0.237709 -0.000000
vn -2.951047 -3.455751 -0.958853
v 0.178152 -0.174497 -0.023547
vn -2.951047 -2.827433 -0.958853
v 0.178152 -0.237709 -0.023547
vn -2.621962 -3.349377 -1.699639
v 0.188975 -0.174497 -0.044789
vn -2.519355 -2.846243 -1.814635
v 0.188975 -0.237709 -0.044789
vn -2.275195 -0.161892 -5.293810
v 0.193826 -0.174497 -0.050800
vn -1.766126 2.878138 -2.565177
v 0.205833 -0.174497 -0.061647
vn 1.570796 4.712388 -1.570796
v 0.301423 -0.174497 -0.050800
vn 1.570790 -1.570796 1.570796
v 0.301423 -0.174497 0.058737
vn 2.275194 -0.161895 -5.293811
v -0.193873 -0.174497 -0.050800
vn 2.621963 -3.349377 -1.699639
v -0.189022 -0.174497 -0.044789
vn 2.951047 -3.455747 -0.958853
v -0.178199 -0.174497 -0.023547
vn -1.570796 -1.570796 1.570796
v -0.219223 -0.174497 0.204528
vn -1.783915 -0.162124 2.822278
v -0.219223 -0.174497 0.069408
vn 1.900553 -3.400129 2.468501
v -0.205880 -0.174497 0.061647
vn 3.102915 -3.455751 0.000000
v -0.174469 -0.174497 -0.000000
vn 2.951047 -3.455751 0.958853
v -0.178199 -0.174497 0.023547
vn 2.510310 -3.455752 1.823848
v -0.189022 -0.174497 0.044789
vn 1.570796 -1.570797 1.570796
v 0.219223 -0.174497 0.204528
vn -2.510311 3.455751 1.823847
v 0.188975 0.174497 0.044789
vn -2.951047 3.455750 0.958853
v 0.178152 0.174497 0.023547
vn -1.570796 1.570794 1.570796
v -0.219223 0.174497 0.204528
vn 1.570796 1.570796 1.570796
v 0.219223 0.174497 0.204528
vn 1.784867 0.162110 2.822736
v 0.219223 0.174497 0.069430
vn -1.900095 3.400468 2.468767
v 0.205833 0.174497 0.061647
vn -2.951047 3.455752 -0.958853
v 0.178152 0.174497 -0.023547
vn 2.951047 3.455746 -0.958853
v -0.178199 0.174497 -0.023547
vn -3.102915 3.455751 0.000000
v 0.174423 0.174497 -0.000000
vn 3.102915 3.455751 -0.000000
v -0.174469 0.174497 -0.000000
vn 2.275194 0.161895 -5.293811
v -0.193873 0.174497 -0.050800
vn 2.621962 3.349377 -1.699639
v -0.189022 0.174497 -0.044789
vn -2.275195 0.161892 -5.293811
v 0.193826 0.174497 -0.050800
vn -2.621963 3.349377 -1.699639
v 0.188975 0.174497 -0.044789
vn 2.951047 3.455752 0.958853
v -0.178199 0.174497 0.023547
vn 2.510310 3.455752 1.823848
v -0.189022 0.174497 0.044789
vn 1.900553 3.400129 2.468501
v -0.205880 0.174497 0.061647
vn -1.783914 0.162124 2.822278
v -0.219223 0.174497 0.069408
vn -1.570796 1.570797 1.570796
v -0.219223 -0.174497 0.058737
vn -1.570796 -1.570797 1.570796
v -0.219223 0.174497 0.058737
vn 1.570796 -1.570796 1.570796
v 0.219223 0.174497 0.058737
vn -1.989434 -0.056969 5.571561
v -0.299212 -0.174497 0.058737
vn -1.989434 0.056969 5.571561
v -0.299212 0.174497 0.058737
vn -1.570796 -1.570796 1.570796
v -0.301469 -0.174497 0.058737
vn -1.570790 1.570796 1.570796
v -0.301469 0.174497 0.058737
vn -0.812936 -2.929228 3.016269
v 0.227075 0.174497 0.072471
vn 1.989434 0.056969 5.571561
v 0.299165 0.174497 0.058737
vn 1.675567 -2.953349 2.641004
v 0.295412 0.174497 0.061647
vn 0.958853 -2.827433 2.951047
v 0.274170 0.174497 0.072471
vn 0.000000 -2.827434 3.102915
v 0.250623 0.174497 0.076200
vn -2.519355 2.846243 -1.814635
v 0.188975 0.237709 -0.044789
vn -2.951047 2.827433 -0.958853
v 0.178152 0.237709 -0.023547
vn -3.102915 2.827435 -0.000000
v 0.174423 0.237709 -0.000000
vn -2.951047 2.827433 0.958853
v 0.178152 0.237709 0.023547
vn -2.510311 2.827434 1.823847
v 0.188975 0.237709 0.044789
vn -1.835625 2.845449 2.504180
v 0.205833 0.237709 0.061647
vn -0.946804 2.846913 2.957044
v 0.227075 0.237709 0.072471
vn 0.000000 2.827434 3.102915
v 0.250623 0.237709 0.076200
vn 0.958853 2.827433 2.951047
v 0.274170 0.237709 0.072471
vn 1.814625 2.846420 2.519362
v 0.295412 0.237709 0.061647
vn 5.328534 0.136249 2.246325
v 0.301423 0.174497 0.056796
vn 2.519218 2.844564 1.814792
v 0.312270 0.237709 0.044789
vn 2.565178 -2.878137 1.766125
v 0.312270 0.174497 0.044789
vn 2.951047 -2.827434 0.958853
v 0.323093 0.174497 0.023547
vn 2.951047 2.827434 0.958853
v 0.323093 0.237709 0.023547
vn 3.102915 -2.827434 -0.000000
v 0.326822 0.174497 -0.000000
vn 3.102915 2.827434 0.000000
v 0.326822 0.237709 -0.000000
vn 2.951047 -2.827434 -0.958852
v 0.323093 0.174497 -0.023547
vn 2.951047 2.827434 -0.958852
v 0.323093 0.237709 -0.023547
vn 2.510311 -2.827433 -1.823847
v 0.312270 0.174497 -0.044789
vn 2.510311 2.827433 -1.823847
v 0.312270 0.237709 -0.044789
vn 1.823847 -2.827434 -2.510311
v 0.295412 0.174497 -0.061647
vn 1.823847 2.827434 -2.510311
v 0.295412 0.237709 -0.061647
vn 0.958853 -2.827434 -2.951047
v 0.274170 0.174497 -0.072471
vn 0.958853 2.827433 -2.951047
v 0.274170 0.237709 -0.072471
vn 0.000000 -2.827434 -3.102915
v 0.250623 0.174497 -0.076200
vn 0.000000 2.827433 -3.102915
v 0.250623 0.237709 -0.076200
vn -0.958853 -2.827433 -2.951047
v 0.227075 0.174497 -0.072471
vn -0.958853 2.827433 -2.951047
v 0.227075 0.237709 -0.072471
vn -1.766126 -2.878138 -2.565177
v 0.205833 0.174497 -0.061647
vn -1.814793 2.844564 -2.519218
v 0.205833 0.237709 -0.061647
vn 1.570796 -4.712389 -1.570796
v 0.301423 0.174497 -0.050800
vn 1.570796 1.570796 1.570796
v 0.301423 0.174497 0.058737
vn -2.565178 2.878138 1.766125
v -0.312317 -0.174497 0.044789
vn -5.328534 -0.136249 2.246325
v -0.301469 -0.174497 0.056796
vn -1.570796 4.712389 -1.570796
v -0.301469 -0.174497 -0.050800
vn -2.951047 2.827434 0.958853
v -0.323140 -0.174497 0.023547
vn -1.823847 2.827434 -2.510311
v -0.295459 -0.174497 -0.061647
vn -2.510311 2.827432 -1.823847
v -0.312317 -0.174497 -0.044789
vn 1.766125 2.878139 -2.565178
v -0.205880 -0.174497 -0.061647
vn 0.958853 2.827433 -2.951047
v -0.227122 -0.174497 -0.072471
vn -0.000000 2.827434 -3.102915
v -0.250669 -0.174497 -0.076200
vn -0.958853 2.827434 -2.951047
v -0.274217 -0.174497 -0.072471
vn -2.951047 2.827434 -0.958852
v -0.323140 -0.174497 -0.023547
vn -3.102915 2.827433 -0.000000
v -0.326869 -0.174497 -0.000000
vn 2.519355 -2.846242 -1.814635
v -0.189022 -0.237709 -0.044789
vn 2.951047 -2.827433 -0.958853
v -0.178199 -0.237709 -0.023547
vn 3.102915 -2.827434 -0.000000
v -0.174469 -0.237709 -0.000000
vn 2.951047 -2.827433 0.958853
v -0.178199 -0.237709 0.023547
vn 2.510310 -2.827433 1.823848
v -0.189022 -0.237709 0.044789
vn 1.835658 -2.845510 2.504163
v -0.205880 -0.237709 0.061647
vn 0.946771 -2.846956 2.957059
v -0.227122 -0.237709 0.072471
vn 0.813432 2.928890 3.016078
v -0.227122 -0.174497 0.072471
vn -0.000000 2.827433 3.102915
v -0.250669 -0.174497 0.076200
vn -0.000000 -2.827433 3.102915
v -0.250669 -0.237709 0.076200
vn -0.958853 2.827433 2.951047
v -0.274217 -0.174497 0.072471
vn -0.958853 -2.827433 2.951047
v -0.274217 -0.237709 0.072471
vn -1.675567 2.953348 2.641004
v -0.295459 -0.174497 0.061647
vn -1.814625 -2.846421 2.519362
v -0.295459 -0.237709 0.061647
vn -2.519218 -2.844563 1.814792
v -0.312317 -0.237709 0.044789
vn -2.951047 -2.827434 0.958853
v -0.323140 -0.237709 0.023547
vn -3.102915 -2.827435 0.000000
v -0.326869 -0.237709 -0.000000
vn -2.951047 -2.827435 -0.958852
v -0.323140 -0.237709 -0.023547
vn -2.510311 -2.827432 -1.823847
v -0.312317 -0.237709 -0.044789
vn -1.823847 -2.827433 -2.510311
v -0.295459 -0.237709 -0.061647
vn -0.958853 -2.827434 -2.951047
v -0.274217 -0.237709 -0.072471
vn -0.000000 -2.827433 -3.102915
v -0.250669 -0.237709 -0.076200
vn 0.958853 -2.827433 -2.951047
v -0.227122 -0.237709 -0.072471
vn 1.814793 -2.844564 -2.519218
v -0.205880 -0.237709 -0.061647
vn -5.340938 0.163750 2.232176
v -0.301469 0.174497 0.056796
vn -1.570796 -4.712389 -1.570796
v -0.301469 0.174497 -0.050800
vn 0.813432 -2.928890 3.016078
v -0.227122 0.174497 0.072471
vn -0.000000 -2.827433 3.102915
v -0.250669 0.174497 0.076200
vn -0.958853 -2.827433 2.951047
v -0.274217 0.174497 0.072471
vn -1.675567 -2.953348 2.641004
v -0.295459 0.174497 0.061647
vn -2.552776 -2.855000 1.779554
v -0.312317 0.174497 0.044789
vn -1.823297 2.832200 2.510828
v -0.295459 0.237709 0.061647
vn -0.958853 2.827433 2.951047
v -0.274217 0.237709 0.072471
vn -0.000000 2.827433 3.102915
v -0.250669 0.237709 0.076200
vn 0.946771 2.846956 2.957059
v -0.227122 0.237709 0.072471
vn 1.835658 2.845510 2.504163
v -0.205880 0.237709 0.061647
vn 2.510310 2.827433 1.823848
v -0.189022 0.237709 0.044789
vn 2.951047 2.827433 0.958853
v -0.178199 0.237709 0.023547
vn 3.102915 2.827434 0.000000
v -0.174469 0.237709 -0.000000
vn 2.951047 2.827433 -0.958853
v -0.178199 0.237709 -0.023547
vn 2.519355 2.846242 -1.814635
v -0.189022 0.237709 -0.044789
vn 1.814792 2.844565 -2.519218
v -0.205880 0.237709 -0.061647
vn 1.766125 -2.878138 -2.565178
v -0.205880 0.174497 -0.061647
vn 0.958853 -2.827433 -2.951047
v -0.227122 0.174497 -0.072471
vn 0.958853 2.827433 -2.951047
v -0.227122 0.237709 -0.072471
vn -0.000000 -2.827433 -3.102915
v -0.250669 0.174497 -0.076200
vn -0.000000 2.827434 -3.102915
v -0.250669 0.237709 -0.076200
vn -0.958853 -2.827434 -2.951047
v -0.274217 0.174497 -0.072471
vn -0.958853 2.827433 -2.951047
v -0.274217 0.237709 -0.072471
vn -1.823847 -2.827434 -2.510311
v -0.295459 0.174497 -0.061647
vn -1.823847 2.827432 -2.510311
v -0.295459 0.237709 -0.061647
vn -2.510311 -2.827432 -1.823847
v -0.312317 0.174497 -0.044789
vn -2.510311 2.827433 -1.823847
v -0.312317 0.237709 -0.044789
vn -2.951047 -2.827434 -0.958853
v -0.323140 0.174497 -0.023547
vn -2.951047 2.827434 -0.958853
v -0.323140 0.237709 -0.023547
vn -3.102915 -2.827434 0.000000
v -0.326869 0.174497 -0.000000
vn -3.102915 2.827434 -0.000000
v -0.326869 0.237709 -0.000000
vn -2.951047 -2.827434 0.958853
v -0.323140 0.174497 0.023547
vn -2.951047 2.827434 0.958853
v -0.323140 0.237709 0.023547
vn -2.510311 2.827433 1.823847
v -0.312317 0.237709 0.044789
# 192 vertices, 0 vertices normals

f 1//1 2//2 3//3
f 3//3 2//2 4//4
f 4//4 5//5 3//3
f 3//3 5//5 6//6
f 3//3 6//6 7//7
f 8//8 9//9 10//10
f 10//10 9//9 11//11
f 10//10 11//11 12//12
f 12//12 11//11 13//13
f 12//12 13//13 14//14
f 14//14 13//13 15//15
f 14//14 15//15 16//16
f 16//16 15//15 17//17
f 16//16 17//17 18//18
f 18//18 17//17 19//19
f 18//18 19//19 20//20
f 20//20 19//19 21//21
f 20//20 21//21 22//22
f 22//22 21//21 23//23
f 22//22 23//23 24//24
f 24//24 23//23 25//25
f 24//24 25//25 26//26
f 26//26 25//25 27//27
f 27//27 25//25 28//28
f 27//27 28//28 7//7
f 7//7 6//6 27//27
f 27//27 6//6 5//5
f 27//27 5//5 29//29
f 29//29 5//5 4//4
f 29//29 4//4 30//30
f 30//30 4//4 2//2
f 30//30 2//2 31//31
f 31//31 2//2 1//1
f 31//31 1//1 32//32
f 1//1 33//33 32//32
f 32//32 33//33 34//34
f 32//32 34//34 35//35
f 35//35 34//34 36//36
f 35//35 36//36 37//37
f 37//37 36//36 38//38
f 37//37 38//38 39//39
f 39//39 38//38 40//40
f 39//39 40//40 41//41
f 41//41 40//40 42//42
f 41//41 42//42 43//43
f 43//43 42//42 44//44
f 43//43 44//44 8//8
f 8//8 44//44 45//45
f 8//8 45//45 9//9
f 22//22 37//37 20//20
f 20//20 37//37 39//39
f 20//20 39//39 41//41
f 41//41 43//43 20//20
f 20//20 43//43 8//8
f 20//20 8//8 10//10
f 32//32 35//35 26//26
f 26//26 35//35 37//37
f 26//26 37//37 24//24
f 24//24 37//37 22//22
f 29//29 30//30 31//31
f 10//10 12//12 20//20
f 20//20 12//12 14//14
f 20//20 14//14 18//18
f 18//18 14//14 16//16
f 32//32 26//26 31//31
f 31//31 26//26 27//27
f 31//31 27//27 29//29
f 45//45 44//44 46//46
f 46//46 28//28 25//25
f 46//46 15//15 45//45
f 45//45 15//15 13//13
f 45//45 13//13 9//9
f 9//9 13//13 11//11
f 23//23 21//21 25//25
f 25//25 21//21 19//19
f 25//25 19//19 46//46
f 46//46 19//19 17//17
f 46//46 17//17 15//15
f 28//28 47//47 7//7
f 48//48 44//44 49//49
f 49//49 44//44 50//50
f 51//51 52//52 53//53
f 51//51 53//53 36//36
f 44//44 42//42 50//50
f 50//50 42//42 40//40
f 50//50 40//40 54//54
f 54//54 40//40 38//38
f 54//54 38//38 55//55
f 55//55 38//38 36//36
f 55//55 36//36 56//56
f 56//56 36//36 53//53
f 1//1 57//57 33//33
f 33//33 57//57 51//51
f 33//33 51//51 34//34
f 34//34 51//51 36//36
f 58//58 59//59 60//60
f 61//61 62//62 60//60
f 60//60 62//62 63//63
f 60//60 63//63 58//58
f 64//64 65//65 66//66
f 66//66 65//65 67//67
f 66//66 67//67 59//59
f 68//68 69//69 70//70
f 70//70 69//69 65//65
f 70//70 65//65 71//71
f 71//71 65//65 64//64
f 67//67 72//72 59//59
f 59//59 72//72 73//73
f 59//59 73//73 60//60
f 60//60 73//73 74//74
f 60//60 74//74 75//75
f 51//51 60//60 52//52
f 52//52 60//60 75//75
f 52//52 75//75 76//76
f 76//76 75//75 77//77
f 3//3 78//78 1//1
f 1//1 78//78 62//62
f 1//1 62//62 57//57
f 57//57 62//62 61//61
f 61//61 60//60 57//57
f 57//57 60//60 51//51
f 76//76 77//77 79//79
f 79//79 77//77 80//80
f 79//79 80//80 81//81
f 81//81 80//80 82//82
f 83//83 62//62 78//78
f 78//78 84//84 85//85
f 85//85 86//86 78//78
f 78//78 86//86 87//87
f 78//78 87//87 83//83
f 88//88 64//64 89//89
f 89//89 64//64 66//66
f 89//89 66//66 90//90
f 90//90 66//66 59//59
f 90//90 59//59 91//91
f 91//91 59//59 58//58
f 91//91 58//58 92//92
f 92//92 58//58 63//63
f 92//92 63//63 93//93
f 93//93 63//63 62//62
f 93//93 62//62 94//94
f 62//62 83//83 94//94
f 94//94 83//83 87//87
f 94//94 87//87 95//95
f 95//95 87//87 86//86
f 95//95 86//86 96//96
f 96//96 86//86 85//85
f 96//96 85//85 97//97
f 85//85 84//84 97//97
f 97//97 84//84 98//98
f 97//97 98//98 99//99
f 98//98 100//100 99//99
f 99//99 100//100 101//101
f 99//99 101//101 102//102
f 102//102 101//101 103//103
f 102//102 103//103 104//104
f 104//104 103//103 105//105
f 104//104 105//105 106//106
f 106//106 105//105 107//107
f 106//106 107//107 108//108
f 108//108 107//107 109//109
f 108//108 109//109 110//110
f 110//110 109//109 111//111
f 110//110 111//111 112//112
f 112//112 111//111 113//113
f 112//112 113//113 114//114
f 114//114 113//113 115//115
f 114//114 115//115 116//116
f 116//116 115//115 117//117
f 116//116 117//117 118//118
f 118//118 117//117 70//70
f 118//118 70//70 88//88
f 88//88 70//70 71//71
f 88//88 71//71 64//64
f 102//102 104//104 90//90
f 104//104 106//106 90//90
f 90//90 106//106 108//108
f 90//90 108//108 110//110
f 110//110 112//112 90//90
f 90//90 112//112 114//114
f 90//90 114//114 116//116
f 90//90 91//91 102//102
f 102//102 91//91 92//92
f 102//102 92//92 93//93
f 95//95 96//96 97//97
f 93//93 94//94 102//102
f 102//102 94//94 95//95
f 102//102 95//95 99//99
f 99//99 95//95 97//97
f 116//116 118//118 90//90
f 90//90 118//118 88//88
f 90//90 88//88 89//89
f 100//100 98//98 119//119
f 119//119 70//70 117//117
f 117//117 115//115 119//119
f 119//119 115//115 113//113
f 119//119 113//113 111//111
f 111//111 109//109 119//119
f 119//119 109//109 107//107
f 119//119 107//107 100//100
f 100//100 107//107 105//105
f 100//100 105//105 101//101
f 101//101 105//105 103//103
f 84//84 120//120 98//98
f 121//121 122//122 123//123
f 121//121 123//123 124//124
f 125//125 126//126 123//123
f 123//123 48//48 127//127
f 128//128 129//129 130//130
f 126//126 131//131 123//123
f 123//123 131//131 132//132
f 123//123 132//132 124//124
f 125//125 123//123 130//130
f 130//130 123//123 127//127
f 130//130 127//127 128//128
f 133//133 50//50 134//134
f 134//134 50//50 54//54
f 134//134 54//54 135//135
f 135//135 54//54 55//55
f 135//135 55//55 136//136
f 136//136 55//55 56//56
f 136//136 56//56 137//137
f 137//137 56//56 53//53
f 137//137 53//53 138//138
f 138//138 53//53 52//52
f 138//138 52//52 139//139
f 52//52 140//140 139//139
f 139//139 140//140 141//141
f 139//139 141//141 142//142
f 142//142 141//141 143//143
f 142//142 143//143 144//144
f 144//144 143//143 145//145
f 144//144 145//145 146//146
f 145//145 79//79 146//146
f 146//146 79//79 122//122
f 146//146 122//122 147//147
f 122//122 121//121 147//147
f 147//147 121//121 124//124
f 147//147 124//124 148//148
f 148//148 124//124 132//132
f 148//148 132//132 149//149
f 149//149 132//132 131//131
f 149//149 131//131 150//150
f 150//150 131//131 126//126
f 150//150 126//126 151//151
f 151//151 126//126 125//125
f 151//151 125//125 152//152
f 152//152 125//125 130//130
f 152//152 130//130 153//153
f 153//153 130//130 129//129
f 153//153 129//129 154//154
f 154//154 129//129 128//128
f 154//154 128//128 155//155
f 155//155 128//128 127//127
f 155//155 127//127 156//156
f 156//156 127//127 48//48
f 156//156 48//48 133//133
f 133//133 48//48 49//49
f 133//133 49//49 50//50
f 156//156 133//133 149//149
f 147//147 148//148 138//138
f 138//138 148//148 137//137
f 142//142 144//144 146//146
f 153//153 154//154 149//149
f 149//149 154//154 155//155
f 149//149 155//155 156//156
f 133//133 134//134 149//149
f 149//149 134//134 135//135
f 149//149 135//135 148//148
f 148//148 135//135 136//136
f 148//148 136//136 137//137
f 153//153 149//149 152//152
f 152//152 149//149 150//150
f 152//152 150//150 151//151
f 147//147 138//138 146//146
f 146//146 138//138 139//139
f 146//146 139//139 142//142
f 140//140 52//52 76//76
f 76//76 79//79 145//145
f 145//145 143//143 76//76
f 76//76 143//143 141//141
f 76//76 141//141 140//140
f 79//79 81//81 122//122
f 80//80 157//157 82//82
f 47//47 120//120 7//7
f 7//7 120//120 84//84
f 7//7 84//84 3//3
f 3//3 84//84 78//78
f 123//123 158//158 48//48
f 48//48 158//158 68//68
f 48//48 68//68 44//44
f 44//44 68//68 70//70
f 44//44 70//70 46//46
f 46//46 70//70 119//119
f 81//81 82//82 122//122
f 122//122 82//82 157//157
f 122//122 157//157 123//123
f 123//123 157//157 158//158
f 46//46 119//119 28//28
f 28//28 119//119 98//98
f 28//28 98//98 47//47
f 47//47 98//98 120//120
f 75//75 159//159 77//77
f 77//77 159//159 160//160
f 160//160 161//161 77//77
f 77//77 161//161 162//162
f 77//77 162//162 80//80
f 163//163 157//157 164//164
f 164//164 157//157 80//80
f 80//80 162//162 164//164
f 164//164 162//162 161//161
f 164//164 161//161 165//165
f 165//165 161//161 160//160
f 165//165 160//160 166//166
f 166//166 160//160 159//159
f 166//166 159//159 167//167
f 167//167 159//159 75//75
f 167//167 75//75 168//168
f 75//75 74//74 168//168
f 168//168 74//74 73//73
f 168//168 73//73 169//169
f 169//169 73//73 72//72
f 169//169 72//72 170//170
f 170//170 72//72 67//67
f 170//170 67//67 171//171
f 171//171 67//67 65//65
f 171//171 65//65 172//172
f 172//172 65//65 69//69
f 172//172 69//69 173//173
f 173//173 69//69 68//68
f 173//173 68//68 174//174
f 68//68 175//175 174//174
f 174//174 175//175 176//176
f 174//174 176//176 177//177
f 177//177 176//176 178//178
f 177//177 178//178 179//179
f 179//179 178//178 180//180
f 179//179 180//180 181//181
f 181//181 180//180 182//182
f 181//181 182//182 183//183
f 183//183 182//182 184//184
f 183//183 184//184 185//185
f 185//185 184//184 186//186
f 185//185 186//186 187//187
f 187//187 186//186 188//188
f 187//187 188//188 189//189
f 189//189 188//188 190//190
f 189//189 190//190 191//191
f 191//191 190//190 163//163
f 191//191 163//163 192//192
f 192//192 163//163 164//164
f 183//183 168//168 169//169
f 191//191 192//192 164//164
f 191//191 164//164 189//189
f 169//169 170//170 183//183
f 183//183 170//170 171//171
f 183//183 171//171 172//172
f 174//174 177//177 179//179
f 189//189 164//164 187//187
f 187//187 164//164 165//165
f 187//187 165//165 166//166
f 172//172 173//173 183//183
f 183//183 173//173 174//174
f 183//183 174//174 181//181
f 181//181 174//174 179//179
f 183//183 185//185 168//168
f 168//168 185//185 187//187
f 168//168 187//187 167//167
f 167//167 187//187 166//166
f 158//158 157//157 163//163
f 184//184 182//182 158//158
f 158//158 182//182 180//180
f 158//158 180//180 178//178
f 178//178 176//176 158//158
f 158//158 176//176 175//175
f 158//158 175//175 68//68
f 190//190 188//188 186//186
f 184//184 158//158 186//186
f 186//186 158//158 163//163
f 186//186 163//163 190//190
# 380 faces, 0 coords texture

# End of File
