# SSTK version 0.8.0
# 18
mtllib original-18.mtl
o R1_5_1/R1_5/mesh12/mesh12-geometry#mesh12-geometry
v -0.458679 -0.562873 -0.385571
v 0.528704 -0.562873 -0.418484
v -0.458679 -0.562873 -0.418484
v 0.528704 -0.562873 -0.385571
v 0.528704 -0.820689 -0.418484
v -0.458679 -0.820689 -0.418484
vt -0.769226 -0.910089
vt -0.784851 -0.316339
vt -0.784851 -0.910089
vt -0.769226 -0.316339
vt -0.907247 -0.316339
vt -0.907247 -0.910089
vn 0 1 0
vn 0 0 -1
vn 0 -1 0
vn 0 0 1
usemtl material_0_0
f 1/1/1 2/2/1 3/3/1
f 2/2/1 1/1/1 4/4/1
f 5/5/2 3/3/2 2/2/2
f 3/3/2 5/5/2 6/6/2
usemtl material_1_0
f 3//3 2//3 1//3
f 4//3 1//3 2//3
f 2//4 3//4 5//4
f 6//4 5//4 3//4
