# SSTK version 0.8.0
# 65
mtllib original-65.mtl
o DF_11_TC2/DF_11_TC/mesh27/mesh27-geometry#mesh27-geometry
v 0.492488 -0.187275 0.396977
v -0.422463 -0.186771 0.395607
v -0.422463 -0.187275 0.396977
v 0.492488 -0.186771 0.395607
v 0.492488 -0.188350 0.398263
v -0.422463 -0.185742 0.394572
v -0.422463 -0.188350 0.398263
v 0.492488 -0.185742 0.394572
v -0.422463 -0.189817 0.399073
v 0.492488 -0.184376 0.394058
v 0.492488 -0.189817 0.399073
v -0.422463 -0.184376 0.394058
v -0.422463 -0.191478 0.399295
v -0.422463 -0.184376 0.387201
v 0.492488 -0.191478 0.399295
v 0.492488 -0.184376 0.387201
v -0.422463 -0.198751 0.401294
v -0.422463 -0.191212 0.371482
v 0.492488 -0.198751 0.401294
v 0.492488 -0.191212 0.371482
v -0.422463 -0.200178 0.401946
v 0.492488 -0.204355 0.371482
v 0.492488 -0.200178 0.401946
v -0.422463 -0.204355 0.371482
v -0.422463 -0.201325 0.403016
v 0.492488 -0.201325 0.403016
v 0.492488 -0.202076 0.404394
v -0.422463 -0.202076 0.404394
v -0.422463 -0.204355 0.404394
v 0.492488 -0.204355 0.404394
vt 1.439118 0.126228
vt 1.06465 0.126467
vt 1.06465 0.126228
vt 1.439118 0.126467
vt 1.439118 0.125718
vt 1.06465 0.126956
vt 1.06465 0.125718
vt 1.439118 0.126956
vt 1.06465 0.125021
vt 1.439118 0.127604
vt 1.439118 0.125021
vt 1.06465 0.127604
vt 1.06465 0.124232
vt 1.439118 0.124232
vt 1.06465 0.12078
vt 1.06465 0.124359
vt 1.439118 0.12078
vt 1.439118 0.124359
vt 1.06465 0.120102
vt 1.439118 0.118119
vt 1.439118 0.120102
vt 1.06465 0.118119
vt 1.06465 0.119558
vt 1.439118 0.119558
vt 1.439118 0.119201
vt 1.06465 0.119201
vn 0 0.8656245142718197 0.5006937190455621
vn 0 0.8431879188410587 0.5376189482528348
vn 0 0.6362082861178814 0.7715173469695599
vn 0 0.5431503107567496 0.8396354803870822
vn 0 0.3131499044711307 0.9497037102853297
vn 0 0.8221859635948394 0.5692189747958384
vn 0 0.19924609851556396 0.9799494845278128
vn 0 0.9790396130346695 -0.20366991949948
vn 0 0.3415701083399071 0.9398562981055478
vn 0 0.9170370483402339 -0.3988020210222507
vn 0 0.5561451284000213 0.8310851918768161
vn 0 0 -1
vn 0 0.7902874156656055 0.6127363222794765
vn 0 0.87818120007385 0.4783281089763099
vn 0 0 1
vn 0 -0.8656245142718197 -0.5006937190455621
vn 0 -0.8431879188410587 -0.5376189482528348
vn 0 -0.6362082861178814 -0.7715173469695599
vn 0 -0.5431503107567496 -0.8396354803870822
vn 0 -0.3131499044711307 -0.9497037102853297
vn 0 -0.8221859635948394 -0.5692189747958384
vn 0 -0.19924609851556396 -0.9799494845278128
vn 0 -0.9790396130346695 0.20366991949948
vn 0 -0.3415701083399071 -0.9398562981055478
vn 0 -0.9170370483402339 0.3988020210222507
vn 0 -0.5561451284000213 -0.8310851918768161
vn 0 -0.7902874156656055 -0.6127363222794765
vn 0 -0.87818120007385 -0.4783281089763099
usemtl material_0_0
f 1/1/1 2/2/2 3/3/1
f 2/2/2 1/1/1 4/4/2
f 3/3/1 5/5/3 1/1/1
f 4/4/2 6/6/4 2/2/2
f 5/5/3 3/3/1 7/7/3
f 6/6/4 4/4/2 8/8/4
f 9/9/5 5/5/3 7/7/3
f 10/10/6 6/6/4 8/8/4
f 5/5/3 9/9/5 11/11/5
f 6/6/4 10/10/6 12/12/6
f 13/13/7 11/11/5 9/9/5
f 10/10/6 14/12/8 12/12/6
f 11/11/5 13/13/7 15/14/7
f 14/12/8 10/10/6 16/10/8
f 17/15/9 15/14/7 13/13/7
f 16/10/8 18/16/10 14/12/8
f 15/14/7 17/15/9 19/17/9
f 18/16/10 16/10/8 20/18/10
f 21/19/11 19/17/9 17/15/9
f 22/20/12 18/16/12 20/18/12
f 19/17/9 21/19/11 23/21/11
f 18/16/12 22/20/12 24/22/12
f 25/23/13 23/21/11 21/19/11
f 23/21/11 25/23/13 26/24/13
f 25/23/13 27/25/14 26/24/13
f 27/25/14 25/23/13 28/26/14
f 29/22/15 27/25/15 28/26/15
f 27/25/15 29/22/15 30/20/15
usemtl material_1_0
f 3//16 2//17 1//16
f 4//17 1//16 2//17
f 1//16 5//18 3//16
f 2//17 6//19 4//17
f 7//18 3//16 5//18
f 8//19 4//17 6//19
f 7//18 5//18 9//20
f 8//19 6//19 10//21
f 11//20 9//20 5//18
f 12//21 10//21 6//19
f 9//20 11//20 13//22
f 12//21 14//23 10//21
f 15//22 13//22 11//20
f 16//23 10//21 14//23
f 13//22 15//22 17//24
f 14//23 18//25 16//23
f 19//24 17//24 15//22
f 20//25 16//23 18//25
f 17//24 19//24 21//26
f 20//15 18//15 22//15
f 23//26 21//26 19//24
f 24//15 22//15 18//15
f 21//26 23//26 25//27
f 26//27 25//27 23//26
f 26//27 27//28 25//27
f 28//28 25//27 27//28
f 28//12 27//12 29//12
f 30//12 29//12 27//12
