# SSTK version 0.8.0
# 32
mtllib original-32.mtl
o DB1F2/DB1F/mesh17/mesh17-geometry#mesh17-geometry
v 0.432708 0.460166 -0.242949
v -0.362683 0.460166 -0.210036
v -0.362683 0.460166 -0.242949
v 0.432708 0.460166 -0.210036
v -0.362683 0.591817 -0.242949
v 0.432708 0.591817 -0.210036
v 0.432708 0.591817 -0.242949
v -0.362683 0.591817 -0.210036
vt 0.104423 -2.379895
vt 0.088798 -2.882499
vt 0.104423 -2.882499
vt 0.088798 -2.379895
vt 0.166923 -2.882499
vt 0.166922 -5.736665
vt 0.104422 -5.234061
vt 0.104422 -5.736665
vt 0.166923 -2.379895
vt 0.166922 -5.234061
vt 0.182547 -5.234061
vt 0.182547 -5.736665
vn 0 -1 0
vn 0 0 -1
vn 0 0 1
vn 0 1 0
usemtl material_0_0
f 1/1/1 2/2/1 3/3/1
f 2/2/1 1/1/1 4/4/1
f 5/5/2 1/1/2 3/3/2
f 6/6/3 2/7/3 4/8/3
f 1/1/2 5/5/2 7/9/2
f 2/7/3 6/6/3 8/10/3
f 5/11/4 6/6/4 7/12/4
f 6/6/4 5/11/4 8/10/4
usemtl material_1_0
f 3//4 2//4 1//4
f 4//4 1//4 2//4
f 3//3 1//3 5//3
f 4//2 2//2 6//2
f 7//3 5//3 1//3
f 8//2 6//2 2//2
f 7//1 6//1 5//1
f 8//1 5//1 6//1
