mtllib new-5.mtl
v -0.066955 -0.261954 0.270339
v -0.101707 -0.236043 0.270339
v -0.101707 -0.261954 0.270339
v 0.095422 -0.236043 0.270339
v -0.101707 -0.261954 0.090586
v -0.066955 -0.261954 0.244275
v 0.060670 -0.262552 0.270339
v 0.095422 -0.236043 0.090586
v -0.101707 -0.236043 0.090586
v -0.066955 -0.261954 0.107962
v 0.095422 -0.262552 0.270339
v 0.051982 -0.236043 0.090586
v -0.058267 -0.236043 0.090586
v -0.066955 -0.261954 0.090586
v -0.066955 -0.286346 0.107962
v 0.060670 -0.262552 0.244275
v 0.051982 -0.249075 0.090586
v 0.095422 -0.262552 0.090586
v -0.058267 -0.261954 0.107962
v -0.066955 -0.286346 0.176119
v -0.003142 -0.286346 0.244275
v 0.060670 -0.262552 0.107962
v -0.058267 -0.249075 0.090586
v 0.051982 -0.262552 0.090586
v 0.060670 -0.262552 0.090586
v -0.058267 -0.261954 0.090586
v -0.066955 -0.286346 0.244275
v -0.058267 -0.286346 0.107962
v 0.060670 -0.286346 0.244275
v 0.051982 -0.259182 -0.145846
v 0.051982 -0.249075 -0.076343
v -0.058267 -0.267200 -0.129535
v -0.058267 -0.277659 0.107962
v 0.060670 -0.286346 0.176119
v -0.058267 -0.259182 -0.145846
v 0.051982 -0.267200 -0.129535
v 0.051982 -0.249096 -0.160965
v -0.058267 -0.249075 -0.076343
v -0.058267 -0.273013 -0.112315
v -0.003142 -0.286346 0.107962
v -0.058267 -0.277659 -0.076343
v 0.051982 -0.277659 0.107962
v 0.051982 -0.262552 0.107962
v 0.060670 -0.286346 0.107962
v -0.058267 -0.249096 -0.160965
v 0.051982 -0.248132 -0.090733
v -0.058267 -0.276519 -0.094482
v 0.051982 -0.273013 -0.112315
v 0.051982 -0.286346 0.107962
v -0.058267 -0.237116 -0.174632
v -0.058267 -0.248132 -0.090733
v 0.051982 -0.237116 -0.174632
v 0.051982 -0.276519 -0.094482
v 0.051982 -0.277659 -0.076343
v 0.051982 -0.245319 -0.104877
v 0.051982 -0.223448 -0.186612
v -0.058267 -0.245319 -0.104877
v 0.051982 -0.240683 -0.118533
v -0.058267 -0.223448 -0.186612
v 0.051982 -0.234305 -0.131467
v -0.058267 -0.240683 -0.118533
v -0.058267 -0.234305 -0.131467
v 0.051982 -0.208329 -0.196699
v 0.051982 -0.226293 -0.143458
v -0.058267 -0.226293 -0.143458
v -0.058267 -0.208329 -0.196699
v 0.051982 -0.216784 -0.154301
v -0.058267 -0.216784 -0.154301
v 0.051982 -0.192018 -0.204717
v 0.051982 -0.205941 -0.163809
v -0.058267 -0.205941 -0.163809
v -0.058267 -0.192018 -0.204717
v 0.051982 -0.174798 -0.210530
v 0.051982 -0.193951 -0.171821
v -0.058267 -0.193951 -0.171821
v -0.058267 -0.174798 -0.210530
v 0.051982 -0.181016 -0.178200
v -0.058267 -0.181016 -0.178200
v 0.051982 -0.156965 -0.214036
v 0.051982 -0.167360 -0.182835
v -0.058267 -0.167360 -0.182835
v 0.051982 -0.153216 -0.185649
vn 0.000000 0.000000 1.000000
vn 0.000000 0.000000 -1.000000
vn -1.000000 0.000000 0.000000
vn 1.000000 0.000000 0.000000
vn 0.000000 -1.000000 0.000000
vn 0.000000 1.000000 0.000000
vn -0.004686 -0.999989 0.000000
vn 0.004686 0.999989 0.000000
vn 0.000000 -0.924444 -0.381318
vn 0.000000 -0.866517 -0.499147
vn 0.000000 0.866517 0.499147
vn 0.000000 0.924444 0.381318
vn 0.000000 -0.793653 -0.608371
vn 0.000000 0.793653 0.608371
vn 0.000000 0.991445 0.130526
vn 0.000000 0.997859 0.065403
vn 0.000000 -0.997859 -0.065403
vn 0.000000 -0.991445 -0.130526
vn 0.000000 -0.966434 -0.256916
vn 0.000000 0.966434 0.256916
vn 0.000000 -0.707107 -0.707107
vn 0.000000 0.707107 0.707107
vn 0.000000 -0.991763 -0.128085
vn 0.000000 0.991763 0.128085
vn 0.000000 -0.998032 -0.062701
vn 0.000000 0.998032 0.062701
vn 0.000000 0.965926 0.258819
vn 0.000000 -0.965926 -0.258819
vn 0.000000 -0.608371 -0.793653
vn 0.000000 0.608371 0.793653
vn 0.000000 0.923880 0.382683
vn 0.000000 -0.923880 -0.382683
vn 0.000000 -0.499147 -0.866517
vn 0.000000 0.499147 0.866517
vn 0.000000 0.866025 0.500000
vn 0.000000 -0.866025 -0.500000
vn 0.000000 0.793353 0.608761
vn 0.000000 -0.793353 -0.608761
vn 0.000000 -0.381318 -0.924444
vn 0.000000 0.381318 0.924444
vn 0.000000 0.608761 0.793353
vn 0.000000 -0.608761 -0.793353
vn 0.000000 -0.256916 -0.966434
vn 0.000000 0.256916 0.966434
vn 0.000000 0.500000 0.866025
vn 0.000000 -0.500000 -0.866025
vn 0.000000 -0.128085 -0.991763
vn 0.000000 0.128085 0.991763
vn 0.000000 0.382683 0.923880
vn 0.000000 -0.382683 -0.923880
vn 0.000000 0.258819 0.965926
vn 0.000000 -0.258819 -0.965926
usemtl material-0
f 1//1 2//1 3//1
f 2//1 1//1 4//1
f 3//2 2//2 1//2
f 4//2 1//2 2//2
f 2//3 5//3 3//3
f 3//4 5//4 2//4
f 3//5 6//5 1//5
f 1//6 6//6 3//6
f 4//1 1//1 7//1
f 7//2 1//2 4//2
f 8//6 2//6 4//6
f 4//5 2//5 8//5
f 5//3 2//3 9//3
f 9//4 2//4 5//4
f 5//5 10//5 3//5
f 3//6 10//6 5//6
f 3//5 10//5 6//5
f 6//6 10//6 3//6
f 6//7 7//7 1//7
f 1//8 7//8 6//8
f 4//1 7//1 11//1
f 11//2 7//2 4//2
f 12//6 2//6 8//6
f 8//5 2//5 12//5
f 11//4 8//4 4//4
f 4//3 8//3 11//3
f 2//6 13//6 9//6
f 9//5 13//5 2//5
f 13//2 5//2 9//2
f 9//1 5//1 13//1
f 10//5 5//5 14//5
f 14//6 5//6 10//6
f 15//3 6//3 10//3
f 10//4 6//4 15//4
f 7//7 6//7 16//7
f 16//8 6//8 7//8
f 16//5 11//5 7//5
f 7//6 11//6 16//6
f 13//6 2//6 12//6
f 12//5 2//5 13//5
f 8//2 17//2 12//2
f 12//1 17//1 8//1
f 8//4 11//4 18//4
f 18//3 11//3 8//3
f 5//2 13//2 14//2
f 14//1 13//1 5//1
f 14//5 19//5 10//5
f 10//6 19//6 14//6
f 20//3 6//3 15//3
f 15//4 6//4 20//4
f 19//2 15//2 10//2
f 10//1 15//1 19//1
f 6//1 21//1 16//1
f 16//2 21//2 6//2
f 22//5 11//5 16//5
f 16//6 11//6 22//6
f 12//2 23//2 13//2
f 13//1 23//1 12//1
f 17//2 8//2 24//2
f 24//1 8//1 17//1
f 23//2 12//2 17//2
f 17//1 12//1 23//1
f 11//5 25//5 18//5
f 18//6 25//6 11//6
f 25//2 8//2 18//2
f 18//1 8//1 25//1
f 14//2 13//2 26//2
f 26//1 13//1 14//1
f 19//5 14//5 26//5
f 26//6 14//6 19//6
f 6//3 20//3 27//3
f 27//4 20//4 6//4
f 15//5 21//5 20//5
f 20//6 21//6 15//6
f 15//2 19//2 28//2
f 28//1 19//1 15//1
f 21//1 6//1 27//1
f 27//2 6//2 21//2
f 16//1 21//1 29//1
f 29//2 21//2 16//2
f 25//5 11//5 22//5
f 22//6 11//6 25//6
f 29//4 22//4 16//4
f 16//3 22//3 29//3
f 26//2 13//2 23//2
f 23//1 13//1 26//1
f 24//2 8//2 25//2
f 25//1 8//1 24//1
f 24//4 30//4 17//4
f 17//3 30//3 24//3
f 31//6 23//6 17//6
f 17//5 23//5 31//5
f 32//3 19//3 26//3
f 26//4 19//4 32//4
f 20//5 21//5 27//5
f 27//6 21//6 20//6
f 28//5 21//5 15//5
f 15//6 21//6 28//6
f 28//2 19//2 33//2
f 33//1 19//1 28//1
f 21//5 34//5 29//5
f 29//6 34//6 21//6
f 22//5 24//5 25//5
f 25//6 24//6 22//6
f 34//4 22//4 29//4
f 29//3 22//3 34//3
f 35//3 26//3 23//3
f 23//4 26//4 35//4
f 30//4 24//4 36//4
f 36//3 24//3 30//3
f 17//4 30//4 37//4
f 37//3 30//3 17//3
f 23//6 31//6 38//6
f 38//5 31//5 23//5
f 17//4 37//4 31//4
f 31//3 37//3 17//3
f 39//3 19//3 32//3
f 32//4 19//4 39//4
f 32//3 26//3 35//3
f 35//4 26//4 32//4
f 21//5 28//5 40//5
f 40//6 28//6 21//6
f 19//3 41//3 33//3
f 33//4 41//4 19//4
f 42//2 28//2 33//2
f 33//1 28//1 42//1
f 40//5 34//5 21//5
f 21//6 34//6 40//6
f 24//5 22//5 43//5
f 43//6 22//6 24//6
f 22//4 34//4 44//4
f 44//3 34//3 22//3
f 35//3 23//3 45//3
f 45//4 23//4 35//4
f 43//4 36//4 24//4
f 24//3 36//3 43//3
f 36//9 35//10 30//10
f 30//11 35//11 36//12
f 30//10 45//13 37//13
f 37//14 45//14 30//11
f 46//15 38//16 31//16
f 31//17 38//17 46//18
f 45//3 23//3 38//3
f 38//4 23//4 45//4
f 37//4 46//4 31//4
f 31//3 46//3 37//3
f 47//3 19//3 39//3
f 39//4 19//4 47//4
f 32//9 48//19 39//19
f 39//20 48//20 32//12
f 35//10 36//9 32//9
f 32//12 36//12 35//11
f 28//2 42//2 40//2
f 40//1 42//1 28//1
f 41//3 19//3 47//3
f 47//4 19//4 41//4
f 41//5 42//5 33//5
f 33//6 42//6 41//6
f 49//5 34//5 40//5
f 40//6 34//6 49//6
f 22//2 42//2 43//2
f 43//1 42//1 22//1
f 34//5 49//5 44//5
f 44//6 49//6 34//6
f 49//2 22//2 44//2
f 44//1 22//1 49//1
f 45//13 30//10 35//10
f 35//11 30//11 45//14
f 43//4 48//4 36//4
f 36//3 48//3 43//3
f 50//21 37//13 45//13
f 45//14 37//14 50//22
f 38//16 46//15 51//15
f 51//18 46//18 38//17
f 45//3 38//3 51//3
f 51//4 38//4 45//4
f 46//4 37//4 52//4
f 52//3 37//3 46//3
f 39//19 53//23 47//23
f 47//24 53//24 39//20
f 48//19 32//9 36//9
f 36//12 32//12 48//20
f 53//23 39//19 48//19
f 48//20 39//20 53//24
f 40//2 42//2 49//2
f 49//1 42//1 40//1
f 47//23 54//25 41//25
f 41//26 54//26 47//24
f 42//5 41//5 54//5
f 54//6 41//6 42//6
f 42//2 22//2 49//2
f 49//1 22//1 42//1
f 42//4 53//4 43//4
f 43//3 53//3 42//3
f 43//4 53//4 48//4
f 48//3 53//3 43//3
f 37//13 50//21 52//21
f 52//22 50//22 37//14
f 45//3 51//3 50//3
f 50//4 51//4 45//4
f 55//27 51//15 46//15
f 46//18 51//18 55//28
f 46//4 52//4 55//4
f 55//3 52//3 46//3
f 54//25 47//23 53//23
f 53//24 47//24 54//26
f 53//4 42//4 54//4
f 54//3 42//3 53//3
f 50//21 56//29 52//21
f 52//22 56//30 50//22
f 50//3 51//3 57//3
f 57//4 51//4 50//4
f 51//15 55//27 57//27
f 57//28 55//28 51//18
f 55//4 52//4 58//4
f 58//3 52//3 55//3
f 56//29 50//21 59//29
f 59//30 50//22 56//30
f 60//4 52//4 56//4
f 56//3 52//3 60//3
f 50//3 57//3 61//3
f 61//4 57//4 50//4
f 58//31 57//27 55//27
f 55//28 57//28 58//32
f 58//4 52//4 60//4
f 60//3 52//3 58//3
f 50//3 62//3 59//3
f 59//4 62//4 50//4
f 59//29 63//33 56//29
f 56//30 63//34 59//30
f 60//4 56//4 64//4
f 64//3 56//3 60//3
f 57//27 58//31 61//31
f 61//32 58//32 57//28
f 50//3 61//3 62//3
f 62//4 61//4 50//4
f 60//35 61//31 58//31
f 58//32 61//32 60//36
f 59//3 62//3 65//3
f 65//4 62//4 59//4
f 63//33 59//29 66//33
f 66//34 59//30 63//34
f 67//4 56//4 63//4
f 63//3 56//3 67//3
f 64//4 56//4 67//4
f 67//3 56//3 64//3
f 64//37 62//35 60//35
f 60//36 62//36 64//38
f 61//31 60//35 62//35
f 62//36 60//36 61//32
f 62//35 64//37 65//37
f 65//38 64//38 62//36
f 59//3 65//3 68//3
f 68//4 65//4 59//4
f 59//3 68//3 66//3
f 66//4 68//4 59//4
f 66//33 69//39 63//33
f 63//34 69//40 66//34
f 67//4 63//4 70//4
f 70//3 63//3 67//3
f 67//22 65//37 64//37
f 64//38 65//38 67//21
f 65//37 67//22 68//22
f 68//21 67//21 65//38
f 66//3 68//3 71//3
f 71//4 68//4 66//4
f 69//39 66//33 72//39
f 72//40 66//34 69//40
f 70//4 63//4 69//4
f 69//3 63//3 70//3
f 71//41 67//22 70//41
f 70//42 67//21 71//42
f 67//22 71//41 68//22
f 68//21 71//42 67//21
f 66//3 71//3 72//3
f 72//4 71//4 66//4
f 72//39 73//43 69//39
f 69//40 73//44 72//40
f 70//4 69//4 74//4
f 74//3 69//3 70//3
f 70//41 75//45 71//41
f 71//42 75//46 70//42
f 72//3 71//3 75//3
f 75//4 71//4 72//4
f 73//43 72//39 76//43
f 76//44 72//40 73//44
f 77//4 69//4 73//4
f 73//3 69//3 77//3
f 74//4 69//4 77//4
f 77//3 69//3 74//3
f 75//45 70//41 74//45
f 74//46 70//42 75//46
f 72//3 75//3 78//3
f 78//4 75//4 72//4
f 72//3 78//3 76//3
f 76//4 78//4 72//4
f 76//43 79//47 73//43
f 73//44 79//48 76//44
f 77//4 73//4 80//4
f 80//3 73//3 77//3
f 78//49 74//45 77//49
f 77//50 74//46 78//50
f 74//45 78//49 75//45
f 75//46 78//50 74//46
f 76//3 78//3 81//3
f 81//4 78//4 76//4
f 80//4 73//4 79//4
f 79//3 73//3 80//3
f 81//51 77//49 80//51
f 80//52 77//50 81//52
f 77//49 81//51 78//49
f 78//50 81//52 77//50
f 80//4 79//4 82//4
f 82//3 79//3 80//3