mtllib new-6.mtl
v 0.421127 -0.176827 0.157666
v -0.421601 -0.171206 0.158406
v 0.421127 -0.165967 0.160576
v 0.421127 -0.171206 0.158406
v 0.421127 -0.155107 0.179386
v -0.421601 -0.165967 0.160576
v 0.421127 -0.161469 0.164027
v 0.421127 -0.158017 0.168526
v -0.421601 -0.155847 0.173764
v 0.421127 -0.155847 0.173764
v -0.421601 -0.155107 0.179386
v -0.421601 -0.176827 0.157666
v -0.421601 -0.158017 0.168526
v -0.421601 -0.161469 0.164027
v -0.434632 -0.155847 0.185007
v -0.421601 -0.198547 0.179386
v -0.421601 -0.182449 0.158406
v 0.421127 -0.182449 0.158406
v 0.421127 -0.155847 0.185007
v -0.434632 -0.198547 0.179386
v 0.421127 -0.198547 0.179386
v 0.421127 -0.187687 0.160576
v -0.421601 -0.187687 0.160576
v -0.434632 -0.158017 0.190245
v 0.421127 -0.158017 0.190245
v 0.421127 -0.197807 0.185007
v 0.421127 -0.197807 0.173764
v -0.421601 -0.197807 0.173764
v 0.421127 -0.192185 0.164027
v -0.434632 -0.197807 0.185007
v -0.434632 -0.161469 0.194744
v 0.421127 -0.161469 0.194744
v 0.421127 -0.195637 0.168526
v 0.421127 -0.195637 0.190245
v -0.421601 -0.192185 0.164027
v -0.434632 -0.195637 0.190245
v -0.434632 -0.165967 0.198195
v 0.421127 -0.165967 0.198195
v -0.421601 -0.195637 0.168526
v 0.421127 -0.192185 0.194744
v -0.434632 -0.192185 0.194744
v -0.434632 -0.171206 0.200365
v 0.421127 -0.171206 0.200365
v 0.421127 -0.187687 0.198195
v -0.434632 -0.187687 0.198195
v -0.434632 -0.176827 0.201105
v 0.421127 -0.176827 0.201105
v 0.421127 -0.182449 0.200365
v -0.434632 -0.182449 0.200365
v -0.421601 -0.188176 0.197905
v -0.434632 -0.188176 0.197905
v -0.434632 -0.187687 0.198195
vn 0.000000 0.000000 -1.000000
vn 0.000000 -0.258819 -0.965926
vn 0.000000 0.000000 1.000000
vn 0.000000 0.258819 0.965926
vn 0.000000 -0.500000 -0.866025
vn 0.000000 0.500000 0.866025
vn 0.000000 -0.707107 -0.707107
vn 0.000000 0.707107 0.707107
vn 0.000000 -0.866025 -0.500000
vn 0.000000 0.866025 0.500000
vn 0.000000 0.258819 -0.965926
vn 0.000000 -0.258819 0.965926
vn 0.000000 -0.965926 -0.258819
vn 0.000000 0.965926 0.258819
vn 0.000000 0.965926 -0.258819
vn 0.000000 -0.965926 0.258819
vn 0.000000 0.500000 -0.866025
vn 0.000000 -0.500000 0.866025
vn 0.000000 0.866025 -0.500000
vn 0.000000 -0.866025 0.500000
vn 0.000000 0.707107 -0.707107
vn 0.000000 -0.707107 0.707107
vn 0.000000 0.961843 -0.273603
vn 0.000000 0.892881 -0.450293
vn 0.000000 -0.892881 0.450293
vn 0.000000 -0.961843 0.273603
vn 0.000000 -0.961843 -0.273603
vn 0.000000 0.961843 0.273603
vn 0.000000 -0.948138 -0.317859
vn 0.000000 0.948138 0.317859
vn 0.000000 -0.892881 -0.450293
vn 0.000000 0.892881 0.450293
vn -0.000163 -0.522506 0.852635
vn 0.000163 0.522506 -0.852635
usemtl material-0
f 2//11 3//17 4//11
f 4//12 3//18 2//12
f 6//17 7//21 3//17
f 3//18 7//22 6//18
f 8//19 9//15 10//15
f 10//16 9//16 8//20
f 10//15 11//23 5//24
f 5//25 11//26 10//16
f 12//1 4//11 1//1
f 1//3 4//12 12//3
f 3//17 2//11 6//17
f 6//18 2//12 3//18
f 4//11 12//1 2//11
f 2//12 12//3 4//12
f 7//21 13//19 8//19
f 8//20 13//20 7//22
f 7//21 6//17 14//21
f 14//22 6//18 7//22
f 9//15 8//19 13//19
f 13//20 8//20 9//16
f 11//23 10//15 9//15
f 9//16 10//16 11//26
f 11//23 15//14 5//24
f 5//25 15//13 11//26
f 16//27 11//23 5//24
f 5//25 11//26 16//28
f 17//2 1//1 18//2
f 18//4 1//3 17//4
f 1//1 17//2 12//1
f 12//3 17//4 1//3
f 13//19 7//21 14//21
f 14//22 7//22 13//20
f 5//24 15//14 19//14
f 19//13 15//13 5//25
f 16//27 5//24 21//31
f 21//32 5//25 16//28
f 18//2 23//5 17//2
f 17//4 23//6 18//4
f 24//10 19//14 15//14
f 15//13 19//13 24//9
f 16//27 26//16 20//29
f 20//30 26//15 16//28
f 26//16 16//27 21//31
f 21//32 16//28 26//15
f 28//13 21//31 16//27
f 16//28 21//32 28//14
f 23//5 18//2 22//5
f 22//6 18//4 23//6
f 19//14 24//10 25//10
f 25//9 24//9 19//13
f 20//29 26//16 30//16
f 30//15 26//15 20//30
f 21//31 28//13 27//13
f 27//14 28//14 21//32
f 35//7 22//5 29//7
f 29//8 22//6 35//8
f 22//5 35//7 23//5
f 23//6 35//8 22//6
f 31//8 25//10 24//10
f 24//9 25//9 31//7
f 25//10 31//8 32//8
f 32//7 31//7 25//9
f 34//20 30//16 26//16
f 26//15 30//15 34//19
f 27//13 39//9 33//9
f 33//10 39//10 27//14
f 39//9 27//13 28//13
f 28//14 27//14 39//10
f 33//9 35//7 29//7
f 29//8 35//8 33//10
f 30//16 34//20 36//20
f 36//19 34//19 30//15
f 38//6 31//8 37//6
f 37//5 31//7 38//5
f 31//8 38//6 32//8
f 32//7 38//5 31//7
f 35//7 33//9 39//9
f 39//10 33//10 35//8
f 40//22 36//20 34//20
f 34//19 36//19 40//21
f 36//20 40//22 41//22
f 41//21 40//21 36//19
f 43//4 37//6 42//4
f 42//2 37//5 43//2
f 37//6 43//4 38//6
f 38//5 43//2 37//5
f 45//18 40//22 44//18
f 44//17 40//21 45//17
f 40//22 45//18 41//22
f 41//21 45//17 40//21
f 47//3 42//4 46//3
f 46//1 42//2 47//1
f 42//4 47//3 43//4
f 43//2 47//1 42//2
f 49//12 44//18 48//12
f 48//11 44//17 49//11
f 44//18 49//12 45//18
f 45//17 49//11 44//17
f 48//12 46//3 49//12
f 49//11 46//1 48//11
f 46//3 48//12 47//3
f 47//1 48//11 46//1
usemtl material-2
f 50//33 52//33 51//33
f 51//34 52//34 50//34