# SSTK version 0.8.0
# 15
mtllib original-15.mtl
o mesh39/mesh39-geometry#mesh39-geometry
v -0.004122 -0.702040 0.675596
v -0.008131 -0.696816 0.623466
v -0.004122 -0.702040 0.623466
v -0.008131 -0.696816 0.675596
v -0.007122 -0.688354 0.623466
v 0.000432 -0.713035 0.675596
v -0.007122 -0.688354 0.675596
v -0.011367 -0.692599 0.623466
v -0.003409 -0.693192 0.623466
v 0.000432 -0.713035 0.623466
v -0.003409 -0.693192 0.675596
v -0.011367 -0.692599 0.675596
v -0.017807 -0.680155 0.623466
v 0.001985 -0.724834 0.675596
v 0.001077 -0.699039 0.675596
v -0.017807 -0.680155 0.675596
v -0.020808 -0.685354 0.675596
v -0.020808 -0.685354 0.623466
v 0.001077 -0.699039 0.623466
v 0.001985 -0.724834 0.623466
v -0.030249 -0.675001 0.623466
v -0.030249 -0.675001 0.675596
v 0.007989 -0.724834 0.675596
v 0.006231 -0.711481 0.675596
v -0.031803 -0.680800 0.623466
v 0.006231 -0.711481 0.623466
v 0.007989 -0.724834 0.623466
v -0.031803 -0.680800 0.675596
v -0.043602 -0.679247 0.623466
v -0.043602 -0.673243 0.675596
v -0.043602 -0.673243 0.623466
v -0.043602 -0.679247 0.675596
v -0.055401 -0.680800 0.623466
v -0.056955 -0.675001 0.675596
v -0.055401 -0.680800 0.675596
v -0.056955 -0.675001 0.623466
v -0.066396 -0.685354 0.623466
v -0.069397 -0.680155 0.675596
v -0.066396 -0.685354 0.675596
v -0.069397 -0.680155 0.623466
v -0.075837 -0.692599 0.623466
v -0.080082 -0.688354 0.623466
v -0.075837 -0.692599 0.675596
v -0.080082 -0.688354 0.675596
v -0.083082 -0.702040 0.623466
v -0.088281 -0.699039 0.675596
v -0.083082 -0.702040 0.675596
v -0.087636 -0.713035 0.623466
v -0.088281 -0.699039 0.623466
v -0.087636 -0.713035 0.675596
v -0.093435 -0.711481 0.675596
v -0.089189 -0.724834 0.675596
v -0.089189 -0.724834 0.623466
v -0.093435 -0.711481 0.623466
v -0.095192 -0.724834 0.675596
v -0.095192 -0.724834 0.623466
vn -0.8660253028382761 -0.5000001748438416 0
vn -0.7933534213778813 -0.6087613233345314 0
vn 0.8660253028382761 0.5000001748438416 0
vn 0.7933534213778813 0.6087613233345314 0
vn 0 0 -1
vn 0 0 1
vn -0.9238797538373538 -0.38268289803626016 0
vn 0.9238797538373538 0.38268289803626016 0
vn -0.7071067811865475 -0.7071067811865475 0
vn 0.7071067811865475 0.7071067811865475 0
vn -0.9914448886106774 -0.1305259853353411 0
vn 0.9914448886106774 0.1305259853353411 0
vn -0.5000001748438416 -0.8660253028382761 0
vn 0.5000001748438416 0.8660253028382761 0
vn 0.2588189595935755 0.9659258492011172 0
vn -0.2588189595935755 -0.9659258492011172 0
vn 0 -1 0
vn 0 1 0
vn 0.9659258492011172 0.2588189595935755 0
vn -0.9659258492011172 -0.2588189595935755 0
vn -0.2588189595935755 0.9659258492011172 0
vn 0.2588189595935755 -0.9659258492011172 0
vn -0.5000001748438416 0.8660253028382761 0
vn 0.5000001748438416 -0.8660253028382761 0
vn -0.7071067811865475 0.7071067811865475 0
vn 0.7071067811865475 -0.7071067811865475 0
vn -0.8660253028382761 0.5000001748438416 0
vn 0.8660253028382761 -0.5000001748438416 0
vn 0.9659258492011172 -0.2588189595935755 0
vn -0.9659258492011172 0.2588189595935755 0
vn 0.9914448886106774 -0.1305259853353411 0
vn -0.9914448886106774 0.1305259853353411 0
usemtl material_0_0
f 1//1 2//2 3//1
f 2//2 1//1 4//2
f 3//3 2//4 1//3
f 4//4 1//3 2//4
f 2//5 5//5 3//5
f 3//6 5//6 2//6
f 3//1 6//7 1//1
f 1//3 6//8 3//3
f 7//6 4//6 1//6
f 1//5 4//5 7//5
f 4//2 8//9 2//2
f 2//4 8//10 4//4
f 8//5 5//5 2//5
f 2//6 5//6 8//6
f 3//5 5//5 9//5
f 9//6 5//6 3//6
f 6//7 3//1 10//7
f 10//8 3//3 6//8
f 11//6 1//6 6//6
f 6//5 1//5 11//5
f 7//6 12//6 4//6
f 4//5 12//5 7//5
f 7//6 1//6 11//6
f 11//5 1//5 7//5
f 8//9 4//2 12//9
f 12//10 4//4 8//10
f 8//5 13//5 5//5
f 5//6 13//6 8//6
f 5//10 11//4 9//4
f 9//2 11//2 5//9
f 3//5 9//5 10//5
f 10//6 9//6 3//6
f 10//11 14//11 6//11
f 6//12 14//12 10//12
f 11//6 6//6 15//6
f 15//5 6//5 11//5
f 16//6 12//6 7//6
f 7//5 12//5 16//5
f 11//4 5//10 7//10
f 7//9 5//9 11//2
f 17//13 8//9 12//9
f 12//10 8//10 17//14
f 18//5 13//5 8//5
f 8//6 13//6 18//6
f 16//14 5//10 13//14
f 13//13 5//9 16//13
f 15//3 9//4 11//4
f 11//2 9//2 15//1
f 10//5 9//5 19//5
f 19//6 9//6 10//6
f 14//11 10//11 20//11
f 20//12 10//12 14//12
f 15//6 6//6 14//6
f 14//5 6//5 15//5
f 16//6 17//6 12//6
f 12//5 17//5 16//5
f 5//10 16//14 7//10
f 7//9 16//13 5//9
f 8//9 17//13 18//13
f 18//14 17//14 8//10
f 18//5 21//5 13//5
f 13//6 21//6 18//6
f 13//14 22//15 16//14
f 16//13 22//16 13//13
f 9//4 15//3 19//3
f 19//1 15//1 9//2
f 10//5 19//5 20//5
f 20//6 19//6 10//6
f 20//17 23//17 14//17
f 14//18 23//18 20//18
f 15//6 14//6 24//6
f 24//5 14//5 15//5
f 22//6 17//6 16//6
f 16//5 17//5 22//5
f 17//13 25//16 18//13
f 18//14 25//15 17//14
f 25//5 21//5 18//5
f 18//6 21//6 25//6
f 22//15 13//14 21//15
f 21//16 13//13 22//16
f 24//19 19//3 15//3
f 15//1 19//1 24//20
f 20//5 19//5 26//5
f 26//6 19//6 20//6
f 23//17 20//17 27//17
f 27//18 20//18 23//18
f 24//6 14//6 23//6
f 23//5 14//5 24//5
f 22//6 28//6 17//6
f 17//5 28//5 22//5
f 25//16 17//13 28//16
f 28//15 17//14 25//15
f 29//5 21//5 25//5
f 25//6 21//6 29//6
f 21//15 30//18 22//15
f 22//16 30//17 21//16
f 19//3 24//19 26//19
f 26//20 24//20 19//1
f 20//5 26//5 27//5
f 27//6 26//6 20//6
f 26//19 23//12 27//12
f 27//11 23//11 26//20
f 23//12 26//19 24//19
f 24//20 26//20 23//11
f 30//6 28//6 22//6
f 22//5 28//5 30//5
f 28//16 29//17 25//16
f 25//15 29//18 28//15
f 29//5 31//5 21//5
f 21//6 31//6 29//6
f 30//18 21//15 31//18
f 31//17 21//16 30//17
f 30//6 32//6 28//6
f 28//5 32//5 30//5
f 29//17 28//16 32//17
f 32//18 28//15 29//18
f 33//5 31//5 29//5
f 29//6 31//6 33//6
f 31//18 34//21 30//18
f 30//17 34//22 31//17
f 30//6 35//6 32//6
f 32//5 35//5 30//5
f 32//17 33//22 29//17
f 29//18 33//21 32//18
f 33//5 36//5 31//5
f 31//6 36//6 33//6
f 34//21 31//18 36//21
f 36//22 31//17 34//22
f 34//6 35//6 30//6
f 30//5 35//5 34//5
f 33//22 32//17 35//22
f 35//21 32//18 33//21
f 37//5 36//5 33//5
f 33//6 36//6 37//6
f 36//21 38//23 34//21
f 34//22 38//24 36//22
f 34//6 39//6 35//6
f 35//5 39//5 34//5
f 35//22 37//24 33//22
f 33//21 37//23 35//21
f 37//5 40//5 36//5
f 36//6 40//6 37//6
f 38//23 36//21 40//23
f 40//24 36//22 38//24
f 38//6 39//6 34//6
f 34//5 39//5 38//5
f 37//24 35//22 39//24
f 39//23 35//21 37//23
f 41//5 40//5 37//5
f 37//6 40//6 41//6
f 42//25 38//23 40//23
f 40//24 38//24 42//26
f 38//6 43//6 39//6
f 39//5 43//5 38//5
f 39//24 41//26 37//24
f 37//23 41//25 39//23
f 41//5 42//5 40//5
f 40//6 42//6 41//6
f 38//23 42//25 44//25
f 44//26 42//26 38//24
f 44//6 43//6 38//6
f 38//5 43//5 44//5
f 41//26 39//24 43//26
f 43//25 39//23 41//25
f 45//5 42//5 41//5
f 41//6 42//6 45//6
f 42//25 46//27 44//25
f 44//26 46//28 42//26
f 44//6 47//6 43//6
f 43//5 47//5 44//5
f 47//28 41//26 43//26
f 43//25 41//25 47//27
f 48//5 42//5 45//5
f 45//6 42//6 48//6
f 41//26 47//28 45//28
f 45//27 47//27 41//25
f 46//27 42//25 49//27
f 49//28 42//26 46//28
f 46//6 50//6 44//6
f 44//5 50//5 46//5
f 44//6 50//6 47//6
f 47//5 50//5 44//5
f 48//5 49//5 42//5
f 42//6 49//6 48//6
f 45//28 50//29 48//29
f 48//30 50//30 45//27
f 50//29 45//28 47//28
f 47//27 45//27 50//30
f 49//27 51//30 46//27
f 46//28 51//29 49//28
f 46//6 52//6 50//6
f 50//5 52//5 46//5
f 53//5 49//5 48//5
f 48//6 49//6 53//6
f 52//31 48//29 50//29
f 50//30 48//30 52//32
f 51//30 49//27 54//30
f 54//29 49//28 51//29
f 51//6 52//6 46//6
f 46//5 52//5 51//5
f 53//5 54//5 49//5
f 49//6 54//6 53//6
f 48//29 52//31 53//31
f 53//32 52//32 48//30
f 54//30 55//32 51//30
f 51//29 55//31 54//29
f 52//6 51//6 55//6
f 55//5 51//5 52//5
f 54//5 53//5 56//5
f 56//6 53//6 54//6
f 52//17 56//17 53//17
f 53//18 56//18 52//18
f 55//32 54//30 56//32
f 56//31 54//29 55//31
f 56//17 52//17 55//17
f 55//18 52//18 56//18
