# SSTK version 0.8.0
# 20
mtllib original-20.mtl
o mesh38/mesh38-geometry#mesh38-geometry
v 0.447057 -0.665418 0.296326
v 0.447826 -0.699709 0.295308
v 0.447057 -0.699709 0.296326
v 0.447826 -0.665418 0.295308
v 0.456039 -0.699709 0.299964
v 0.446578 -0.665418 0.297509
v 0.448832 -0.699709 0.294524
v 0.446578 -0.699709 0.297509
v 0.446578 -0.693192 0.297509
v 0.448832 -0.665418 0.294524
v 0.456039 -0.693192 0.299964
v 0.450007 -0.699709 0.294026
v 0.446422 -0.665418 0.298775
v 0.450007 -0.665418 0.294026
v 0.456196 -0.699709 0.298698
v 0.451270 -0.699709 0.293849
v 0.446422 -0.693192 0.298775
v 0.456039 -0.670305 0.299964
v 0.456019 -0.699709 0.297434
v 0.451270 -0.665418 0.293849
v 0.452536 -0.699709 0.294006
v 0.446598 -0.665418 0.300039
v 0.446598 -0.693192 0.300039
v 0.456039 -0.665418 0.299964
v 0.455561 -0.665418 0.301146
v 0.455522 -0.699709 0.296259
v 0.456196 -0.665418 0.298698
v 0.452536 -0.675193 0.294006
v 0.453719 -0.699709 0.294485
v 0.447096 -0.693192 0.301214
v 0.455561 -0.693192 0.301146
v 0.454737 -0.699709 0.295253
v 0.456019 -0.665418 0.297434
v 0.452536 -0.670305 0.294006
v 0.453719 -0.665418 0.294485
v 0.447096 -0.665418 0.301214
v 0.447881 -0.693192 0.302220
v 0.454792 -0.665418 0.302165
v 0.454792 -0.693192 0.302165
v 0.455522 -0.665418 0.296259
v 0.452536 -0.665418 0.294006
v 0.454737 -0.665418 0.295253
v 0.448899 -0.693192 0.302988
v 0.447881 -0.665418 0.302220
v 0.453786 -0.693192 0.302949
v 0.450081 -0.693192 0.303467
v 0.448899 -0.665418 0.302988
v 0.453786 -0.665418 0.302949
v 0.452611 -0.693192 0.303447
v 0.451348 -0.693192 0.303624
v 0.450081 -0.675193 0.303467
v 0.451348 -0.665418 0.303624
v 0.450081 -0.670305 0.303467
v 0.452611 -0.665418 0.303447
v 0.450081 -0.665418 0.303467
vn -0.8699660902874083 0 -0.4931115510207005
vn -0.7126958501199622 0 -0.7014731821116075
vn 0.8699660902874083 0 0.4931115510207005
vn 0.7126958501199622 0 0.7014731821116075
vn 0 -1 0
vn 0 1 0
vn -0.9679493531357926 0 -0.2511454753006725
vn 0.9679493531357926 0 0.2511454753006725
vn -0.506856882798027 0 -0.8620302200968751
vn 0.506856882798027 0 0.8620302200968751
vn -0.2511454753006725 0 0.9679493531357926
vn 0.2511454753006725 0 -0.9679493531357926
vn -0.9268874279743602 0 -0.37533944085730625
vn 0.9268874279743602 0 0.37533944085730625
vn -0.9999685115353165 0 0.007935738015059925
vn 0.9999685115353165 0 -0.007935738015059925
vn -0.2664765095041521 0 -0.9638414132431142
vn 0.2664765095041521 0 0.9638414132431142
vn 0.9924494492266258 0 0.1226543547117955
vn -0.9924494492266258 0 -0.1226543547117955
vn -0.007935738015059925 0 -0.9999685115353165
vn 0.007935738015059925 0 0.9999685115353165
vn -0.9638414132431142 0 0.2664765095041521
vn 0.9638414132431142 0 -0.2664765095041521
vn 0.1226543547117955 0 -0.9924494492266258
vn -0.1226543547117955 0 0.9924494492266258
vn 0.8620302200968751 0 -0.506856882798027
vn -0.8620302200968751 0 0.506856882798027
vn 0.4931115510207005 0 -0.8699660902874083
vn 0.37533944085730625 0 -0.9268874279743602
vn -0.37533944085730625 0 0.9268874279743602
vn -0.4931115510207005 0 0.8699660902874083
vn 0.7014731821116075 0 -0.7126958501199622
vn -0.7014731821116075 0 0.7126958501199622
usemtl material_0_0
f 1//1 2//2 3//1
f 2//2 1//1 4//2
f 3//3 2//4 1//3
f 4//4 1//3 2//4
f 5//5 3//5 2//5
f 2//6 3//6 5//6
f 3//1 6//7 1//1
f 1//3 6//8 3//3
f 4//2 7//9 2//2
f 2//4 7//10 4//4
f 3//5 5//5 8//5
f 8//6 5//6 3//6
f 5//5 2//5 7//5
f 7//6 2//6 5//6
f 3//1 9//7 6//7
f 6//8 9//8 3//3
f 7//9 4//2 10//9
f 10//10 4//4 7//10
f 11//11 8//11 5//11
f 5//12 8//12 11//12
f 9//7 3//1 8//13
f 8//14 3//3 9//8
f 5//5 7//5 12//5
f 12//6 7//6 5//6
f 9//7 13//15 6//7
f 6//8 13//16 9//8
f 14//17 7//9 10//9
f 10//10 7//10 14//18
f 8//11 11//11 9//11
f 9//12 11//12 8//12
f 15//16 11//19 5//19
f 5//20 11//20 15//15
f 7//9 14//17 12//17
f 12//18 14//18 7//10
f 5//5 12//5 16//5
f 16//6 12//6 5//6
f 13//15 9//7 17//15
f 17//16 9//8 13//16
f 11//5 17//5 9//5
f 9//6 17//6 11//6
f 11//19 15//16 18//19
f 18//20 15//15 11//20
f 5//5 19//5 15//5
f 15//6 19//6 5//6
f 20//21 12//17 14//17
f 14//18 12//18 20//22
f 12//17 20//21 16//21
f 16//22 20//22 12//18
f 5//5 16//5 21//5
f 21//6 16//6 5//6
f 17//15 22//23 13//15
f 13//16 22//24 17//16
f 17//5 11//5 23//5
f 23//6 11//6 17//6
f 18//19 15//16 24//19
f 24//20 15//15 18//20
f 25//3 11//14 18//14
f 18//13 11//13 25//1
f 5//5 26//5 19//5
f 19//6 26//6 5//6
f 19//24 27//16 15//16
f 15//15 27//15 19//23
f 28//25 16//21 20//21
f 20//22 16//22 28//26
f 16//21 28//25 21//25
f 21//26 28//26 16//22
f 5//5 21//5 29//5
f 29//6 21//6 5//6
f 22//23 17//15 23//23
f 23//24 17//16 22//24
f 23//5 11//5 30//5
f 30//6 11//6 23//6
f 24//19 15//16 27//16
f 27//15 15//15 24//20
f 25//3 18//14 24//14
f 24//13 18//13 25//1
f 11//14 25//3 31//3
f 31//1 25//1 11//13
f 5//5 32//5 26//5
f 26//6 32//6 5//6
f 26//27 33//24 19//24
f 19//23 33//23 26//28
f 27//16 19//24 33//24
f 33//23 19//23 27//15
f 28//25 20//21 34//25
f 34//26 20//22 28//26
f 35//29 21//30 28//30
f 28//31 21//31 35//32
f 21//30 35//29 29//29
f 29//32 35//32 21//31
f 5//5 29//5 32//5
f 32//6 29//6 5//6
f 23//23 36//28 22//23
f 22//24 36//27 23//24
f 30//5 11//5 37//5
f 37//6 11//6 30//6
f 36//28 23//23 30//28
f 30//27 23//24 36//27
f 38//4 31//3 25//3
f 25//1 31//1 38//2
f 39//5 11//5 31//5
f 31//6 11//6 39//6
f 32//33 40//27 26//27
f 26//28 40//28 32//34
f 33//24 26//27 40//27
f 40//28 26//28 33//23
f 34//25 20//21 41//25
f 41//26 20//22 34//26
f 35//29 28//30 34//30
f 34//31 28//31 35//32
f 42//33 29//29 35//29
f 35//32 29//32 42//34
f 29//29 42//33 32//33
f 32//34 42//34 29//32
f 37//5 11//5 43//5
f 43//6 11//6 37//6
f 44//34 30//28 37//34
f 37//33 30//27 44//33
f 30//28 44//34 36//28
f 36//27 44//33 30//27
f 31//3 38//4 39//4
f 39//2 38//2 31//1
f 45//5 11//5 39//5
f 39//6 11//6 45//6
f 40//27 32//33 42//33
f 42//34 32//34 40//28
f 35//29 34//30 41//30
f 41//31 34//31 35//32
f 43//5 11//5 46//5
f 46//6 11//6 43//6
f 47//32 37//34 43//32
f 43//29 37//33 47//29
f 37//34 47//32 44//34
f 44//33 47//29 37//33
f 48//10 39//4 38//4
f 38//2 39//2 48//9
f 49//5 11//5 45//5
f 45//6 11//6 49//6
f 39//4 48//10 45//10
f 45//9 48//9 39//2
f 46//5 11//5 50//5
f 50//6 11//6 46//6
f 51//31 43//32 46//31
f 46//30 43//29 51//30
f 43//32 51//31 47//32
f 47//29 51//30 43//29
f 50//5 11//5 49//5
f 49//6 11//6 50//6
f 48//10 49//18 45//10
f 45//9 49//17 48//9
f 52//22 46//26 50//22
f 50//21 46//25 52//21
f 46//26 52//22 51//26
f 51//25 52//21 46//25
f 47//32 51//31 53//31
f 53//30 51//30 47//29
f 54//18 50//22 49//18
f 49//17 50//21 54//17
f 49//18 48//10 54//18
f 54//17 48//9 49//17
f 50//22 54//18 52//22
f 52//21 54//17 50//21
f 51//26 52//22 53//26
f 53//25 52//21 51//25
f 47//32 53//31 55//31
f 55//30 53//30 47//29
f 53//26 52//22 55//26
f 55//25 52//21 53//25
