# SSTK version 0.8.0
# 11
mtllib original-11.mtl
o foot__ball_of_1/foot__ball_of_/mesh35/mesh35-geometry#mesh35-geometry
v 0.025421 -0.601957 0.219095
v -0.004504 -0.496067 0.219095
v -0.004504 -0.601957 0.219095
v 0.025421 -0.496067 0.219095
v -0.034429 -0.496067 0.219095
v -0.034429 -0.601957 0.219095
v 0.034668 -0.601957 0.190635
v 0.034668 -0.496067 0.190635
v -0.043676 -0.496067 0.190635
v -0.043676 -0.601957 0.190635
v -0.004504 -0.496067 0.173045
v 0.043915 -0.601957 0.162174
v -0.052924 -0.601957 0.162174
v 0.043915 -0.496067 0.162174
v -0.052924 -0.496067 0.162174
v 0.019706 -0.496067 0.144585
v -0.028714 -0.496067 0.144585
v -0.028714 -0.601957 0.144585
v -0.004504 -0.496067 0.126995
v 0.019706 -0.601957 0.144585
v -0.004504 -0.601957 0.126995
vn 0 0 1
vn 0 0 -1
vn 0 -1 0
vn 0 1 0
vn 0.9510565608316645 0 0.309016857305628
vn -0.9510565608316645 0 -0.309016857305628
vn -0.9510565608316645 0 0.3090168573056276
vn 0.9510565608316645 0 -0.3090168573056276
vn 0.5877850844899978 0 -0.8090171162905556
vn -0.5877850844899978 0 0.8090171162905556
vn -0.5877850844899973 0 -0.8090171162905558
vn 0.5877850844899973 0 0.8090171162905558
usemtl material_0_0
f 1//1 2//1 3//1
f 2//1 1//1 4//1
f 3//2 2//2 1//2
f 4//2 1//2 2//2
f 5//1 3//1 2//1
f 2//2 3//2 5//2
f 6//3 1//3 3//3
f 3//4 1//4 6//4
f 7//5 4//5 1//5
f 1//6 4//6 7//6
f 8//4 2//4 4//4
f 4//3 2//3 8//3
f 3//1 5//1 6//1
f 6//2 5//2 3//2
f 2//4 9//4 5//4
f 5//3 9//3 2//3
f 10//3 1//3 6//3
f 6//4 1//4 10//4
f 4//5 7//5 8//5
f 8//6 7//6 4//6
f 10//3 7//3 1//3
f 1//4 7//4 10//4
f 8//4 11//4 2//4
f 2//3 11//3 8//3
f 5//7 10//7 6//7
f 6//8 10//8 5//8
f 11//4 9//4 2//4
f 2//3 9//3 11//3
f 10//7 5//7 9//7
f 9//8 5//8 10//8
f 12//5 8//5 7//5
f 7//6 8//6 12//6
f 13//3 7//3 10//3
f 10//4 7//4 13//4
f 14//4 11//4 8//4
f 8//3 11//3 14//3
f 11//4 15//4 9//4
f 9//3 15//3 11//3
f 9//7 13//7 10//7
f 10//8 13//8 9//8
f 8//5 12//5 14//5
f 14//6 12//6 8//6
f 13//3 12//3 7//3
f 7//4 12//4 13//4
f 16//4 11//4 14//4
f 14//3 11//3 16//3
f 11//4 17//4 15//4
f 15//3 17//3 11//3
f 13//7 9//7 15//7
f 15//8 9//8 13//8
f 12//9 16//9 14//9
f 14//10 16//10 12//10
f 18//3 12//3 13//3
f 13//4 12//4 18//4
f 11//4 16//4 19//4
f 19//3 16//3 11//3
f 17//4 11//4 19//4
f 19//3 11//3 17//3
f 18//11 15//11 17//11
f 17//12 15//12 18//12
f 15//11 18//11 13//11
f 13//12 18//12 15//12
f 16//9 12//9 20//9
f 20//10 12//10 16//10
f 18//3 20//3 12//3
f 12//4 20//4 18//4
f 20//9 19//9 16//9
f 16//10 19//10 20//10
f 21//11 17//11 19//11
f 19//12 17//12 21//12
f 17//11 21//11 18//11
f 18//12 21//12 17//12
f 20//3 18//3 21//3
f 21//4 18//4 20//4
f 19//9 20//9 21//9
f 21//10 20//10 19//10
